<svg width="400" height="448" viewBox="0 0 400 448" xmlns="http://www.w3.org/2000/svg" xmlns:xlink="http://www.w3.org/1999/xlink"><title>Artboard</title><defs><path id="b" d="M0 0h118v160H0z"/><filter x="-30.5%" y="-16.2%" width="161%" height="145%" filterUnits="objectBoundingBox" id="a"><feOffset dy="10" in="SourceAlpha" result="shadowOffsetOuter1"/><feGaussianBlur stdDeviation="10" in="shadowOffsetOuter1" result="shadowBlurOuter1"/><feColorMatrix values="0 0 0 0 0 0 0 0 0 0 0 0 0 0 0 0 0 0 0.4 0" in="shadowBlurOuter1" result="shadowMatrixOuter1"/><feMorphology radius=".5" operator="dilate" in="SourceAlpha" result="shadowSpreadOuter2"/><feOffset in="shadowSpreadOuter2" result="shadowOffsetOuter2"/><feColorMatrix values="0 0 0 0 0 0 0 0 0 0 0 0 0 0 0 0 0 0 0.1 0" in="shadowOffsetOuter2" result="shadowMatrixOuter2"/><feMerge><feMergeNode in="shadowMatrixOuter1"/><feMergeNode in="shadowMatrixOuter2"/></feMerge></filter><path id="c" d="M0 0h118v160H0z"/><rect id="e" width="120" height="42" rx="5"/><rect id="g" width="120" height="42" rx="5"/><rect id="i" width="120" height="42" rx="5"/><rect id="k" width="120" height="42" rx="5"/><rect id="m" width="120" height="42" rx="5"/><rect id="o" width="120" height="42" rx="5"/></defs><g fill="none" fill-rule="evenodd"><path fill="#F6F7F9" fill-rule="nonzero" d="M0 0h400v448H0z"/><g transform="translate(231 102)"><use fill="#000" filter="url(#a)" xlink:href="#b"/><use fill="#FFF" xlink:href="#b"/></g><g transform="translate(231 102)"><mask id="d" fill="#fff"><use xlink:href="#c"/></mask><path fill="#FFED9D" fill-rule="nonzero" mask="url(#d)" d="M0 0h118v40H0z"/></g><g font-size="14" font-family="YandexSansText-Regular, Yandex Sans Text" fill="#445870"><text transform="translate(265 114)"><tspan x="0" y="13">None</tspan></text><text transform="translate(265 114)"><tspan x="0" y="53">One</tspan></text><text transform="translate(265 114)"><tspan x="0" y="93">Two</tspan></text><text transform="translate(265 114)"><tspan x="0" y="133">Three</tspan></text></g><path d="M244.871 121.04l4.95 4.95-.99.99-4.95-4.95.99-.99zm11.88-3.96l.99.99-7.92 7.92-.99-.99 7.92-7.92z" fill="#000"/><g transform="translate(230 56)"><mask id="f" fill="#fff"><use xlink:href="#e"/></mask><rect stroke="#FED246" stroke-width="2" fill="#FFF" fill-rule="nonzero" mask="url(#f)" width="120" height="42" rx="5"/></g><text transform="translate(248 69)" font-size="14" font-family="YandexSansText-Regular, Yandex Sans Text" fill="#445870"><tspan x="0" y="13">Select</tspan></text><path fill="#000" opacity=".9" d="M338.148 81.857l.71-.75-6.858-7.25-6.857 7.25.71.75 6.147-6.5z"/><text transform="translate(232 39)" font-size="11" font-family="YandexSansText-Regular, Yandex Sans Text" fill="#90A1B5"><tspan x="0" y="10">OPENED</tspan></text><g transform="translate(50 384)"><mask id="h" fill="#fff"><use xlink:href="#g"/></mask><rect stroke="#FED246" stroke-width="2" fill="#FFF" fill-rule="nonzero" mask="url(#h)" width="120" height="42" rx="5"/></g><text transform="translate(68 397)" font-size="14" font-family="YandexSansText-Regular, Yandex Sans Text" fill="#445870"><tspan x="0" y="13">Select</tspan></text><text transform="translate(52 367)" font-size="11" font-family="YandexSansText-Regular, Yandex Sans Text" fill="#90A1B5"><tspan x="0" y="10">FOCUSED</tspan></text><path fill="#000" opacity=".9" d="M145.852 401.857l-.71.75 6.858 7.25 6.857-7.25-.71-.75-6.147 6.5z"/><g><g transform="translate(50 302)"><mask id="j" fill="#fff"><use xlink:href="#i"/></mask><rect stroke="#D8D8D8" stroke-width="2" fill="#D8D8D8" fill-rule="nonzero" mask="url(#j)" width="120" height="42" rx="5"/></g><text transform="translate(68 315)" font-size="14" font-family="YandexSansText-Regular, Yandex Sans Text" fill="#767676"><tspan x="0" y="13">Select</tspan></text><text transform="translate(52 285)" font-size="11" font-family="YandexSansText-Regular, Yandex Sans Text" fill="#90A1B5"><tspan x="0" y="10">DISABLED</tspan></text><path fill="#767676" opacity=".9" d="M145.852 319.857l-.71.75 6.858 7.25 6.857-7.25-.71-.75-6.147 6.5z"/></g><g><g transform="translate(50 220)"><mask id="l" fill="#fff"><use xlink:href="#k"/></mask><rect stroke="#B7B7B7" stroke-width="2" fill="#F2F2F2" fill-rule="nonzero" mask="url(#l)" width="120" height="42" rx="5"/></g><text transform="translate(68 233)" font-size="14" font-family="YandexSansText-Regular, Yandex Sans Text" fill="#445870"><tspan x="0" y="13">Select</tspan></text><text transform="translate(52 203)" font-size="11" font-family="YandexSansText-Regular, Yandex Sans Text" fill="#90A1B5"><tspan x="0" y="10">PRESSED</tspan></text><path fill="#000" opacity=".9" d="M145.852 237.857l-.71.75 6.858 7.25 6.857-7.25-.71-.75-6.147 6.5z"/></g><g><rect width="120" height="42" rx="5" fill-rule="nonzero" fill="#000" transform="translate(50 138)"/><g transform="translate(50 138)"><mask id="n" fill="#fff"><use xlink:href="#m"/></mask><rect stroke="#B7B7B7" stroke-width="2" fill="#FFF" fill-rule="nonzero" mask="url(#n)" width="120" height="42" rx="5"/></g></g><g font-size="14" font-family="YandexSansText-Regular, Yandex Sans Text" fill="#445870"><text transform="translate(68 151)"><tspan x="0" y="13">Select</tspan></text></g><path fill="#000" opacity=".9" d="M145.852 155.857l-.71.75 6.858 7.25 6.857-7.25-.71-.75-6.147 6.5z"/><g font-size="11" font-family="YandexSansText-Regular, Yandex Sans Text" fill="#90A1B5"><text transform="translate(52 121)"><tspan x="0" y="10">HOVERED</tspan></text></g><g><g transform="translate(50 56)"><mask id="p" fill="#fff"><use xlink:href="#o"/></mask><rect stroke="#CCC" stroke-width="2" fill="#FFF" fill-rule="nonzero" mask="url(#p)" width="120" height="42" rx="5"/></g><text transform="translate(68 69)" font-size="14" font-family="YandexSansText-Regular, Yandex Sans Text" fill="#445870"><tspan x="0" y="13">Select</tspan></text><text transform="translate(52 39)" font-size="11" font-family="YandexSansText-Regular, Yandex Sans Text" fill="#90A1B5"><tspan x="0" y="10">DEFAULT</tspan></text><path fill="#000" opacity=".9" d="M145.852 73.857l-.71.75 6.858 7.25 6.857-7.25-.71-.75-6.147 6.5z"/></g></g></svg>