<svg width="400" height="300" viewBox="0 0 400 300" xmlns="http://www.w3.org/2000/svg" xmlns:xlink="http://www.w3.org/1999/xlink"><title>shot</title><defs><rect id="a" width="118" height="160" rx="5"/><mask id="f" x="-1" y="-1" width="120" height="162"><path fill="#fff" d="M-1-1h120v162H-1z"/><use xlink:href="#a"/></mask><rect id="b" y="17" width="120" height="42" rx="5"/><mask id="h" x="0" y="0" width="120" height="42" fill="#fff"><use xlink:href="#b"/></mask><rect id="c" y="17" width="120" height="42" rx="5"/><mask id="i" x="0" y="0" width="120" height="42" fill="#fff"><use xlink:href="#c"/></mask><rect id="d" y="17" width="120" height="42" rx="5"/><filter x="-50%" y="-50%" width="200%" height="200%" filterUnits="objectBoundingBox" id="j"><feOffset dy="1" in="SourceAlpha" result="shadowOffsetOuter1"/><feComposite in="shadowOffsetOuter1" in2="SourceAlpha" operator="out" result="shadowOffsetOuter1"/><feColorMatrix values="0 0 0 0 0.665789753 0 0 0 0 0.665789753 0 0 0 0 0.665789753 0 0 0 0.01 0" in="shadowOffsetOuter1"/></filter><mask id="k" x="0" y="0" width="120" height="42" fill="#fff"><use xlink:href="#d"/></mask><rect id="e" y="17" width="120" height="42" rx="5"/><mask id="l" x="0" y="0" width="120" height="42" fill="#fff"><use xlink:href="#e"/></mask></defs><g fill="none" fill-rule="evenodd"><path fill="#F6F7F9" d="M0 0h400v300H0z"/><g transform="translate(230 39)"><g transform="translate(1 63)"><mask id="g" fill="#fff"><use xlink:href="#a"/></mask><use fill="#FFF" xlink:href="#a"/><use stroke="#E0E7EE" mask="url(#f)" stroke-width="2" xlink:href="#a"/><path fill="#F7F8F9" mask="url(#g)" d="M0 0h118v40H0z"/><text mask="url(#g)" font-family="ArialMT, Arial" font-size="14" fill="#445870"><tspan x="17" y="25">None</tspan></text><text mask="url(#g)" font-family="ArialMT, Arial" font-size="14" fill="#445870"><tspan x="17" y="65">One</tspan></text><text mask="url(#g)" font-family="ArialMT, Arial" font-size="14" fill="#445870"><tspan x="17" y="105">Two</tspan></text><text mask="url(#g)" font-family="ArialMT, Arial" font-size="14" fill="#445870"><tspan x="17" y="145">Three</tspan></text></g><use stroke="#88BFFF" mask="url(#h)" stroke-width="2" fill="#FFF" xlink:href="#b"/><text font-family="ArialMT, Arial" font-size="14" fill="#445870"><tspan x="18" y="43">Select</tspan></text><path fill="#90A1B5" d="M107 40l-1.5 1.5L102 38l-3.5 3.5L97 40l5-5z"/><text font-family="ArialMT, Arial" font-size="11" fill="#90A1B5"><tspan x="2" y="10">OPEN</tspan></text></g><g transform="translate(50 203)"><use stroke="#88BFFF" mask="url(#i)" stroke-width="2" fill="#FFF" xlink:href="#c"/><text font-family="ArialMT, Arial" font-size="14" fill="#445870"><tspan x="18" y="43">Select</tspan></text><path fill="#90A1B5" d="M97 36.5l1.5-1.5 3.5 3.5 3.5-3.5 1.5 1.5-5 5z"/><text font-family="ArialMT, Arial" font-size="11" fill="#90A1B5"><tspan x="2" y="10">FOCUS</tspan></text></g><g transform="translate(50 121)"><use fill="#000" filter="url(#j)" xlink:href="#d"/><use stroke="#CAD1D9" mask="url(#k)" stroke-width="2" fill="#FFF" xlink:href="#d"/></g><text font-family="ArialMT, Arial" font-size="14" fill="#445870" transform="translate(50 121)"><tspan x="18" y="43">Select</tspan></text><path fill="#90A1B5" d="M147 157.5l1.5-1.5 3.5 3.5 3.5-3.5 1.5 1.5-5 5z"/><text font-family="ArialMT, Arial" font-size="11" fill="#90A1B5" transform="translate(50 121)"><tspan x="2" y="10">HOVER</tspan></text><g transform="translate(50 39)"><use stroke="#E0E7EE" mask="url(#l)" stroke-width="2" fill="#FFF" xlink:href="#e"/><text font-family="ArialMT, Arial" font-size="14" fill="#445870"><tspan x="18" y="43">Select</tspan></text><path fill="#90A1B5" d="M97 36.5l1.5-1.5 3.5 3.5 3.5-3.5 1.5 1.5-5 5z"/><text font-family="ArialMT, Arial" font-size="11" fill="#90A1B5"><tspan x="2" y="10">DEFAULT</tspan></text></g></g></svg>