<svg width="575" height="349" xmlns="http://www.w3.org/2000/svg" xmlns:xlink="http://www.w3.org/1999/xlink"><defs><rect id="a" width="74" height="28" rx="3"/><rect id="b" width="69" height="28" rx="3"/><rect id="c" width="69" height="28" rx="3"/></defs><g fill="none" fill-rule="evenodd"><text transform="translate(21.428 4.26)" fill="#000" font-family="YandexSansText-Bold, Yandex Sans Text" font-size="16" font-weight="bold"><tspan x=".26" y="15.68">Source files</tspan></text><path d="M522.45 71.497v156.8m-3-7.797l3 10.8 3-10.8m-6-94l3 10.8 3-10.8" stroke="#000" stroke-width="1.5"/><g transform="translate(486 234)"><use fill="#FFDB4D" xlink:href="#a"/><rect stroke="#FFDB4D" stroke-width="1.5" x=".75" y=".75" width="72.5" height="26.5" rx="3"/></g><path stroke="#000" d="M551 246l-5 5-5-5"/><text fill="#000" font-family="YandexSansText-Regular, Yandex Sans Text" font-size="14" transform="translate(486 234)"><tspan x="8" y="19">Button</tspan></text><path d="M219.5 247.75l261 .255m-7.803 2.991l10.803-2.99-10.797-3.01" stroke="#000" stroke-width="1.5"/><g transform="translate(233 237)"><circle fill="#FD5" cx="11" cy="11" r="11"/><text font-family="YandexSansText-Regular, Yandex Sans Text" font-size="14" fill="#202020"><tspan x="7.563" y="14.531">3</tspan></text></g><text transform="translate(127.142 260.308)" fill="#000" font-family="YandexSansText-Regular, Yandex Sans Text" font-size="16"><tspan x=".74" y="15.93">button/</tspan></text><g fill="#000"><text transform="translate(159.142 279.308)" font-family="YandexSansText-Regular, Yandex Sans Text" font-size="16"><tspan x=".74" y="15.93">__arrow/</tspan></text><text transform="translate(191.701 318.02)" font-family="YandexSansText-Regular, Yandex Sans Text" font-size="16"><tspan x=".48" y="15.89">button__arrow.svg</tspan></text><text transform="translate(191.362 301.012)" font-family="YandexSansText-Regular, Yandex Sans Text" font-size="16"><tspan x=".82" y="15.89">button__arrow.css</tspan></text><path d="M172.581 328.968h14.17M172.581 311.96h14.17m-13.579-9.067v26.46M140.581 289.96h14.17m-13.579-9.067v9.46" stroke="#000" stroke-width="1.5" fill-rule="nonzero"/></g><path d="M57.404 247.44h19.84m-19.835-10.866v11.34M106.023 252.956v18.2m-.43-.003h14.17" stroke="#000" stroke-width="1.5" fill="#000" fill-rule="nonzero"/><g transform="translate(74.166 232.032)"><rect stroke="#000" stroke-width="1.5" fill="#FFF" fill-rule="nonzero" y=".73" width="144.813" height="29.324" rx="14.662"/><text transform="translate(15 4)" fill="#000" font-family="YandexSansText-Regular, Yandex Sans Text" font-size="16"><tspan x=".72" y="15.39">desktop.blocks/</tspan></text></g><g><g transform="translate(488 140)"><use fill="#FFDB4D" xlink:href="#b"/><rect stroke="#FFDB4D" stroke-width="1.5" x=".75" y=".75" width="67.5" height="26.5" rx="3"/></g><text fill="#000" font-family="YandexSansText-Regular, Yandex Sans Text" font-size="14" transform="translate(488 140)"><tspan x="12" y="18">Button</tspan></text><path d="M220.49 156.102l262 .498m-7.818 2.943l10.815-2.943-10.784-3.057" stroke="#000" stroke-width="1.5"/><path d="M57.404 156.401h19.84M57.409 142.7v14.17M105.61 167.511l.167 12.69m-.005-.005h14.17" stroke="#000" stroke-width="1.5" fill="#000" fill-rule="nonzero"/><text transform="translate(127.7 169.35)" fill="#000" font-family="YandexSansText-Regular, Yandex Sans Text" font-size="16"><tspan x=".05" y="15.93">button/</tspan></text><g transform="translate(233 145)"><circle fill="#FD5" cx="11" cy="11" r="11"/><text font-family="YandexSansText-Regular, Yandex Sans Text" font-size="14" fill="#202020"><tspan x="7.563" y="14.601">2</tspan></text></g><g transform="translate(75.706 140.993)"><rect stroke="#000" stroke-width="1.5" fill="#FFF" fill-rule="nonzero" y=".73" width="144.813" height="29.324" rx="14.662"/><text transform="translate(14 4)" fill="#000" font-family="YandexSansText-Regular, Yandex Sans Text" font-size="16"><tspan x=".27" y="15.39">common.blocks/</tspan></text></g><g fill="#000"><text transform="translate(159.142 188.308)" font-family="YandexSansText-Regular, Yandex Sans Text" font-size="16"><tspan x=".74" y="15.93">_theme/</tspan></text><text transform="translate(191.362 209.012)" font-family="YandexSansText-Regular, Yandex Sans Text" font-size="16"><tspan x=".82" y="15.89">button_theme_action.css</tspan></text><path d="M172.581 219.96h14.17m-13.579-9.067v9.46M140.581 198.96h14.17m-13.579-9.067v9.46" stroke="#000" stroke-width="1.5" fill-rule="nonzero"/></g></g><g><text transform="translate(127.142 82.528)" fill="#000" font-family="YandexSansText-Regular, Yandex Sans Text" font-size="16"><tspan x=".74" y="15.93">button/</tspan></text><path d="M140.581 113.881h14.17" stroke="#000" stroke-width="1.5" fill="#000" fill-rule="nonzero"/><path d="M5.827 37.819h84.6v19.843h-84.6z"/><text transform="translate(21.827 36.607)" fill="#000" font-family="YandexSansText-Regular, Yandex Sans Text" font-size="16"><tspan x=".07" y="15.93">project/</tspan></text><path d="M60.239 71.83h19.84M60.243 60.496v11.34m80.929 32.978v26.46" stroke="#000" stroke-width="1.5" fill="#000" fill-rule="nonzero"/><path d="M147.701 126.074h85.451v9.921h-85.451z"/><text transform="translate(159.701 119.941)" fill="#000" font-family="YandexSansText-Regular, Yandex Sans Text" font-size="16"><tspan x=".48" y="15.89">button.js</tspan></text><path d="M153.937 109.066h85.377v9.921h-85.377z"/><text transform="translate(159.937 102.933)" fill="#000" font-family="YandexSansText-Regular, Yandex Sans Text" font-size="16"><tspan x=".22" y="15.89">button.css</tspan></text><path d="M140.581 130.889h14.17" stroke="#000" stroke-width="1.5" fill="#000"/><path d="M221.5 71.75l261 .255m-7.803 2.991l10.803-2.99-10.797-3.01" stroke="#000" stroke-width="1.5"/><g transform="translate(233 61)"><circle fill="#FD5" cx="11" cy="11" r="11"/><text font-family="YandexSansText-Regular, Yandex Sans Text" font-size="14" fill="#202020"><tspan x="7.108" y="15">1</tspan></text></g><g transform="translate(488 58)"><use fill="#FFF" xlink:href="#c"/><rect stroke="#CCC" stroke-width="1.5" x=".75" y=".75" width="67.5" height="26.5" rx="3"/></g><text fill="#000" font-family="YandexSansText-Regular, Yandex Sans Text" font-size="14" transform="translate(488 58)"><tspan x="12" y="19">Button</tspan></text><path d="M106.177 79.637l-.154 14.88m-.43-.479h14.17" stroke="#000" stroke-width="1.5" fill="#000" fill-rule="nonzero"/><g transform="translate(77.247 54.536)"><rect stroke="#000" stroke-width="1.5" fill="#FFF" fill-rule="nonzero" y=".73" width="144.813" height="29.324" rx="14.662"/><text transform="translate(13 4)" fill="#000" font-family="YandexSansText-Regular, Yandex Sans Text" font-size="16"><tspan x="0" y="15">library.blocks/</tspan></text></g></g></g></svg>