<?xml version="1.0" encoding="UTF-8"?>
<svg width="478px" height="368px" viewBox="0 0 478 368" version="1.1" xmlns="http://www.w3.org/2000/svg" xmlns:xlink="http://www.w3.org/1999/xlink">
    <!-- Generator: Sketch 44.1 (41455) - http://www.bohemiancoding.com/sketch -->
    <title>Group</title>
    <desc>Created with Sketch.</desc>
    <defs>
        <rect id="path-1" x="417" y="67" width="69" height="28" rx="3"></rect>
        <filter x="-0.7%" y="-1.8%" width="101.4%" height="103.6%" filterUnits="objectBoundingBox" id="filter-2">
            <feMorphology radius="1" operator="erode" in="SourceAlpha" result="shadowSpreadInner1"></feMorphology>
            <feOffset dx="0" dy="0" in="shadowSpreadInner1" result="shadowOffsetInner1"></feOffset>
            <feComposite in="shadowOffsetInner1" in2="SourceAlpha" operator="arithmetic" k2="-1" k3="1" result="shadowInnerInner1"></feComposite>
            <feColorMatrix values="0 0 0 0 0   0 0 0 0 0   0 0 0 0 0  0 0 0 0.2 0" type="matrix" in="shadowInnerInner1"></feColorMatrix>
        </filter>
        <rect id="path-3" x="413" y="330" width="82" height="28" rx="3"></rect>
        <filter x="-0.6%" y="-1.8%" width="101.2%" height="103.6%" filterUnits="objectBoundingBox" id="filter-4">
            <feMorphology radius="1" operator="erode" in="SourceAlpha" result="shadowSpreadInner1"></feMorphology>
            <feOffset dx="0" dy="0" in="shadowSpreadInner1" result="shadowOffsetInner1"></feOffset>
            <feComposite in="shadowOffsetInner1" in2="SourceAlpha" operator="arithmetic" k2="-1" k3="1" result="shadowInnerInner1"></feComposite>
            <feColorMatrix values="0 0 0 0 0   0 0 0 0 0   0 0 0 0 0  0 0 0 0.2 0" type="matrix" in="shadowInnerInner1"></feColorMatrix>
        </filter>
        <rect id="path-5" x="417" y="159" width="69" height="28" rx="3"></rect>
        <filter x="-0.7%" y="-1.8%" width="101.4%" height="103.6%" filterUnits="objectBoundingBox" id="filter-6">
            <feMorphology radius="1" operator="erode" in="SourceAlpha" result="shadowSpreadInner1"></feMorphology>
            <feOffset dx="0" dy="0" in="shadowSpreadInner1" result="shadowOffsetInner1"></feOffset>
            <feComposite in="shadowOffsetInner1" in2="SourceAlpha" operator="arithmetic" k2="-1" k3="1" result="shadowInnerInner1"></feComposite>
            <feColorMatrix values="0 0 0 0 0   0 0 0 0 0   0 0 0 0 0  0 0 0 0.3 0" type="matrix" in="shadowInnerInner1"></feColorMatrix>
        </filter>
        <rect id="path-7" x="435" y="257" width="32" height="28" rx="3"></rect>
        <filter x="-1.6%" y="-1.8%" width="103.1%" height="103.6%" filterUnits="objectBoundingBox" id="filter-8">
            <feMorphology radius="1" operator="erode" in="SourceAlpha" result="shadowSpreadInner1"></feMorphology>
            <feOffset dx="0" dy="0" in="shadowSpreadInner1" result="shadowOffsetInner1"></feOffset>
            <feComposite in="shadowOffsetInner1" in2="SourceAlpha" operator="arithmetic" k2="-1" k3="1" result="shadowInnerInner1"></feComposite>
            <feColorMatrix values="0 0 0 0 0   0 0 0 0 0   0 0 0 0 0  0 0 0 0.2 0" type="matrix" in="shadowInnerInner1"></feColorMatrix>
        </filter>
    </defs>
    <g id="Page-4" stroke="none" stroke-width="1" fill="none" fill-rule="evenodd">
        <g id="Group" transform="translate(-22.000000, -22.000000)">
            <polygon id="Rectangle-2" points="1 0 592 0 592 88.4414062 592 416 1 416"></polygon>
            <polygon id="Shape" points="0.428 15.968 133.656 15.968 133.656 44.314 0.428 44.314"></polygon>
            <text id="Source-files" fill="#000000" font-family="Arial-BoldMT, Arial" font-size="16" font-weight="bold">
                <tspan x="21.688" y="34.94">Source files</tspan>
            </text>
            <text id="Build-result" fill="#000000" font-family="Arial-BoldMT, Arial" font-size="16" font-weight="bold">
                <tspan x="412" y="388">Build result</tspan>
            </text>
            <path d="M140.581,144.881 L154.751,144.881" id="Shape" stroke="#000000" stroke-width="1.5" fill="#000000" fill-rule="nonzero"></path>
            <polygon id="Shape" points="5.827 52.819 90.427 52.819 90.427 72.662 5.827 72.662"></polygon>
            <text id="project/" fill="#000000" font-family="ArialMT, Arial" font-size="16" font-weight="normal">
                <tspan x="21.897" y="67.537">project/</tspan>
            </text>
            <polygon id="Shape" points="147.701 141.074 233.152 141.074 233.152 150.995 147.701 150.995"></polygon>
            <path d="M104.177,287.637 L104.023,302.517 M103.593,302.038 L117.763,302.038" id="Shape" stroke="#000000" stroke-width="1.5" fill="#000000" fill-rule="nonzero"></path>
            <polygon id="Shape" points="110.142 288.74 194.561 288.74 194.561 308.583 110.142 308.583"></polygon>
            <text id="button/" fill="#000000" font-family="ArialMT, Arial" font-size="16" font-weight="normal">
                <tspan x="124.882" y="305.458">button/</tspan>
            </text>
            <path d="M140.581,321.881 L154.751,321.881" id="Shape" stroke="#000000" stroke-width="1.5" fill="#000000" fill-rule="nonzero"></path>
            <polygon id="Shape" points="5.827 53.819 90.427 53.819 90.427 73.662 5.827 73.662"></polygon>
            <path d="M60.239,273.83 L80.079,273.83 M60.243,262.496 L60.243,273.836 M141.172,309.814 L141.172,321.154 M174.581,342.814 L188.751,342.814 M174.581,359.814 L188.751,359.814 M175.172,331.814 L175.172,360.496" id="Shape" stroke="#000000" stroke-width="1.5" fill="#000000" fill-rule="nonzero"></path>
            <polygon id="Shape" points="147.701 142.074 233.152 142.074 233.152 151.995 147.701 151.995"></polygon>
            <text id="button__arrow.css" fill="#000000" font-family="ArialMT, Arial" font-size="16" font-weight="normal">
                <tspan x="193.181" y="346.831">button__arrow.css</tspan>
            </text>
            <text id="button__arrow.js" fill="#000000" font-family="ArialMT, Arial" font-size="16" font-weight="normal">
                <tspan x="193.181" y="364.831">button__arrow.js</tspan>
            </text>
            <polygon id="Shape" points="153.937 125.066 239.314 125.066 239.314 134.987 153.937 134.987"></polygon>
            <text id="__arrow/" fill="#000000" font-family="ArialMT, Arial" font-size="16" font-weight="normal">
                <tspan x="160.157" y="324.823">__arrow/</tspan>
            </text>
            <rect id="Rectangle-path" stroke="#000000" stroke-width="1.5" fill="#FFFFFF" fill-rule="nonzero" x="77.247" y="258.268761" width="161" height="29.4349266" rx="14.662"></rect>
            <text id="common.blocks/" fill="#000000" font-family="ArialMT, Arial" font-size="16" font-weight="normal">
                <tspan x="91.857" y="276.946389">common.blocks/</tspan>
            </text>
            <rect id="Rectangle" fill="#FFFFFF" opacity="0.214334239" x="440" y="65" width="32" height="34" rx="8"></rect>
            <path d="M104.177,188.637 L104.023,203.517 M103.593,203.038 L117.763,203.038" id="Shape" stroke="#000000" stroke-width="1.5" fill="#000000" fill-rule="nonzero"></path>
            <polygon id="Shape" points="110.142 189.74 194.561 189.74 194.561 209.583 110.142 209.583"></polygon>
            <text id="button/" fill="#000000" font-family="ArialMT, Arial" font-size="16" font-weight="normal">
                <tspan x="124.882" y="206.458">button/</tspan>
            </text>
            <path d="M60.239,174.83 L80.079,174.83 M60.243,163.496 L60.243,174.836 M140.581,221.814 L154.751,221.814 M141.172,210.814 L141.172,222.154" id="Shape" stroke="#000000" stroke-width="1.5" fill="#000000" fill-rule="nonzero"></path>
            <text id="_theme/" fill="#000000" font-family="ArialMT, Arial" font-size="16" font-weight="normal">
                <tspan x="160.181" y="225.831">_theme/</tspan>
            </text>
            <path d="M141.172,210.814 L141.172,222.154 M174.581,243.814 L188.751,243.814 M175.172,232.814 L175.172,244.154" id="Shape" stroke="#000000" stroke-width="1.5" fill="#000000" fill-rule="nonzero"></path>
            <polygon id="Shape" points="147.701 292.074 233.152 292.074 233.152 301.995 147.701 301.995"></polygon>
            <text id="button_theme_sun.css" fill="#000000" font-family="ArialMT, Arial" font-size="16" font-weight="normal">
                <tspan x="193.181" y="249.831">button_theme_sun.css</tspan>
            </text>
            <polygon id="Shape" points="153.937 215.066 239.314 215.066 239.314 224.987 153.937 224.987"></polygon>
            <rect id="Rectangle-path" stroke="#000000" stroke-width="1.5" fill="#FFFFFF" fill-rule="nonzero" x="77.247" y="159.268761" width="161" height="29.4349266" rx="14.662"></rect>
            <text id="index.page.blocks/" fill="#000000" font-family="ArialMT, Arial" font-size="16" font-weight="normal">
                <tspan x="91.857" y="177.946389">index.page.blocks/</tspan>
            </text>
            <path d="M104.177,96.637 L104.023,111.517 M103.593,111.038 L117.763,111.038" id="Shape" stroke="#000000" stroke-width="1.5" fill="#000000" fill-rule="nonzero"></path>
            <polygon id="Shape" points="110.142 289.74 194.561 289.74 194.561 309.583 110.142 309.583"></polygon>
            <text id="button/" fill="#000000" font-family="ArialMT, Arial" font-size="16" font-weight="normal">
                <tspan x="124.882" y="114.458">button/</tspan>
            </text>
            <path d="M140.581,130.881 L154.751,130.881" id="Shape" stroke="#000000" stroke-width="1.5" fill="#000000" fill-rule="nonzero"></path>
            <path d="M60.239,82.83 L80.079,82.83 M60.243,71.496 L60.243,82.836 M141.172,118.814 L141.172,145.274" id="Shape" stroke="#000000" stroke-width="1.5" fill="#000000" fill-rule="nonzero"></path>
            <text id="button.js" fill="#000000" font-family="ArialMT, Arial" font-size="16" font-weight="normal">
                <tspan x="160.181" y="148.831">button.js</tspan>
            </text>
            <polygon id="Shape" points="153.937 341.066 239.314 341.066 239.314 350.987 153.937 350.987"></polygon>
            <text id="button.css" fill="#000000" font-family="ArialMT, Arial" font-size="16" font-weight="normal">
                <tspan x="160.157" y="134.823">button.css</tspan>
            </text>
            <rect id="Rectangle-path" stroke="#000000" stroke-width="1.5" fill="#FFFFFF" fill-rule="nonzero" x="77.247" y="67.2687614" width="161" height="29.4349266" rx="14.662"></rect>
            <text id="library.blocks/" fill="#000000" font-family="ArialMT, Arial" font-size="16" font-weight="normal">
                <tspan x="91.857" y="85.9463892">library.blocks/</tspan>
            </text>
            <path d="M238.607929,174.5675 L418.253,174.5675" id="Shape" stroke="#000000" stroke-width="1.5" fill="#000000" fill-rule="nonzero"></path>
            <g id="Rectangle-58">
                <use fill="#FFFFFF" fill-rule="evenodd" xlink:href="#path-1"></use>
                <use fill="black" fill-opacity="1" filter="url(#filter-2)" xlink:href="#path-1"></use>
            </g>
            <path d="M238.854929,272.5675 L435.5,272.5675" id="Shape" stroke="#000000" stroke-width="1.5" fill="#000000" fill-rule="nonzero"></path>
            <text id="Button" font-family="ArialMT, Arial" font-size="13" font-weight="normal" fill="#000000">
                <tspan x="432" y="85">Button</tspan>
            </text>
            <path d="M238.854929,82.5675 L417.5,82.5675" id="Shape" stroke="#000000" stroke-width="1.5" fill="#000000" fill-rule="nonzero"></path>
            <g id="Rectangle-58">
                <use fill="#FEE481" fill-rule="evenodd" xlink:href="#path-3"></use>
                <use fill="black" fill-opacity="1" filter="url(#filter-4)" xlink:href="#path-3"></use>
            </g>
            <text id="Button" font-family="ArialMT, Arial" font-size="13" font-weight="normal" fill="#000000">
                <tspan x="426" y="348">Button</tspan>
            </text>
            <polyline id="Path-91" stroke="#000000" points="476 339 481 344 476 349"></polyline>
            <path d="M451.5,95 L451.5,326 M449,306.630886 L451.5,326 L454,306.630886" id="Shape" stroke="#000000" stroke-width="1.5"></path>
            <g id="Rectangle-58">
                <use fill="#FEE481" fill-rule="evenodd" xlink:href="#path-5"></use>
                <use fill="black" fill-opacity="1" filter="url(#filter-6)" xlink:href="#path-5"></use>
            </g>
            <g id="Rectangle-58">
                <use fill="#FFFFFF" fill-rule="evenodd" xlink:href="#path-7"></use>
                <use fill="black" fill-opacity="1" filter="url(#filter-8)" xlink:href="#path-7"></use>
            </g>
            <polyline id="Path-91" stroke="#000000" points="449 266 454 271 449 276"></polyline>
        </g>
    </g>
</svg>
