<svg width="330" height="208" viewBox="0 0 330 208" xmlns="http://www.w3.org/2000/svg" xmlns:xlink="http://www.w3.org/1999/xlink"><title>yellow-blocks</title><defs><circle id="b" cx="28" cy="28" r="28"/><filter x="-10.7%" y="-7.1%" width="121.4%" height="121.4%" filterUnits="objectBoundingBox" id="a"><feOffset dy="2" in="SourceAlpha" result="shadowOffsetOuter1"/><feGaussianBlur stdDeviation="1" in="shadowOffsetOuter1" result="shadowBlurOuter1"/><feColorMatrix values="0 0 0 0 0 0 0 0 0 0 0 0 0 0 0 0 0 0 0.24 0" in="shadowBlurOuter1" result="shadowMatrixOuter1"/><feOffset in="SourceAlpha" result="shadowOffsetOuter2"/><feGaussianBlur stdDeviation="1" in="shadowOffsetOuter2" result="shadowBlurOuter2"/><feColorMatrix values="0 0 0 0 0 0 0 0 0 0 0 0 0 0 0 0 0 0 0.12 0" in="shadowBlurOuter2" result="shadowMatrixOuter2"/><feMerge><feMergeNode in="shadowMatrixOuter1"/><feMergeNode in="shadowMatrixOuter2"/></feMerge></filter></defs><g fill="none" fill-rule="evenodd"><g transform="translate(2 2)"><use fill="#000" filter="url(#a)" xlink:href="#b"/><use fill="#FFDD60" xlink:href="#b"/></g><path d="M18 18h24v24H18z"/><path d="M29 29h-8v2h8v8h2v-8h8v-2h-8v-8h-2v8z" fill="#000"/><g transform="translate(2 174)"><path d="M47.8 14c0 5.46-4.34 9.8-9.8 9.8H10A9.74 9.74 0 0 1 .2 14c0-5.46 4.34-9.8 9.8-9.8h28c5.46 0 9.8 4.34 9.8 9.8z" fill="#FFEBA0"/><circle fill="#FC0" cx="38" cy="14" r="14"/></g><path d="M291.077 81.237H4.01c-1.11 0-2.01.897-2.01 2v67.999c0 1.105.898 2 2.01 2h323.98c1.11 0 2.01-.897 2.01-2V83.237c0-1.105-.898-2-2.01-2h-14.44L302.314 70l-11.237 11.237z" fill="#FFDB4D"/><path d="M299.67 108.038l-5.486 5.486 1.423 1.422 5.485-5.485 5.485 5.485 1.422-1.422-5.485-5.486 5.485-5.485-1.422-1.422-5.485 5.485-5.485-5.485-1.423 1.422 5.485 5.485z" fill="#222"/><text font-family="Roboto-Regular, Roboto" font-size="16" fill="#222" transform="translate(2 70)"><tspan x="16.024" y="42.417">Now you can use tips</tspan></text><path d="M-18-8h600v220H-18z"/></g></svg>