<svg width="760" height="340" viewBox="0 0 760 340" xmlns="http://www.w3.org/2000/svg" style="background:#fff"><title>build__declaration</title><g fill="none" fill-rule="evenodd"><ellipse cx="14.173" cy="35.621" rx="14.173" ry="35.433" transform="translate(316.415 161.614)" stroke="#000" fill="#FFF"/><path d="M131.783 17.708h134.31z" fill="#FC0"/><text transform="translate(33.248 22.004)" font-size="16" font-family="Arial-BoldMT, Arial" fill="#000" font-weight="bold"><tspan x=".26" y="14.68">Source files</tspan></text><path d="M110.34 102.752l.132 62.36" stroke="#000" stroke-width="1.5" fill="#000"/><text transform="translate(99.024 84.367)" font-size="16" font-family="ArialMT, Arial" fill="#000"><tspan x=".1" y="14.68">blocks/</tspan></text><text transform="translate(128.675 155.162)" font-size="16" font-family="ArialMT, Arial" fill="#000"><tspan x=".57" y="14.19">icon/</tspan></text><text transform="translate(159.62 172.737)" font-size="16" font-family="ArialMT, Arial" fill="#000"><tspan x=".62" y="14.19">icon.css</tspan></text><path d="M110.468 165.11h14.17m16.88 16.441h14.17" stroke="#000" stroke-width="1.5" fill="#000"/><text transform="translate(33.35 56.02)" font-size="16" font-family="ArialMT, Arial" fill="#000"><tspan x=".29" y="14.68">project/</tspan></text><path d="M76.453 94.243h19.84M76.457 82.91v11.34m-.147 107.71h19.84m-19.835-10.767v11.34" stroke="#000" stroke-width="1.5" fill="#000"/><text transform="translate(98.673 192.579)" font-size="16" font-family="ArialMT, Arial" fill="#000"><tspan x=".29" y="14.19">lib/</tspan></text><path d="M99.13 217.555h85.039v28.346H99.13z"/><path d="M110.473 213.303v62.36m31.049-101.345v24.81m-.004.131h14.17" stroke="#000" stroke-width="1.5" fill="#000"/><text transform="translate(159.557 189.878)" font-size="16" font-family="ArialMT, Arial" fill="#000"><tspan x=".67" y="14.19">icon.js</tspan></text><path d="M110.62 224.771h14.17" stroke="#000" stroke-width="1.5" fill="#000"/><text transform="translate(128.26 214.831)" font-size="16" font-family="ArialMT, Arial" fill="#F66"><tspan x=".92" y="14.6">button/</tspan></text><text transform="translate(160.142 231.839)" font-size="16" font-family="ArialMT, Arial" fill="#F66"><tspan x=".06" y="14.6">button.css</tspan></text><text transform="translate(159.874 249.264)" font-size="16" font-family="ArialMT, Arial" fill="#F66"><tspan x=".59" y="14.19">button.js</tspan></text><path d="M141.67 241.637h14.17m-14.17 17.008h14.17m-14.166-24.807v24.81" stroke="#000" stroke-width="1.5" fill="#000"/><text transform="translate(128.979 104.272)" font-size="16" font-family="ArialMT, Arial" fill="#F66"><tspan x=".25" y="14.19">logo/</tspan></text><text transform="translate(160.055 121.847)" font-size="16" font-family="ArialMT, Arial" fill="#F66"><tspan x=".17" y="14.19">logo.css</tspan></text><path d="M110.337 114.22h14.17m16.879 16.44h14.17m-14.166-7.232v24.81m-.004.131h14.17" stroke="#000" stroke-width="1.5" fill="#000"/><text transform="translate(159.992 138.988)" font-size="16" font-family="ArialMT, Arial" fill="#F66"><tspan x=".22" y="14.19">logo.js</tspan></text><path d="M110.337 275.794h14.17" stroke="#000" stroke-width="1.5" fill="#000"/><text transform="translate(128.573 265.855)" font-size="16" font-family="ArialMT, Arial" fill="#F66"><tspan x=".81" y="14.6">input/</tspan></text><text transform="translate(159.455 282.862)" font-size="16" font-family="ArialMT, Arial" fill="#F66"><tspan x=".95" y="14.6">input.css</tspan></text><text transform="translate(160.187 300.288)" font-size="16" font-family="ArialMT, Arial" fill="#F66"><tspan x=".49" y="14.19">input.js</tspan></text><path d="M141.386 292.66h14.17m-14.17 17.008h14.17m-14.166-24.807v24.81" stroke="#000" stroke-width="1.5" fill="#000"/><path d="M590.905 308.546c-.81 0-1.46-.65-1.46-1.46v-58.16c0-.81.65-1.46 1.46-1.46h37.59c.37 0 .75.15 1.03.44l8.13 8.13c.28.28.44.65.44 1.03v50.05c0 .81-.66 1.46-1.47 1.46h-45.72v-.03z" fill="#FFF"/><text transform="translate(605.822 292.732)" font-size="12" font-family="ArialMT, Arial" fill="#000"><tspan x=".52" y="11.14">JS</tspan></text><path d="M628.308 247.467v7.7c0 1.15.93 2.08 2.09 2.08h7.66l-9.75-9.78z" fill="#FFCC09"/><path d="M628.308 247.467v7.7c0 1.15.93 2.08 2.09 2.08h7.66" stroke="#010202" stroke-width="1.25"/><path d="M595.74 260h36.06m-36.06 3.797h36.06m-36.06 3.795h36.06m-36.06 3.796h36.06m-36.06 3.796h26.57" stroke="#010202" stroke-width="1.5" fill="#000"/><path d="M590.905 146.971c-.81 0-1.46-.65-1.46-1.46v-58.16c0-.81.65-1.46 1.46-1.46h37.59c.37 0 .75.15 1.03.44l8.13 8.13c.28.28.44.65.44 1.03v50.05c0 .81-.66 1.46-1.47 1.46h-45.72v-.03z" fill="#FFF"/><text transform="translate(600.822 131.157)" font-size="12" font-family="ArialMT, Arial" fill="#000"><tspan x=".18" y="11.14">CSS</tspan></text><path d="M628.308 85.892v7.7c0 1.15.93 2.08 2.09 2.08h7.66l-9.75-9.78z" fill="#FFCC09"/><path d="M628.308 85.892v7.7c0 1.15.93 2.08 2.09 2.08h7.66" stroke="#010202" stroke-width="1.25"/><path d="M599.285 99.44h28.658v28.346h-28.658z" stroke="#000" stroke-width="2.25" fill="#FFF"/><path d="M601.864 101.708h23.244v23.244h-23.244z" stroke="#000" stroke-width=".72" fill="#000"/><g stroke="#000" stroke-width="1.5"><path d="M225.421 130.625c6.46 7.59 21.486 16.303 41.774 24.224 20.287 7.922 44.174 14.401 66.403 18.013"/><path d="M335.295 173.422l.741.143m-11.173.895l11.173-.895-10.034-4.996" stroke-linecap="square"/></g><g stroke="#000" stroke-width="1.5"><path d="M241.473 241.174c18.886.139 61.905-21.053 96.093-47.338"/><path d="M339.05 192.76l.606-.45m-6.881 8.849l6.88-8.849-10.458 4.032" stroke-linecap="square"/></g><g stroke="#000" stroke-width="1.5"><path d="M230.134 292.197c23.373-4.686 71.217-41.87 106.87-83.058"/><path d="M338.138 207.937l.502-.563m-4.956 10.054l4.956-10.054-9.431 6.058" stroke-linecap="square"/></g><g stroke="#FC0" stroke-width="1.5"><path d="M213.125 147.634c7.406 6.929 23.632 14.137 45.109 20.037 21.476 5.901 46.443 10.011 69.407 11.426" stroke-dasharray="12,5.999999999999998"/><path d="M329.215 179.332l.756.06m-11.003 2.142l11.003-2.142-10.531-3.84" stroke-linecap="square"/></g><g stroke="#FC0" stroke-width="1.5"><path d="M210.716 199.783c8.809 1.488 25.885 1.608 47.47.332 21.585-1.276 45.91-3.843 67.62-7.136" stroke-dasharray="12,6"/><path d="M327.716 192.208l.733-.18m-9.776 5.484l9.776-5.484-11.203-.344" stroke-linecap="square"/></g><g stroke="#000" stroke-width="1.5"><path d="M221.347 181.646c8.685 3.095 25.75 5.073 47.44 5.498 21.691.425 46.23-.737 68.217-3.23"/><path d="M338.005 183.337l.747-.128m-10.137 4.783l10.137-4.783-11.152-1.13" stroke-linecap="square"/></g><g stroke="#FC0" stroke-width="1.5"><path d="M230.132 257.893c9.538.79 25.022-3.904 43.044-13.048s37.106-21.99 53.054-35.71" stroke-dasharray="12,6"/><path d="M328.057 207.772l.6-.457m-6.776 8.929l6.776-8.929-10.41 4.156" stroke-linecap="square"/></g><g stroke="#FC0" stroke-width="1.5"><path d="M219.077 309.768c28.843 1.229 78.718-37.097 111.398-85.603" stroke-dasharray="12,6"/><path d="M331.133 223.767l.363-.5m-3.915 10.503l3.915-10.502-8.771 6.979" stroke-linecap="square"/></g><ellipse cx="14.173" cy="35.621" rx="14.173" ry="35.433" transform="translate(457.581 161.614)" stroke="#000" fill="#FFF"/><path d="M331.199 161.831h139.94M330.813 232.66h140.72" stroke="#000" stroke-width="1.5" fill="#000"/><path d="M448.969 162.539h22.927v69.392h-22.927z" fill="#FFF"/><text transform="translate(380.707 185.937)" font-size="16" font-family="Arial-BoldMT, Arial" fill="#000" font-weight="bold"><tspan x=".19" y="14.68">Build</tspan></text><text transform="translate(648.724 107.063)" font-size="16" font-family="ArialMT, Arial" fill="#000"><tspan x=".12" y="14.19">project.css</tspan></text><text fill="#000" font-family="ArialMT, Arial" font-size="16" transform="translate(33 17)"><tspan x="615.831" y="265.828">project.js</tspan></text><g stroke="#000" stroke-width="1.5"><path d="M494.183 189.87c8.454 1.147 22.388-2.36 38.736-9.75 16.347-7.39 33.77-18.056 48.432-29.653"/><path d="M581.753 149.596l.46-.412m-6.048 9.437l6.048-9.437-10.049 4.966" stroke-linecap="square"/></g><g stroke="#FC0" stroke-width="1.5"><path d="M494.324 204.318c8.396-.855 22.282 2.786 38.601 10.122 16.32 7.336 33.738 17.766 48.422 28.996" stroke-dasharray="12,6"/><path d="M582.24 243.094l.53.315m-10.818-2.937l10.818 2.937-7.753-8.095" stroke-linecap="square"/></g><text transform="translate(587.268 22.345)" font-size="16" font-family="Arial-BoldMT, Arial" fill="#000" font-weight="bold"><tspan x=".44" y="14.68">Bundles</tspan></text><path d="M628.462 248.09c.22 0 .44.09.59.25l8.14 8.13c.15.16.25.38.25.59v50.06c0 .46-.38.84-.84.84h-45.69c-.47 0-.84-.38-.84-.84v-58.19c0-.47.37-.84.84-.84h37.55zm0-1.25h-37.55c-1.16 0-2.09.94-2.09 2.09v58.19c0 1.15.93 2.08 2.09 2.08h45.72c1.15 0 2.09-.93 2.09-2.08v-50.06c0-.56-.22-1.09-.63-1.46l-8.13-8.13c-.41-.41-.94-.63-1.5-.63zm0-160.325c.22 0 .44.09.59.25l8.14 8.13c.15.16.25.38.25.59v50.06c0 .46-.38.84-.84.84h-45.69c-.47 0-.84-.38-.84-.84v-58.19c0-.47.37-.84.84-.84h37.55zm0-1.25h-37.55c-1.16 0-2.09.94-2.09 2.09v58.19c0 1.15.93 2.08 2.09 2.08h45.72c1.15 0 2.09-.93 2.09-2.08v-50.06c0-.56-.22-1.09-.63-1.46l-8.13-8.13c-.41-.41-.94-.63-1.5-.63z" fill="#12100B"/><text transform="translate(356.223 23)" font-size="16" font-family="Arial-BoldMT, Arial" fill="#000" font-weight="bold"><tspan x=".62" y="14.09">Declaration</tspan></text><text transform="translate(336 57.071)" font-size="16" font-family="ArialMT, Arial" fill="#F66"><tspan x="0" y="14.51">button, logo, input</tspan></text><path d="M401.5 82.5v69m-3-10.8l3 10.8 3-10.8" stroke="#000" stroke-width="1.5" stroke-linecap="square"/></g></svg>