<svg width="620" height="352" viewBox="0 0 620 352" xmlns="http://www.w3.org/2000/svg" xmlns:xlink="http://www.w3.org/1999/xlink" style="background:#fff"><title>build__levels</title><defs><rect id="b" width="69" height="28" rx="3"/><filter x="-50%" y="-50%" width="200%" height="200%" filterUnits="objectBoundingBox" id="a"><feOffset dy="1" in="SourceAlpha" result="shadowOffsetOuter1"/><feColorMatrix values="0 0 0 0 0 0 0 0 0 0 0 0 0 0 0 0 0 0 0.12 0" in="shadowOffsetOuter1" result="shadowMatrixOuter1"/><feOffset dy="5" in="SourceAlpha" result="shadowOffsetOuter2"/><feGaussianBlur stdDeviation="5" in="shadowOffsetOuter2" result="shadowBlurOuter2"/><feColorMatrix values="0 0 0 0 0 0 0 0 0 0 0 0 0 0 0 0 0 0 0.1 0" in="shadowBlurOuter2" result="shadowMatrixOuter2"/><feMerge><feMergeNode in="shadowMatrixOuter1"/><feMergeNode in="shadowMatrixOuter2"/></feMerge></filter><rect id="c" width="20" height="20" rx="3"/><filter x="-50%" y="-50%" width="200%" height="200%" filterUnits="objectBoundingBox" id="d"><feMorphology radius="1" in="SourceAlpha" result="shadowSpreadInner1"/><feOffset in="shadowSpreadInner1" result="shadowOffsetInner1"/><feComposite in="shadowOffsetInner1" in2="SourceAlpha" operator="arithmetic" k2="-1" k3="1" result="shadowInnerInner1"/><feColorMatrix values="0 0 0 0 0 0 0 0 0 0 0 0 0 0 0 0 0 0 0.2 0" in="shadowInnerInner1"/></filter></defs><g fill="none" fill-rule="evenodd"><path d="M12.428 17.968h133.228v28.346H12.428z"/><text fill="#000" font-family="Arial-BoldMT, Arial" font-size="16" font-weight="bold" transform="translate(12.428 17.26)"><tspan x="21.26" y="19.68">Source files</tspan></text><path d="M118.177 96.637l-.154 14.88m-.43-.479h14.17" stroke="#000" stroke-width="1.5" fill="#000"/><path d="M122.142 100.74h84.419v19.843h-84.419z"/><text fill="#000" font-family="ArialMT, Arial" font-size="16" transform="translate(122.142 100.528)"><tspan x="17.74" y="14.93">button/</tspan></text><path d="M152.581 130.881h14.17" stroke="#000" stroke-width="1.5" fill="#000"/><path d="M17.827 54.819h84.6v19.843h-84.6z"/><text fill="#000" font-family="ArialMT, Arial" font-size="16" transform="translate(17.827 54.607)"><tspan x="16.07" y="14.93">project/</tspan></text><path d="M72.239 88.83h19.84M72.243 77.496v11.34m80.929 32.978v26.46" stroke="#000" stroke-width="1.5" fill="#000"/><path d="M159.701 143.074h85.451v9.921h-85.451z"/><text fill="#000" font-family="ArialMT, Arial" font-size="16" transform="translate(159.701 137.941)"><tspan x="12.48" y="14.89">button.js</tspan></text><path d="M165.937 126.066h85.377v9.921h-85.377z"/><text fill="#000" font-family="ArialMT, Arial" font-size="16" transform="translate(165.937 120.933)"><tspan x="6.22" y="14.89">button.css</tspan></text><path d="M152.581 147.889h14.17m-49.141 36.622l.167 12.69m-.005-.005h14.17" stroke="#000" stroke-width="1.5" fill="#000"/><text transform="translate(139.7 187.35)" font-size="16" font-family="ArialMT, Arial" fill="#000"><tspan x=".05" y="14.93">button/</tspan></text><path d="M152.76 215.92h14.17m-97.526-42.519h19.84M69.409 159.7v14.17m83.763 32.417v26.95" stroke="#000" stroke-width="1.5" fill="#000"/><text transform="translate(172.126 222.981)" font-size="16" font-family="ArialMT, Arial" fill="#000"><tspan x=".08" y="14.89">button.js</tspan></text><text transform="translate(171.362 205.973)" font-size="16" font-family="ArialMT, Arial" fill="#000"><tspan x=".82" y="14.89">button.css</tspan></text><path d="M152.76 232.928h14.17m-48.907 31.028v18.2m-.43-.003h14.17" stroke="#000" stroke-width="1.5" fill="#000"/><text transform="translate(139.142 272.308)" font-size="16" font-family="ArialMT, Arial" fill="#000"><tspan x=".74" y="14.93">button/</tspan></text><path d="M152.581 300.96h14.17m-97.347-42.52h19.84m-19.835-10.866v11.34m83.763 32.979v26.46" stroke="#000" stroke-width="1.5" fill="#000"/><text transform="translate(171.701 308.02)" font-size="16" font-family="ArialMT, Arial" fill="#000"><tspan x=".48" y="14.89">button.js</tspan></text><text transform="translate(171.362 291.012)" font-size="16" font-family="ArialMT, Arial" fill="#000"><tspan x=".82" y="14.89">button.css</tspan></text><path d="M152.581 317.968h14.17" stroke="#000" stroke-width="1.5" fill="#000"/><g transform="translate(87.706 157.993)"><rect stroke="#000" stroke-width="1.5" fill="#FFF" y=".73" width="144.813" height="29.324" rx="14.662"/><text fill="#000" font-family="ArialMT, Arial" font-size="16"><tspan x="17.27" y="19.39">desktop.blocks/</tspan></text></g><g transform="translate(89.247 71.536)"><rect stroke="#000" stroke-width="1.5" fill="#FFF" y=".73" width="144.813" height="29.324" rx="14.662"/><text fill="#000" font-family="ArialMT, Arial" font-size="16"><tspan x="14.61" y="19.39">common.blocks/</tspan></text></g><g transform="translate(86.166 243.032)"><rect stroke="#000" stroke-width="1.5" fill="#FFF" y=".73" width="144.813" height="29.324" rx="14.662"/><text fill="#000" font-family="ArialMT, Arial" font-size="16"><tspan x="25.72" y="19.39">touch.blocks/</tspan></text></g><path d="M231.5 258.75l296 .255m-10.803 2.991l10.803-2.99-10.797-3.01M232.49 173.102l93.997.498m-10.815 2.943l10.815-2.943-10.784-3.057M401.2 88.827v30.023m-3-10.8l3 10.8 3-10.8" stroke="#000" stroke-width="1.5"/><path d="M406.497 216.402h-85.66v2.72c0 2.24 1.84 4.07 4.08 4.07h152.28c2.25 0 4.08-1.83 4.08-4.07v-2.72h-74.78zm57.108-93.818h-125.09c-4.49 0-8.16 3.67-8.16 8.16v85.65h141.41v-85.65c0-4.49-3.68-8.16-8.16-8.16z" stroke="#010202" stroke-width="1.5" fill="#FFF"/><path d="M402.418 126.655c0 .76-.61 1.36-1.36 1.36-.75 0-1.36-.6-1.36-1.36 0-.75.61-1.36 1.36-1.36.75 0 1.36.61 1.36 1.36z" fill="#202021"/><path d="M406.495 171.529h-10.88c0-16.32 9.52-28.55 9.52-28.55h-29.91a4.09 4.09 0 0 0-4.08 4.08v44.87c0 2.24 1.84 4.07 4.08 4.07h31.88c-2.99-12.64-.61-24.47-.61-24.47z" stroke="#010202" stroke-width="1.5" fill="#FFCC09"/><path d="M379.303 178.332s9.52 5.43 21.75 5.43c12.24 0 21.76-5.43 21.76-5.43h-43.51z"/><path d="M379.303 178.332s9.52 5.43 21.75 5.43c12.24 0 21.76-5.43 21.76-5.43" stroke="#010202" stroke-width="1.5" fill="#000"/><path d="M386.101 153.858v5.43z"/><path d="M386.101 153.858v5.43" stroke="#010202" stroke-width="1.5" fill="#000"/><path d="M413.295 153.858v5.43z"/><path d="M413.295 153.858v5.43" stroke="#010202" stroke-width="1.5" fill="#000"/><path d="M407.107 195.999h19.78c2.25 0 4.08-1.83 4.08-4.07v-44.87c0-2.25-1.83-4.08-4.08-4.08h-21.75l1.97 53.02z"/><path d="M407.107 195.999h19.78c2.25 0 4.08-1.83 4.08-4.07v-44.87c0-2.25-1.83-4.08-4.08-4.08h-21.75" stroke="#010202" stroke-width="1.5" fill="#000"/><path d="M337.153 130.74h127.81v78.86h-127.81z" stroke="#010202" stroke-width="1.5" fill="#FFCD04"/><path d="M549.45 88.497V217.3m-3-10.8l3 10.8 3-10.8" stroke="#000" stroke-width="1.5"/><path d="M535.457 297.248c-2.15 0-3.9-1.75-3.9-3.89v-68.56c0-2.14 1.75-3.89 3.9-3.89h28.04c2.14 0 3.9 1.75 3.9 3.89v68.56c0 2.14-1.76 3.89-3.9 3.89h-28.04z" fill="#FFF"/><path d="M563.498 221.687c1.71 0 3.12 1.4 3.12 3.11v68.56c0 1.71-1.41 3.12-3.12 3.12h-28.05c-1.71 0-3.11-1.41-3.11-3.12v-68.56c0-1.71 1.4-3.11 3.11-3.11h28.05zm0-1.56h-28.05c-2.57 0-4.67 2.1-4.67 4.67v68.56c0 2.57 2.1 4.67 4.67 4.67h28.05c2.57 0 4.68-2.1 4.68-4.67v-68.56c0-2.57-2.11-4.67-4.68-4.67z" fill="#12100B"/><path d="M534.673 231.81h29.605v54.536h-29.605z" fill="#FFCD04"/><path d="M563.494 232.59v52.98h-28.04v-52.98h28.04zm.78-1.56h-29.6c-.43 0-.78.35-.78.78v54.54c0 .42.35.77.78.77h29.6c.43 0 .78-.35.78-.77v-54.54c0-.43-.35-.78-.78-.78z" fill="#12100B"/><ellipse cx="2.337" cy="2.717" rx="2.337" ry="2.337" transform="translate(547.138 289.081)" stroke="#010202" stroke-width="1.5" fill="#FFF"/><path d="M551.813 227.92h-4.67" stroke="#010202" stroke-width="1.5" fill="#000"/><path d="M234.03 88.83l316.17-.135" stroke="#000" stroke-width="1.5" fill="#000"/><g transform="translate(369 158)"><use fill="#000" filter="url(#a)" xlink:href="#b"/><use fill="#FFEBA0" xlink:href="#b"/></g><text font-family="ArialMT, Arial" font-size="13" fill="#000" transform="translate(369 158)"><tspan x="13" y="18">Кнопка</tspan></text><g transform="translate(539 249)"><use fill="#FFEBA0" xlink:href="#c"/><use fill="#000" filter="url(#d)" xlink:href="#c"/></g><g transform="translate(543.118 254.294)" fill="#000"><path d="M0 1.176h11.765v1.176H0zm0 5.883h11.765v1.176H0z"/><ellipse cx="5.882" cy="7.647" rx="1.765" ry="1.765"/><ellipse cx="1.765" cy="1.765" rx="1.765" ry="1.765"/></g></g></svg>
