<svg width="575" height="310" viewBox="0 0 575 310" xmlns="http://www.w3.org/2000/svg" xmlns:xlink="http://www.w3.org/1999/xlink"><title>build__levels</title><defs><rect id="a" width="111" height="18" rx="8"/><rect id="c" width="125" height="18" rx="8"/><rect id="e" width="118" height="18" rx="8"/></defs><g fill="none" fill-rule="evenodd"><path d="M481.395 235.076h45.48V153.79h-45.48v81.286zm42.09-95.062h-38.126c-3.468 0-6.28 2.808-6.28 6.266v97.154c0 3.458 2.812 6.266 6.28 6.266h38.126c3.468 0 6.279-2.808 6.279-6.266V146.28c0-3.458-2.811-6.266-6.28-6.266h.001z" fill="#FFF"/><path d="M481.395 235.076h45.48V153.79h-45.48v81.286zm42.09-95.062h-38.126c-3.468 0-6.28 2.808-6.28 6.266v97.154c0 3.458 2.812 6.266 6.28 6.266h38.126c3.468 0 6.279-2.808 6.279-6.266V146.28c0-3.458-2.811-6.266-6.28-6.266h.001z" stroke="#202020" stroke-width="2"/><path d="M477.78 168.345h-.416c-.201 0-.364-.179-.364-.4v-2.579c0-.22.163-.4.364-.4h.416v3.38" fill="#FFF"/><path d="M477.78 168.345h-.416c-.201 0-.364-.179-.364-.4v-2.579c0-.22.163-.4.364-.4h.416v3.38-.001z" stroke="#202020" stroke-width="2"/><path d="M477.78 176.922h-.416c-.201 0-.364-.178-.364-.4v-2.579c0-.22.163-.4.364-.4h.416v3.38" fill="#FFF"/><path d="M477.78 176.922h-.416c-.201 0-.364-.178-.364-.4v-2.579c0-.22.163-.4.364-.4h.416v3.38-.001z" stroke="#202020" stroke-width="2"/><path fill="#FFF" d="M477 159.248h.78v-5.198H477z"/><path stroke="#202020" stroke-width="2" d="M477 159.248h.78v-5.198H477z"/><path d="M521.29 137.675h-7.744a.41.41 0 0 0-.417.404v.635h8.577v-.635a.41.41 0 0 0-.417-.404" fill="#FFF"/><path d="M521.29 137.675h-7.744a.41.41 0 0 0-.417.404v.635h8.577v-.635a.41.41 0 0 0-.417-.404h.001z" stroke="#202020" stroke-width="2"/><path d="M529.672 243.353c0 3.457-2.8 6.259-6.256 6.259h-37.989a6.257 6.257 0 0 1-6.256-6.259v-96.992c0-3.457 2.8-6.259 6.256-6.259h37.99a6.257 6.257 0 0 1 6.255 6.259v96.992zm-6.256-104.639h-37.989a7.648 7.648 0 0 0-7.647 7.647v96.992a7.649 7.649 0 0 0 7.647 7.647h37.99a7.648 7.648 0 0 0 7.646-7.647v-96.992a7.648 7.648 0 0 0-7.647-7.647z" fill="#FFF"/><path d="M529.672 243.353c0 3.457-2.8 6.259-6.256 6.259h-37.989a6.257 6.257 0 0 1-6.256-6.259v-96.992c0-3.457 2.8-6.259 6.256-6.259h37.99a6.257 6.257 0 0 1 6.255 6.259v96.992zm-6.256-104.639h-37.989a7.648 7.648 0 0 0-7.647 7.647v96.992a7.649 7.649 0 0 0 7.647 7.647h37.99a7.648 7.648 0 0 0 7.646-7.647v-96.992a7.648 7.648 0 0 0-7.647-7.647zm-23.803 103.579c0-2.656 2.21-4.809 4.939-4.809 2.727 0 4.938 2.153 4.938 4.809s-2.21 4.808-4.938 4.808c-2.728 0-4.939-2.152-4.939-4.808z" stroke="#202020" stroke-width="2"/><path d="M508.432 149.37h-7.76a1.049 1.049 0 0 1-1.059-1.039c0-.574.474-1.04 1.058-1.04h7.761a1.05 1.05 0 0 1 1.058 1.04 1.05 1.05 0 0 1-1.058 1.04" fill="#FFF"/><path d="M508.432 149.37h-7.76a1.049 1.049 0 0 1-1.059-1.039c0-.574.474-1.04 1.058-1.04h7.761a1.05 1.05 0 0 1 1.058 1.04 1.05 1.05 0 0 1-1.058 1.04v-.001z" stroke="#202020" stroke-width="2"/><path d="M505.331 144.173a1.04 1.04 0 1 1-2.079 0 1.04 1.04 0 0 1 2.08 0" fill="#FFF"/><path d="M505.331 144.173a1.04 1.04 0 1 1-2.079 0 1.04 1.04 0 0 1 2.08 0h-.001z" stroke="#202020" stroke-width="2"/><path d="M359.538 169.159a2.397 2.397 0 0 1-2.396 2.396h-19.569a2.396 2.396 0 0 1-2.396-2.396h24.361zM258 174.35h178.715v-5.192H258v5.192zm178.715 0l-4.09 1.772a9.986 9.986 0 0 1-3.97.823H266.06a9.984 9.984 0 0 1-3.97-.823l-4.09-1.771h178.715v-.001zm-155.61-5.192a4.77 4.77 0 0 1-.64-2.396V86.09a4.792 4.792 0 0 1 4.792-4.792h124.201a4.792 4.792 0 0 1 4.793 4.792v80.672c0 .873-.234 1.691-.642 2.397H281.106l-.001-.001zm1.626-.077a3.98 3.98 0 0 1-1.069-2.719V86.49a3.994 3.994 0 0 1 3.994-3.994h123.403a3.994 3.994 0 0 1 3.993 3.994v79.872a3.984 3.984 0 0 1-1.141 2.796l-129.18-.077zm3.923-5.115h121.407V88.087H286.654v75.88-.001z" stroke="#151516" stroke-width="2"/><g transform="translate(52 183)"><mask id="b" fill="#fff"><use xlink:href="#a"/></mask><g mask="url(#b)" stroke="#2E96CA" stroke-width="4" fill="#FFF"><rect width="111" height="18" rx="8"/></g></g><path d="M163 191h295.97v2H163v-2zm310 1l-14.028 5v-10L473 192z" fill="#2E96CA"/><g font-size="13"><text transform="translate(96 229)" fill="#000"><tspan x="0" y="12">└──</tspan></text><text transform="translate(119 227)" fill="#F66"><tspan x=".4" y="14">button.js</tspan></text><text transform="translate(96 214)" fill="#000"><tspan x="0" y="12">├──</tspan></text><text transform="translate(119 212)" fill="#F66"><tspan x=".4" y="14">button.css</tspan></text><text transform="translate(65 201)" fill="#000"><tspan x="0" y="12">└──</tspan></text><text transform="translate(88 199)" fill="#F66"><tspan x=".4" y="14">button/</tspan></text><text transform="translate(33 182)" fill="#000"><tspan x="0" y="14">└──</tspan> <tspan x="39" y="14">touch.blocks/</tspan></text></g><g transform="translate(52 110)"><mask id="d" fill="#fff"><use xlink:href="#c"/></mask><g mask="url(#d)" stroke="#EC4682" stroke-width="4" fill="#FFF"><rect width="125" height="18" rx="8"/></g></g><path d="M175 117h86.972v2H175v-2zm101 1l-14.028 5v-10L276 118z" fill="#EC4682"/><g font-size="13"><text transform="translate(96 156)" fill="#000"><tspan x="0" y="12">└──</tspan></text><text transform="translate(119 154)" fill="#F66"><tspan x=".4" y="14">button.js</tspan></text><text transform="translate(96 141)" fill="#000"><tspan x="0" y="12">├──</tspan></text><text transform="translate(119 139)" fill="#F66"><tspan x=".4" y="14">button.css</tspan></text><text transform="translate(65 128)" fill="#000"><tspan x="0" y="12">└──</tspan></text><text transform="translate(88 126)" fill="#F66"><tspan x=".4" y="14">button/</tspan></text><text transform="translate(33 109)" fill="#000"><tspan x="0" y="14">└──</tspan> <tspan x="39" y="14">desktop.blocks/</tspan></text></g><g transform="translate(52 42)"><mask id="f" fill="#fff"><use xlink:href="#e"/></mask><g mask="url(#f)" stroke="#73C55C" stroke-width="4" fill="#FFF"><rect width="118" height="18" rx="8"/></g></g><path d="M505.5 50.5v68.97h-2V50.5h2zm-1 83l-5-14.028h10l-5 14.028zm-156-83v11.97h-2V50.5h2zm-1 25.998l-5-14.028h10l-5 14.028z" fill="#73C55C"/><path fill="#73C55C" d="M170 50h334.97v2H170z"/><g font-size="13"><text transform="translate(96 88)" fill="#000"><tspan x="0" y="12">└──</tspan></text><text transform="translate(119 86)" fill="#F66"><tspan x=".4" y="14">button.js</tspan></text><text transform="translate(96 73)" fill="#000"><tspan x="0" y="12">├──</tspan></text><text transform="translate(119 71)" fill="#F66"><tspan x=".4" y="14">button.css</tspan></text><text transform="translate(65 60)" fill="#000"><tspan x="0" y="12">└──</tspan></text><text transform="translate(88 58)" fill="#F66"><tspan x=".4" y="14">button/</tspan></text><text transform="translate(33 42)" fill="#000"><tspan x="0" y="14">└──</tspan> <tspan x="39" y="14">common.blocks/</tspan></text></g><text transform="translate(1 26)" font-size="13" fill="#000"><tspan x="0" y="14">project/</tspan></text><g stroke="#979797" fill="#333" font-size="13" font-weight="bold"><text transform="translate(0 -3)"><tspan x="0" y="14">Source files</tspan></text></g></g></svg>