<svg width="446" height="246" xmlns="http://www.w3.org/2000/svg"><g fill="none" fill-rule="evenodd"><text transform="translate(-.098 -3.118)" font-size="16" font-family="Helvetica-Bold, Helvetica" fill="#000" font-weight="bold"><tspan x=".38" y="15.8">search-form block</tspan></text><g stroke="#BFBFBF" stroke-width=".75" fill="#FFF" fill-rule="nonzero"><path d="M1.438 209.154c-.001.698.18 1.37.505 1.865.324.495.765.774 1.225.774h282.27c.46 0 .9-.28 1.225-.774.325-.496.506-1.167.505-1.866v-22.81c-.001-1.451-.775-2.628-1.73-2.63H3.168c-.955.002-1.73 1.179-1.73 2.63v22.811z"/><path d="M1.394 209.154c-.001.698.18 1.37.505 1.865.325.495.765.774 1.225.774h282.27c.46 0 .9-.28 1.225-.774.325-.496.507-1.167.505-1.866v-22.81c0-1.451-.775-2.628-1.73-2.63H3.124c-.955.002-1.729 1.179-1.73 2.63v22.811z"/></g><text transform="translate(0 226)" font-size="16" font-family="Helvetica-Bold, Helvetica" fill="#000" font-weight="bold"><tspan x=".2" y="15.8">input block</tspan></text><text transform="translate(350 226)" font-size="16" font-family="Helvetica-Bold, Helvetica" fill="#000" font-weight="bold"><tspan x=".12" y="15.8">button block</tspan></text><path d="M42.35 152.5v-49m3 10.8l-3-10.8-3 10.8m363.15 38.2v-49m3 10.8l-3-10.8-3 10.8" stroke="#000" stroke-width="1.5"/><g stroke="#BFBFBF" stroke-width=".75" fill="#FFF" fill-rule="nonzero"><path d="M1.753 63.712a2.63 2.63 0 0 0 2.64 2.63h429.56a2.634 2.634 0 0 0 2.63-2.63v-22.81a2.634 2.634 0 0 0-2.63-2.63H4.393a2.638 2.638 0 0 0-2.64 2.63v22.81z"/><path d="M1.687 63.712a2.63 2.63 0 0 0 2.64 2.63h429.56a2.634 2.634 0 0 0 2.63-2.63v-22.81a2.634 2.634 0 0 0-2.63-2.63H4.327a2.638 2.638 0 0 0-2.64 2.63v22.81z"/></g><path fill="#FFDB4D" fill-rule="nonzero" d="M372.832 38.267h63.755v28.079h-63.755z"/><g stroke="#BFBFBF" stroke-width=".75"><path d="M1.753 63.712a2.63 2.63 0 0 0 2.64 2.63h429.56a2.634 2.634 0 0 0 2.63-2.63v-22.81a2.634 2.634 0 0 0-2.63-2.63H4.393a2.638 2.638 0 0 0-2.64 2.63v22.81z"/><path d="M1.687 63.712a2.63 2.63 0 0 0 2.64 2.63h429.56a2.634 2.634 0 0 0 2.63-2.63v-22.81a2.634 2.634 0 0 0-2.63-2.63H4.327a2.638 2.638 0 0 0-2.64 2.63v22.81z"/></g><text transform="translate(379.895 44.206)" font-size="16" font-family="ArialMT, Arial" fill="#000"><tspan x="0" y="14">Search</tspan></text><path d="M372.872 38.535v27.78" stroke="#BFBFBF" stroke-width=".5" fill="#000" fill-rule="nonzero"/><g stroke="#BFBFBF" stroke-width=".75" fill="#FFF" fill-rule="nonzero"><path d="M363.422 208.208a3.009 3.009 0 0 0 3.01 3h63.18a3.009 3.009 0 0 0 3.01-3v-22.07a3.009 3.009 0 0 0-3.01-3h-63.18a3.009 3.009 0 0 0-3.01 3v22.07z"/><path d="M363.422 208.208a3.009 3.009 0 0 0 3.01 3h63.18a3.009 3.009 0 0 0 3.01-3v-22.07a3.009 3.009 0 0 0-3.01-3h-63.18a3.009 3.009 0 0 0-3.01 3v22.07z"/></g><text transform="translate(376 188)" font-size="16" font-family="ArialMT, Arial" fill="#000"><tspan x="0" y="14">Button</tspan></text></g></svg>