<svg width="535" height="303" xmlns="http://www.w3.org/2000/svg"><g transform="translate(-22 -7)" fill="none" fill-rule="evenodd"><path d="M.428.968h133.228v28.346H.428z"/><text transform="translate(21.428 5.26)" font-size="16" font-family="Arial-BoldMT, Arial" fill="#000" font-weight="bold"><tspan x=".26" y="14.68">Source files</tspan></text><path d="M106.177 79.637l-.154 14.88m-.43-.479h14.17" stroke="#000" stroke-width="1.5" fill="#000" fill-rule="nonzero"/><path d="M110.142 83.74h84.419v19.843h-84.419z"/><text transform="translate(127.142 83.528)" font-size="16" font-family="ArialMT, Arial" fill="#000"><tspan x=".74" y="14.93">button/</tspan></text><path d="M140.581 113.881h14.17" stroke="#000" stroke-width="1.5" fill="#000" fill-rule="nonzero"/><path d="M5.827 37.819h84.6v19.843h-84.6z"/><text transform="translate(21.827 37.607)" font-size="16" font-family="ArialMT, Arial" fill="#000"><tspan x=".07" y="14.93">project/</tspan></text><path d="M60.239 71.83h19.84M60.243 60.496v11.34m80.929 32.978v26.46" stroke="#000" stroke-width="1.5" fill="#000" fill-rule="nonzero"/><path d="M147.701 126.074h85.451v9.921h-85.451z"/><text transform="translate(159.701 120.941)" font-size="16" font-family="ArialMT, Arial" fill="#000"><tspan x=".48" y="14.89">button.js</tspan></text><path d="M153.937 109.066h85.377v9.921h-85.377z"/><text transform="translate(159.937 103.933)" font-size="16" font-family="ArialMT, Arial" fill="#000"><tspan x=".22" y="14.89">button.css</tspan></text><path d="M140.581 130.889h14.17m-49.141 36.622l.167 12.69m-.005-.005h14.17" stroke="#000" stroke-width="1.5" fill="#000" fill-rule="nonzero"/><text transform="translate(127.7 170.35)" font-size="16" font-family="ArialMT, Arial" fill="#000"><tspan x=".05" y="14.93">button/</tspan></text><path d="M140.76 198.92h14.17m-97.526-42.519h19.84M57.409 142.7v14.17m83.763 32.417v26.95" stroke="#000" stroke-width="1.5" fill="#000" fill-rule="nonzero"/><text transform="translate(160.126 205.981)" font-size="16" font-family="ArialMT, Arial" fill="#000"><tspan x=".08" y="14.89">button.js</tspan></text><text transform="translate(159.362 188.973)" font-size="16" font-family="ArialMT, Arial" fill="#000"><tspan x=".82" y="14.89">button.css</tspan></text><path d="M140.76 215.928h14.17m-48.907 31.028v18.2m-.43-.003h14.17" stroke="#000" stroke-width="1.5" fill="#000" fill-rule="nonzero"/><text transform="translate(127.142 255.308)" font-size="16" font-family="ArialMT, Arial" fill="#000"><tspan x=".74" y="14.93">button/</tspan></text><path d="M140.581 283.96h14.17m-97.347-42.52h19.84m-19.835-10.866v11.34m83.763 32.979v26.46" stroke="#000" stroke-width="1.5" fill="#000" fill-rule="nonzero"/><text transform="translate(159.701 291.02)" font-size="16" font-family="ArialMT, Arial" fill="#000"><tspan x=".48" y="14.89">button.js</tspan></text><text transform="translate(159.362 274.012)" font-size="16" font-family="ArialMT, Arial" fill="#000"><tspan x=".82" y="14.89">button.css</tspan></text><path d="M140.581 300.968h14.17" stroke="#000" stroke-width="1.5" fill="#000" fill-rule="nonzero"/><g transform="translate(75.706 140.993)"><rect stroke="#000" stroke-width="1.5" fill="#FFF" fill-rule="nonzero" y=".73" width="144.813" height="29.324" rx="14.662"/><text transform="translate(17 5)" font-size="16" font-family="ArialMT, Arial" fill="#000"><tspan x=".27" y="14.39">desktop.blocks/</tspan></text></g><g transform="translate(77.247 54.536)"><rect stroke="#000" stroke-width="1.5" fill="#FFF" fill-rule="nonzero" y=".73" width="144.813" height="29.324" rx="14.662"/><text transform="translate(14 5)" font-size="16" font-family="ArialMT, Arial" fill="#000"><tspan x=".61" y="14.39">common.blocks/</tspan></text></g><g transform="translate(74.166 226.032)"><rect stroke="#000" stroke-width="1.5" fill="#FFF" fill-rule="nonzero" y=".73" width="144.813" height="29.324" rx="14.662"/><text transform="translate(25 5)" font-size="16" font-family="ArialMT, Arial" fill="#000"><tspan x=".72" y="14.39">touch.blocks/</tspan></text></g><path d="M219.5 241.75l296 .255m-10.803 2.991l10.803-2.99-10.797-3.01M220.49 156.102l93.997.498m-10.815 2.943l10.815-2.943-10.784-3.057M389.2 71.827v30.023m-3-10.8l3 10.8 3-10.8" stroke="#000" stroke-width="1.5"/><path d="M394.497 199.402h-85.66v2.72c0 2.24 1.84 4.07 4.08 4.07h152.28c2.25 0 4.08-1.83 4.08-4.07v-2.72h-74.78zm57.108-93.818h-125.09c-4.49 0-8.16 3.67-8.16 8.16v85.65h141.41v-85.65c0-4.49-3.68-8.16-8.16-8.16z" stroke="#010202" stroke-width="1.5" fill="#FFF" fill-rule="nonzero"/><path d="M390.418 109.655c0 .76-.61 1.36-1.36 1.36-.75 0-1.36-.6-1.36-1.36 0-.75.61-1.36 1.36-1.36.75 0 1.36.61 1.36 1.36z" fill="#202021" fill-rule="nonzero"/><path d="M394.495 154.529h-10.88c0-16.32 9.52-28.55 9.52-28.55h-29.91a4.09 4.09 0 0 0-4.08 4.08v44.87c0 2.24 1.84 4.07 4.08 4.07h31.88c-2.99-12.64-.61-24.47-.61-24.47z" stroke="#010202" stroke-width="1.5" fill="#FFCC09" fill-rule="nonzero"/><path d="M367.303 161.332s9.52 5.43 21.75 5.43c12.24 0 21.76-5.43 21.76-5.43h-43.51z"/><path d="M367.303 161.332s9.52 5.43 21.75 5.43c12.24 0 21.76-5.43 21.76-5.43" stroke="#010202" stroke-width="1.5" fill="#000" fill-rule="nonzero"/><path d="M374.101 136.858v5.43-5.43z"/><path d="M374.101 136.858v5.43" stroke="#010202" stroke-width="1.5" fill="#000" fill-rule="nonzero"/><path d="M401.295 136.858v5.43-5.43z"/><path d="M401.295 136.858v5.43" stroke="#010202" stroke-width="1.5" fill="#000" fill-rule="nonzero"/><path d="M395.107 178.999h19.78c2.25 0 4.08-1.83 4.08-4.07v-44.87c0-2.25-1.83-4.08-4.08-4.08h-21.75l1.97 53.02z"/><path d="M395.107 178.999h19.78c2.25 0 4.08-1.83 4.08-4.07v-44.87c0-2.25-1.83-4.08-4.08-4.08h-21.75" stroke="#010202" stroke-width="1.5" fill="#000" fill-rule="nonzero"/><path stroke="#010202" stroke-width="1.5" fill="#FFCD04" fill-rule="nonzero" d="M325.153 113.74h127.81v78.86h-127.81z"/><path d="M537.45 71.497V200.3m-3-10.8l3 10.8 3-10.8" stroke="#000" stroke-width="1.5"/><path d="M523.457 280.248c-2.15 0-3.9-1.75-3.9-3.89v-68.56c0-2.14 1.75-3.89 3.9-3.89h28.04c2.14 0 3.9 1.75 3.9 3.89v68.56c0 2.14-1.76 3.89-3.9 3.89h-28.04z" fill="#FFF" fill-rule="nonzero"/><path d="M551.498 204.687c1.71 0 3.12 1.4 3.12 3.11v68.56c0 1.71-1.41 3.12-3.12 3.12h-28.05c-1.71 0-3.11-1.41-3.11-3.12v-68.56c0-1.71 1.4-3.11 3.11-3.11h28.05zm0-1.56h-28.05c-2.57 0-4.67 2.1-4.67 4.67v68.56c0 2.57 2.1 4.67 4.67 4.67h28.05c2.57 0 4.68-2.1 4.68-4.67v-68.56c0-2.57-2.11-4.67-4.68-4.67z" fill="#12100B" fill-rule="nonzero"/><path fill="#FFCD04" fill-rule="nonzero" d="M522.673 214.81h29.605v54.536h-29.605z"/><path d="M551.494 215.59v52.98h-28.04v-52.98h28.04zm.78-1.56h-29.6c-.43 0-.78.35-.78.78v54.54c0 .42.35.77.78.77h29.6c.43 0 .78-.35.78-.77v-54.54c0-.43-.35-.78-.78-.78z" fill="#12100B" fill-rule="nonzero"/><circle stroke="#010202" stroke-width="1.5" fill="#FFF" fill-rule="nonzero" cx="537.475" cy="274.798" r="2.337"/><path d="M539.813 210.92h-4.67" stroke="#010202" stroke-width="1.5" fill="#000" fill-rule="nonzero"/><path d="M222.03 71.83l316.17-.135" stroke="#000" stroke-width="1.5" fill="#000" fill-rule="nonzero"/><g transform="translate(355 141)" fill-rule="nonzero"><rect fill="#000" width="69" height="28" rx="3"/><rect fill="#FFEBA0" width="69" height="28" rx="3"/></g><g transform="translate(233 231)"><circle fill="#FD5" fill-rule="nonzero" cx="11" cy="11" r="11"/><text transform="translate(7 2)" font-size="14" font-family="ArialMT, Arial" fill="#202020"><tspan x=".563" y="13.531">3</tspan></text></g><g transform="translate(233 145)"><circle fill="#FD5" fill-rule="nonzero" cx="11" cy="11" r="11"/><text transform="translate(7 2)" font-size="14" font-family="ArialMT, Arial" fill="#202020"><tspan x=".563" y="13.601">2</tspan></text></g><g transform="translate(233 61)"><circle fill="#FD5" fill-rule="nonzero" cx="11" cy="11" r="11"/><text transform="translate(7 3)" font-size="14" font-family="ArialMT, Arial" fill="#202020"><tspan x=".107" y="13">1</tspan></text></g><text transform="translate(370 147)" font-size="13" font-family="ArialMT, Arial" fill="#000"><tspan x="0" y="12">Button</tspan></text><g transform="translate(527 232)" fill-rule="nonzero"><rect fill="#000" width="20" height="20" rx="3"/><rect fill="#FFEBA0" width="20" height="20" rx="3"/></g><g transform="translate(531.118 237.294)" fill-rule="nonzero" fill="#000"><path d="M0 1.176h11.765v1.176H0V1.176zm0 5.883h11.765v1.176H0V7.059z"/><circle cx="5.882" cy="7.647" r="1.765"/><circle cx="1.765" cy="1.765" r="1.765"/></g></g></svg>