<?xml version="1.0" encoding="UTF-8" standalone="no"?>
<svg width="576px" height="302px" viewBox="0 0 576 302" version="1.1" xmlns="http://www.w3.org/2000/svg" xmlns:xlink="http://www.w3.org/1999/xlink">
    <!-- Generator: Sketch 40.1 (33804) - http://www.bohemiancoding.com/sketch -->
    <title>iPad Pro Portrait</title>
    <desc>Created with Sketch.</desc>
    <defs>
        <rect id="path-1" x="51" y="155" width="111" height="18" rx="8"></rect>
        <mask id="mask-2" maskContentUnits="userSpaceOnUse" maskUnits="objectBoundingBox" x="0" y="0" width="111" height="18" fill="white">
            <use xlink:href="#path-1"></use>
        </mask>
        <rect id="path-3" x="51" y="82" width="125" height="18" rx="8"></rect>
        <mask id="mask-4" maskContentUnits="userSpaceOnUse" maskUnits="objectBoundingBox" x="0" y="0" width="125" height="18" fill="white">
            <use xlink:href="#path-3"></use>
        </mask>
        <rect id="path-5" x="51" y="14" width="118" height="18" rx="8"></rect>
        <mask id="mask-6" maskContentUnits="userSpaceOnUse" maskUnits="objectBoundingBox" x="0" y="0" width="118" height="18" fill="white">
            <use xlink:href="#path-5"></use>
        </mask>
    </defs>
    <g id="Page-1" stroke="none" stroke-width="1" fill="none" fill-rule="evenodd">
        <g id="iPad-Pro-Portrait" transform="translate(-218.000000, -415.000000)">
            <g id="Group" transform="translate(235.000000, 429.000000)">
                <g id="iPhone5" transform="translate(477.000000, 140.000000)">
                    <path d="M4.39540828,98.0755266 L49.8753373,98.0755266 L49.8753373,16.7906036 L4.39540828,16.7906036 L4.39540828,98.0755266 Z M46.484568,3.01391716 L8.35865089,3.01391716 C4.89053254,3.01391716 2.07943195,5.82209467 2.07943195,9.28009467 L2.07943195,106.433953 C2.07943195,109.892178 4.89053254,112.700355 8.35865089,112.700355 L46.484568,112.700355 C49.9526864,112.700355 52.7640118,109.892178 52.7640118,106.433953 L52.7640118,9.28009467 C52.7640118,5.82209467 49.9526864,3.01391716 46.484568,3.01391716 L46.484568,3.01391716 Z" id="Fill-1" fill="#FFFFFF"></path>
                    <path d="M4.39540828,98.0755266 L49.8753373,98.0755266 L49.8753373,16.7906036 L4.39540828,16.7906036 L4.39540828,98.0755266 Z M46.484568,3.01391716 L8.35865089,3.01391716 C4.89053254,3.01391716 2.07943195,5.82209467 2.07943195,9.28009467 L2.07943195,106.433953 C2.07943195,109.892178 4.89053254,112.700355 8.35865089,112.700355 L46.484568,112.700355 C49.9529112,112.700355 52.7640118,109.892178 52.7640118,106.433953 L52.7640118,9.28009467 C52.7640118,5.82209467 49.9529112,3.01391716 46.484568,3.01391716 L46.484568,3.01391716 Z" id="Stroke-2" stroke="#202020" stroke-width="2" stroke-linejoin="round"></path>
                    <path d="M0.779786982,31.3452781 L0.364035503,31.3452781 C0.163017751,31.3452781 0,31.1662959 0,30.9452663 L0,28.3659882 C0,28.1451834 0.163017751,27.9662012 0.364035503,27.9662012 L0.779786982,27.9662012 L0.779786982,31.3452781" id="Fill-3" fill="#FFFFFF"></path>
                    <path d="M0.779786982,31.3452781 L0.364035503,31.3452781 C0.163017751,31.3452781 0,31.1662959 0,30.9452663 L0,28.3659882 C0,28.1451834 0.163017751,27.9662012 0.364035503,27.9662012 L0.779786982,27.9662012 L0.779786982,31.3452781 L0.779786982,31.3452781 Z" id="Stroke-4" stroke="#202020" stroke-width="2" stroke-linejoin="round"></path>
                    <path d="M0.779786982,39.9224852 L0.364035503,39.9224852 C0.163017751,39.9224852 0,39.7437278 0,39.5226982 L0,36.9434201 C0,36.7226154 0.163017751,36.5436331 0.364035503,36.5436331 L0.779786982,36.5436331 L0.779786982,39.9224852" id="Fill-6" fill="#FFFFFF"></path>
                    <path d="M0.779786982,39.9224852 L0.364035503,39.9224852 C0.163017751,39.9224852 0,39.7437278 0,39.5226982 L0,36.9434201 C0,36.7226154 0.163017751,36.5436331 0.364035503,36.5436331 L0.779786982,36.5436331 L0.779786982,39.9224852 L0.779786982,39.9224852 Z" id="Stroke-7" stroke="#202020" stroke-width="2" stroke-linejoin="round"></path>
                    <polygon id="Fill-9" fill="#FFFFFF" points="0 22.2479882 0.779786982 22.2479882 0.779786982 17.0496331 0 17.0496331"></polygon>
                    <polygon id="Stroke-10" stroke="#202020" stroke-width="2" stroke-linejoin="round" points="0 22.2479882 0.779786982 22.2479882 0.779786982 17.0496331 0 17.0496331"></polygon>
                    <path d="M44.2893373,0.674556213 L36.5458817,0.674556213 C36.3156331,0.674556213 36.1290059,0.85556213 36.1290059,1.07906509 L36.1290059,1.71427219 L44.7064379,1.71427219 L44.7064379,1.07906509 C44.7064379,0.85556213 44.5198107,0.674556213 44.2893373,0.674556213" id="Fill-12" fill="#FFFFFF"></path>
                    <path d="M44.2893373,0.674556213 L36.5458817,0.674556213 C36.3156331,0.674556213 36.1290059,0.85556213 36.1290059,1.07906509 L36.1290059,1.71427219 L44.7064379,1.71427219 L44.7064379,1.07906509 C44.7064379,0.85556213 44.5198107,0.674556213 44.2893373,0.674556213 L44.2893373,0.674556213 Z" id="Stroke-13" stroke="#202020" stroke-width="2" stroke-linejoin="round"></path>
                    <path d="M52.6722722,106.353231 C52.6722722,109.810107 49.8724142,112.611988 46.416213,112.611988 L8.42700592,112.611988 C4.97102959,112.611988 2.1711716,109.810107 2.1711716,106.353231 L2.1711716,9.36104142 C2.1711716,5.90416568 4.97102959,3.10228402 8.42700592,3.10228402 L46.416213,3.10228402 C49.8724142,3.10228402 52.6722722,5.90416568 52.6722722,9.36104142 L52.6722722,106.353231 L52.6722722,106.353231 Z M46.416213,1.71427219 L8.42700592,1.71427219 C4.20383432,1.71427219 0.779786982,5.13989349 0.779786982,9.36104142 L0.779786982,106.353231 C0.779786982,110.574154 4.20383432,114 8.42700592,114 L46.416213,114 C50.6396095,114 54.063432,110.574154 54.063432,106.353231 L54.063432,9.36104142 C54.063432,5.13989349 50.6396095,1.71427219 46.416213,1.71427219 L46.416213,1.71427219 Z" id="Fill-15" fill="#FFFFFF"></path>
                    <path d="M52.6722722,106.353231 C52.6722722,109.810107 49.8724142,112.611988 46.416213,112.611988 L8.42700592,112.611988 C4.97102959,112.611988 2.1711716,109.810107 2.1711716,106.353231 L2.1711716,9.36104142 C2.1711716,5.90416568 4.97102959,3.10228402 8.42700592,3.10228402 L46.416213,3.10228402 C49.8724142,3.10228402 52.6722722,5.90416568 52.6722722,9.36104142 L52.6722722,106.353231 L52.6722722,106.353231 Z M46.416213,1.71427219 L8.42700592,1.71427219 C4.20383432,1.71427219 0.779786982,5.13989349 0.779786982,9.36104142 L0.779786982,106.353231 C0.779786982,110.574154 4.20383432,114 8.42700592,114 L46.416213,114 C50.6396095,114 54.063432,110.574154 54.063432,106.353231 L54.063432,9.36104142 C54.063432,5.13989349 50.6396095,1.71427219 46.416213,1.71427219 L46.416213,1.71427219 Z M22.6131479,105.292604 C22.6131479,102.636876 24.8238935,100.484142 27.551574,100.484142 C30.2792544,100.484142 32.49,102.636876 32.49,105.292604 C32.49,107.948556 30.2792544,110.10129 27.551574,110.10129 C24.8238935,110.10129 22.6131479,107.948556 22.6131479,105.292604 L22.6131479,105.292604 Z" id="Stroke-16" stroke="#202020" stroke-width="2" stroke-linejoin="round"></path>
                    <path d="M31.432071,12.3709112 L23.6713018,12.3709112 C23.0869112,12.3709112 22.6131479,11.9054675 22.6131479,11.3314201 C22.6131479,10.7571479 23.0869112,10.2917041 23.6713018,10.2917041 L31.432071,10.2917041 C32.0164615,10.2917041 32.49,10.7571479 32.49,11.3314201 C32.49,11.9054675 32.0164615,12.3709112 31.432071,12.3709112" id="Fill-18" fill="#FFFFFF"></path>
                    <path d="M31.432071,12.3709112 L23.6713018,12.3709112 C23.0869112,12.3709112 22.6131479,11.9054675 22.6131479,11.3314201 C22.6131479,10.7571479 23.0869112,10.2917041 23.6713018,10.2917041 L31.432071,10.2917041 C32.0164615,10.2917041 32.49,10.7571479 32.49,11.3314201 C32.49,11.9054675 32.0164615,12.3709112 31.432071,12.3709112 L31.432071,12.3709112 Z" id="Stroke-19" stroke="#202020" stroke-width="2" stroke-linejoin="round"></path>
                    <path d="M28.3313609,7.17255621 C28.3313609,7.7468284 27.8659172,8.21227219 27.291645,8.21227219 C26.7173728,8.21227219 26.251929,7.7468284 26.251929,7.17255621 C26.251929,6.59828402 26.7173728,6.13284024 27.291645,6.13284024 C27.8659172,6.13284024 28.3313609,6.59828402 28.3313609,7.17255621" id="Fill-20" fill="#FFFFFF"></path>
                    <path d="M28.3313609,7.17255621 C28.3313609,7.7468284 27.8659172,8.21227219 27.291645,8.21227219 C26.7173728,8.21227219 26.251929,7.7468284 26.251929,7.17255621 C26.251929,6.59828402 26.7173728,6.13284024 27.291645,6.13284024 C27.8659172,6.13284024 28.3313609,6.59828402 28.3313609,7.17255621 L28.3313609,7.17255621 Z" id="Stroke-21" stroke="#202020" stroke-width="2" stroke-linejoin="round"></path>
                </g>
                <path d="M359.538275,172.158849 L359.538275,172.158849 C359.538275,173.48221 358.464874,174.555011 357.141913,174.555011 L337.573146,174.555011 C336.249785,174.555011 335.176884,173.48221 335.176884,172.158849 L359.538275,172.158849 Z M258,177.350549 L436.715159,177.350549 L436.715159,172.158849 L258,172.158849 L258,177.350549 Z M436.715159,177.350549 L432.624444,179.123259 C431.371145,179.666255 430.019899,179.946399 428.654662,179.946399 L266.060697,179.946399 C264.69506,179.946399 263.343915,179.666255 262.090915,179.123259 L258,177.350549 L436.715159,177.350549 Z M281.105692,172.159449 C280.69772,171.454443 280.46415,170.6358 280.46415,169.762588 L280.46415,89.0912557 C280.46415,86.4445343 282.609752,84.298933 285.256573,84.298933 L409.458386,84.298933 C412.104908,84.298933 414.250709,86.4445343 414.250709,89.0912557 L414.250709,169.762588 C414.250709,170.6358 414.01684,171.454443 413.609068,172.159549 L281.105692,172.159449 Z M282.730884,172.082392 C282.067854,171.36939 281.662281,170.413724 281.662281,169.363311 L281.662281,89.4906326 C281.662281,87.2850648 283.450282,85.4970637 285.65595,85.4970637 L409.05861,85.4970637 C411.264377,85.4970637 413.052379,87.2850648 413.052379,89.4906326 L413.052379,169.363311 C413.052379,170.452003 412.616622,171.438951 411.911016,172.159349 L282.730884,172.082392 Z M286.654292,166.96705 L408.061167,166.96705 L408.061167,91.0881401 L286.654292,91.0881401 L286.654292,166.96705 Z" id="Macbook" stroke="#151516" stroke-width="2" stroke-linecap="round" stroke-linejoin="round"></path>
                <g id="src">
                    <g id="tree" transform="translate(1.000000, 31.000000)">
                        <use id="Rectangle" stroke="#2E96CA" mask="url(#mask-2)" stroke-width="4" fill="#FFFFFF" xlink:href="#path-1"></use>
                        <g id="arrow" transform="translate(162.000000, 159.000000)" fill="#2E96CA">
                            <path d="M0,4 L295.970001,4 L295.970001,6 L0,6 L0,4 L0,4 L0,4 L0,4 L0,4 Z M310,5 L295.972222,10 L295.972222,8.8817842e-16 L310,5 L310,5 L310,5 L310,5 L310,5 Z"></path>
                        </g>
                        <g id="└──touch.blocks/" transform="translate(32.000000, 156.000000)" font-size="13" font-family="PTMono-Regular, PT Mono" font-weight="normal">
                            <g id="└──button/" transform="translate(32.000000, 15.000000)">
                                <g id="└──button.js" transform="translate(31.000000, 28.000000)">
                                    <text id="└──" fill="#000000">
                                        <tspan x="0" y="12">└──</tspan>
                                    </text>
                                    <g id="button.js" transform="translate(23.000000, 0.000000)" fill="#FF6666">
                                        <text>
                                            <tspan x="0.4" y="12">button.js</tspan>
                                        </text>
                                    </g>
                                </g>
                                <g id="├──button.css" transform="translate(31.000000, 13.000000)">
                                    <g id="├──" fill="#000000">
                                        <text>
                                            <tspan x="0" y="12">├──</tspan>
                                        </text>
                                    </g>
                                    <g id="button.css" transform="translate(23.000000, 0.000000)" fill="#FF6666">
                                        <text>
                                            <tspan x="0.4" y="12">button.css</tspan>
                                        </text>
                                    </g>
                                </g>
                                <text id="└──" fill="#000000">
                                    <tspan x="0" y="12">└──</tspan>
                                </text>
                                <text id="button/" fill="#FF6666">
                                    <tspan x="23.4" y="12">button/</tspan>
                                </text>
                            </g>
                            <text fill="#000000">
                                <tspan x="0" y="12">└──touch.blocks/</tspan>
                            </text>
                        </g>
                        <use id="Rectangle" stroke="#EC4682" mask="url(#mask-4)" stroke-width="4" fill="#FFFFFF" xlink:href="#path-3"></use>
                        <g id="arrow" transform="translate(174.000000, 85.000000)" fill="#EC4682">
                            <path d="M0,4 L86.9722222,4 L86.9722222,6 L0,6 L0,4 L0,4 L0,4 L0,4 L0,4 Z M101,5 L86.9722222,10 L86.9722222,-8.8817842e-16 L101,5 L101,5 L101,5 L101,5 L101,5 Z"></path>
                        </g>
                        <g id="└──desktop.blocks/" transform="translate(32.000000, 83.000000)" font-size="13" font-family="PTMono-Regular, PT Mono" font-weight="normal">
                            <g id="└──button/" transform="translate(32.000000, 15.000000)">
                                <g id="└──button.js" transform="translate(31.000000, 28.000000)">
                                    <text id="└──" fill="#000000">
                                        <tspan x="0" y="12">└──</tspan>
                                    </text>
                                    <g id="button.js" transform="translate(23.000000, 0.000000)" fill="#FF6666">
                                        <text>
                                            <tspan x="0.4" y="12">button.js</tspan>
                                        </text>
                                    </g>
                                </g>
                                <g id="├──button.css" transform="translate(31.000000, 13.000000)">
                                    <g id="├──" fill="#000000">
                                        <text>
                                            <tspan x="0" y="12">├──</tspan>
                                        </text>
                                    </g>
                                    <g id="button.css" transform="translate(23.000000, 0.000000)" fill="#FF6666">
                                        <text>
                                            <tspan x="0.4" y="12">button.css</tspan>
                                        </text>
                                    </g>
                                </g>
                                <text id="└──" fill="#000000">
                                    <tspan x="0" y="12">└──</tspan>
                                </text>
                                <text id="button/" fill="#FF6666">
                                    <tspan x="23.4" y="12">button/</tspan>
                                </text>
                            </g>
                            <text fill="#000000">
                                <tspan x="0" y="12">└──desktop.blocks/</tspan>
                            </text>
                        </g>
                        <use id="Rectangle" stroke="#73C55C" mask="url(#mask-6)" stroke-width="4" fill="#FFFFFF" xlink:href="#path-5"></use>
                        <g id="arrow-3" transform="translate(503.500000, 64.000000) rotate(90.000000) translate(-503.500000, -64.000000) translate(462.000000, 59.000000)" fill="#73C55C">
                            <path d="M-7.10542736e-15,4 L68.9700012,4 L68.9700012,6 L-7.10542736e-15,6 L-7.10542736e-15,4 L-7.10542736e-15,4 L-7.10542736e-15,4 L-7.10542736e-15,4 L-7.10542736e-15,4 Z M83,5 L68.9722222,10 L68.9722222,8.8817842e-16 L83,5 L83,5 L83,5 L83,5 L83,5 Z" id="arrow"></path>
                        </g>
                        <g id="arrow-2" transform="translate(346.500000, 35.500000) rotate(90.000000) translate(-346.500000, -35.500000) translate(333.500000, 30.500000)" fill="#73C55C">
                            <path d="M0,4 L11.9700003,4 L11.9700003,6 L0,6 L0,4 L0,4 L0,4 L0,4 L0,4 Z M25.997779,5 L11.9700012,10 L11.9700012,-8.8817842e-16 L25.997779,5 L25.997779,5 L25.997779,5 L25.997779,5 L25.997779,5 Z" id="arrow"></path>
                        </g>
                        <g id="arrow-" transform="translate(169.000000, 22.000000)" fill="#73C55C">
                            <polygon id="arrow" points="0 -2.66453526e-14 334.970001 -2.66453526e-14 334.970001 2 0 2 0 -2.66453526e-14 0 -2.66453526e-14 0 -2.66453526e-14"></polygon>
                        </g>
                        <g id="└──common.blocks/" transform="translate(32.000000, 15.000000)" font-size="13" font-family="PTMono-Regular, PT Mono" font-weight="normal">
                            <g id="└──button/" transform="translate(32.000000, 15.000000)">
                                <g id="└──button.js" transform="translate(31.000000, 28.000000)">
                                    <text id="└──" fill="#000000">
                                        <tspan x="0" y="12">└──</tspan>
                                    </text>
                                    <g id="button.js" transform="translate(23.000000, 0.000000)" fill="#FF6666">
                                        <text>
                                            <tspan x="0.4" y="12">button.js</tspan>
                                        </text>
                                    </g>
                                </g>
                                <g id="├──button.css" transform="translate(31.000000, 13.000000)">
                                    <g id="├──" fill="#000000">
                                        <text>
                                            <tspan x="0" y="12">├──</tspan>
                                        </text>
                                    </g>
                                    <g id="button.css" transform="translate(23.000000, 0.000000)" fill="#FF6666">
                                        <text>
                                            <tspan x="0.4" y="12">button.css</tspan>
                                        </text>
                                    </g>
                                </g>
                                <text id="└──" fill="#000000">
                                    <tspan x="0" y="12">└──</tspan>
                                </text>
                                <text id="button/" fill="#FF6666">
                                    <tspan x="23.4" y="12">button/</tspan>
                                </text>
                            </g>
                            <text fill="#000000">
                                <tspan x="0" y="12">└──common.blocks/</tspan>
                            </text>
                        </g>
                        <g id="project/" transform="translate(0.000000, -0.000000)" font-size="13" font-family="PTMono-Regular, PT Mono" fill="#000000" font-weight="normal">
                            <text>
                                <tspan x="0" y="12">project/</tspan>
                            </text>
                        </g>
                    </g>
                    <g id="Source-files" font-size="13" font-family="Helvetica-Bold, Helvetica" fill="#333333" font-weight="bold">
                        <text>
                            <tspan x="0" y="13">Source files</tspan>
                        </text>
                    </g>
                </g>
            </g>
        </g>
    </g>
</svg>