<?xml version="1.0" encoding="UTF-8" standalone="no"?>
<!DOCTYPE svg PUBLIC "-//W3C//DTD SVG 1.1//EN" "http://www.w3.org/Graphics/SVG/1.1/DTD/svg11.dtd">
<!-- Generated by Microsoft Visio, SVG Export build__search-form.svg new-page -->
<svg xmlns="http://www.w3.org/2000/svg" xmlns:xlink="http://www.w3.org/1999/xlink" xmlns:ev="http://www.w3.org/2001/xml-events"
		width="786" height="359" viewBox="0 0 785.578 359.054" xml:space="preserve" color-interpolation-filters="sRGB"
		class="st12">
	<style type="text/css">
	<![CDATA[
		.st1 {fill:none;marker-end:url(#mrkr13-4);stroke:none;stroke-linecap:butt;stroke-width:1.5}
		.st2 {fill:#ffcc00;fill-opacity:1;stroke:#ffcc00;stroke-opacity:1;stroke-width:0.37313432835821}
		.st3 {fill:#000000;font-family:Arial;font-size:1.33333em;font-weight:bold}
		.st4 {fill:#ffffff;stroke:#bfbfbf;stroke-linecap:butt;stroke-width:0.75}
		.st5 {fill:#ffdb4d;stroke:none;stroke-linecap:butt;stroke-width:0.75}
		.st6 {fill:none;stroke:none;stroke-linecap:butt;stroke-width:0.75}
		.st7 {fill:#000000;font-family:Arial;font-size:1.33333em}
		.st8 {fill:none;stroke:#bfbfbf;stroke-linecap:butt;stroke-width:0.75}
		.st9 {marker-end:url(#mrkr3-49);stroke:#000000;stroke-linecap:butt;stroke-width:1.5}
		.st10 {fill:#000000;fill-opacity:1;stroke:#000000;stroke-opacity:1;stroke-width:0.45454545454545}
		.st11 {stroke:#bfbfbf;stroke-linecap:butt;stroke-width:0.5}
		.st12 {fill:none;fill-rule:evenodd;font-size:12px;overflow:visible;stroke-linecap:square;stroke-miterlimit:3}
	]]>
	</style>

	<defs id="Patterns_And_Gradients">
		<linearGradient id="grad0-46" x1="0" y1="0" x2="1" y2="0" gradientTransform="rotate(270 0.5 0.5)">
			<stop offset="0" stop-color="#f2f2f2" stop-opacity="1"/>
			<stop offset="1" stop-color="#ffffff" stop-opacity="1"/>
		</linearGradient>
	</defs>
	<defs id="Markers">
		<g id="lend13">
			<path d="M 3 1 L 0 0 L 3 -1 L 3 1 " style="stroke:none"/>
		</g>
		<marker id="mrkr13-4" class="st2" refX="-8.04" orient="auto" markerUnits="strokeWidth" overflow="visible">
			<use xlink:href="#lend13" transform="scale(-2.68,-2.68) "/>
		</marker>
		<g id="lend3">
			<path d="M 2 1 L 0 0 L 2 -1 " style="stroke-linecap:round;stroke-linejoin:round;fill:none"/>
		</g>
		<marker id="mrkr3-49" class="st10" orient="auto" markerUnits="strokeWidth" overflow="visible">
			<use xlink:href="#lend3" transform="scale(-2.2,-2.2) "/>
		</marker>
	</defs>
	<g>
		<title>scheme1</title>
		<g id="shape212-1" transform="translate(185.481,-272.393)">
			<title>Text (14).543</title>
			<desc>Block &#34;search-form&#34;</desc>
			<rect x="0" y="330.708" width="167.716" height="28.3465" class="st1"/>
			<text x="6.03" y="349.68" class="st3">Block &#34;search-form&#34;</text>		</g>
		<g id="group213-6" transform="translate(192.753,-230.708)">
			<title>Sheet.213</title>
			<g id="shape214-7">
				<title>f</title>
				<path d="M-0 356.42 A2.63633 2.63249 -180 0 0 2.64 359.05 L432.2 359.05 A2.63633 2.63249 -180 0 0 434.83 356.42 L434.83
							 333.61 A2.63633 2.63249 -180 0 0 432.2 330.98 L2.64 330.98 A2.63633 2.63249 -180 0 0 0 333.61 L0 356.42
							 Z" class="st4"/>
			</g>
			<g id="shape215-9" transform="translate(-0.0664501,5.68434E-014)">
				<title>Sheet.215</title>
				<path d="M-0 356.42 A2.63633 2.63249 -180 0 0 2.64 359.05 L432.2 359.05 A2.63633 2.63249 -180 0 0 434.83 356.42 L434.83
							 333.61 A2.63633 2.63249 -180 0 0 432.2 330.98 L2.64 330.98 A2.63633 2.63249 -180 0 0 0 333.61 L0 356.42
							 Z" class="st4"/>
			</g>
		</g>
		<g id="shape216-11" transform="translate(563.832,-230.708)">
			<title>Sheet.216</title>
			<rect x="0" y="330.975" width="63.7553" height="28.0793" class="st5"/>
		</g>
		<g id="group217-13" transform="translate(558.422,-46.322)">
			<title>Sheet.217</title>
			<g id="shape218-14">
				<title>c</title>
				<path d="M0 356.05 A3.00856 3.00856 -180 0 0 3.01 359.05 L66.19 359.05 A3.00856 3.00856 -180 0 0 69.2 356.05 L69.2
							 333.98 A3.00856 3.00856 -180 0 0 66.19 330.98 L3.01 330.98 A3.00856 3.00856 -180 0 0 0 333.98 L0 356.05
							 Z" class="st4"/>
			</g>
			<g id="shape219-16">
				<title>Sheet.219</title>
				<path d="M0 356.05 A3.00856 3.00856 -180 0 0 3.01 359.05 L66.19 359.05 A3.00856 3.00856 -180 0 0 69.2 356.05 L69.2
							 333.98 A3.00856 3.00856 -180 0 0 66.19 330.98 L3.01 330.98 A3.00856 3.00856 -180 0 0 0 333.98 L0 356.05
							 Z" class="st4"/>
			</g>
		</g>
		<g id="shape220-18" transform="translate(571.467,-54.378)">
			<title>Sheet.220</title>
			<desc>Button</desc>
			<rect x="0" y="347.354" width="48.75" height="11.7" class="st6"/>
			<text x="0" y="358" class="st7">Button</text>		</g>
		<g id="group221-21" transform="translate(192.753,-230.708)">
			<title>Sheet.221</title>
			<g id="shape222-22">
				<title>f</title>
				<path d="M-0 356.42 A2.63633 2.63249 -180 0 0 2.64 359.05 L432.2 359.05 A2.63633 2.63249 -180 0 0 434.83 356.42 L434.83
							 333.61 A2.63633 2.63249 -180 0 0 432.2 330.98 L2.64 330.98 A2.63633 2.63249 -180 0 0 0 333.61 L0 356.42
							 Z" class="st8"/>
			</g>
			<g id="shape223-24" transform="translate(-0.0664501,5.68434E-014)">
				<title>Sheet.223</title>
				<path d="M-0 356.42 A2.63633 2.63249 -180 0 0 2.64 359.05 L432.2 359.05 A2.63633 2.63249 -180 0 0 434.83 356.42 L434.83
							 333.61 A2.63633 2.63249 -180 0 0 432.2 330.98 L2.64 330.98 A2.63633 2.63249 -180 0 0 0 333.61 L0 356.42
							 Z" class="st8"/>
			</g>
		</g>
		<g id="group224-26" transform="translate(192.614,-46.1884)">
			<title>Sheet.224</title>
			<g id="shape225-27">
				<title>f</title>
				<path d="M0 356.42 A1.73218 2.63249 -180 0 0 1.73 359.05 L283.97 359.05 A1.73218 2.63249 -180 0 0 285.7 356.42 L285.7
							 333.61 A1.73218 2.63249 -180 0 0 283.97 330.98 L1.73 330.98 A1.73218 2.63249 -180 0 0 -0 333.61 L0 356.42
							 Z" class="st4"/>
			</g>
			<g id="shape226-29" transform="translate(-0.0436604,5.68434E-014)">
				<title>Sheet.226</title>
				<path d="M0 356.42 A1.73218 2.63249 -180 0 0 1.73 359.05 L283.97 359.05 A1.73218 2.63249 -180 0 0 285.7 356.42 L285.7
							 333.61 A1.73218 2.63249 -180 0 0 283.97 330.98 L1.73 330.98 A1.73218 2.63249 -180 0 0 -0 333.61 L0 356.42
							 Z" class="st4"/>
			</g>
		</g>
		<g id="shape227-31" transform="translate(570.895,-237.794)">
			<title>Sheet.227</title>
			<desc>Search</desc>
			<rect x="0" y="347.354" width="51.0266" height="11.7" class="st6"/>
			<text x="0" y="358" class="st7">Search</text>		</g>
		<g id="shape228-34" transform="translate(184.532,-87.7909)">
			<title>Text (14).174</title>
			<desc>Block &#34;input&#34;</desc>
			<rect x="0" y="330.708" width="116.223" height="28.3465" class="st1"/>
			<text x="6.97" y="349.68" class="st3">Block &#34;input&#34;</text>		</g>
		<g id="shape229-38" transform="translate(526.162,-88.1411)">
			<title>Text (14).175</title>
			<desc>Block &#34;button&#34;</desc>
			<rect x="0" y="330.708" width="134.307" height="28.3465" class="st1"/>
			<text x="10.69" y="349.68" class="st3">Block &#34;button&#34;</text>		</g>
		<g id="shape230-42" transform="translate(-125.171,207.984) rotate(-90)">
			<title>Basic Arrow 1.545</title>
			<path d="M0 359.05 L51.02 359.05" class="st9"/>
		</g>
		<g id="shape231-50" transform="translate(234.517,207.984) rotate(-90)">
			<title>Basic Arrow 1.179</title>
			<path d="M0 359.05 L51.02 359.05" class="st9"/>
		</g>
		<g id="shape233-56" transform="translate(922.922,100.535) rotate(90)">
			<title>Line.547</title>
			<path d="M0 359.05 L27.78 359.05" class="st11"/>
		</g>
	</g>
</svg>
