<?xml version="1.0" encoding="UTF-8" standalone="no"?>
<!DOCTYPE svg PUBLIC "-//W3C//DTD SVG 1.1//EN" "http://www.w3.org/Graphics/SVG/1.1/DTD/svg11.dtd">
<!-- Generated by Microsoft Visio, SVG Export build__levels1.svg new-page -->
<svg xmlns="http://www.w3.org/2000/svg" xmlns:xlink="http://www.w3.org/1999/xlink" xmlns:ev="http://www.w3.org/2001/xml-events"
		width="786" height="359" viewBox="0 0 785.578 359.054" xml:space="preserve" color-interpolation-filters="sRGB"
		class="st28">
	<style type="text/css">
	<![CDATA[
		.st1 {fill:#ffcc00;stroke:none;stroke-linecap:round;stroke-linejoin:round;stroke-width:0.72}
		.st2 {fill:none;marker-end:url(#mrkr13-6);stroke:none;stroke-linecap:butt;stroke-width:1.5}
		.st3 {fill:#ffcc00;fill-opacity:1;stroke:#ffcc00;stroke-opacity:1;stroke-width:0.37313432835821}
		.st4 {fill:#000000;font-family:Yandex Sans Text Light;font-size:1.33333em;font-weight:bold}
		.st5 {stroke:#000000;stroke-linecap:butt;stroke-width:1.5}
		.st6 {fill:#000000;font-family:Yandex Sans Text Light;font-size:1.33333em}
		.st7 {fill:#ffffff;marker-end:url(#mrkr13-136);stroke:#bfbfbf;stroke-linecap:butt;stroke-width:1.5}
		.st8 {fill:#bfbfbf;fill-opacity:1;stroke:#bfbfbf;stroke-opacity:1;stroke-width:0.37313432835821}
		.st9 {fill:#ffffff;marker-end:url(#mrkr13-6);stroke:#ffcc00;stroke-linecap:butt;stroke-width:1.5}
		.st10 {fill:#ffffff;marker-end:url(#mrkr13-145);stroke:#000000;stroke-linecap:butt;stroke-width:1.5}
		.st11 {fill:#000000;fill-opacity:1;stroke:#000000;stroke-opacity:1;stroke-width:0.37313432835821}
		.st12 {fill:#ffffff;stroke:#010202;stroke-linecap:butt;stroke-width:1.5}
		.st13 {fill:#202021;stroke:none;stroke-linecap:butt;stroke-width:1.5}
		.st14 {fill:#ffcc09;stroke:#010202;stroke-linecap:butt;stroke-width:1.5}
		.st15 {fill:none}
		.st16 {stroke:#010202;stroke-linecap:round;stroke-linejoin:round;stroke-width:1.5}
		.st17 {fill:#ffcd04;stroke:#010202;stroke-linecap:round;stroke-linejoin:round;stroke-width:1.5}
		.st18 {fill:#ffffff;stroke:none;stroke-linecap:butt;stroke-width:1.5}
		.st19 {fill:#12100b;stroke:none;stroke-linecap:butt;stroke-width:1.5}
		.st20 {fill:#ffcd04;stroke:none;stroke-linecap:butt;stroke-width:1.5}
		.st21 {marker-end:url(#mrkr3-198);stroke:#000000;stroke-linecap:butt;stroke-width:1.5}
		.st22 {fill:#000000;fill-opacity:1;stroke:#000000;stroke-opacity:1;stroke-width:0.45454545454545}
		.st23 {marker-end:url(#mrkr3-205);stroke:#bfbfbf;stroke-linecap:butt;stroke-width:1.5}
		.st24 {fill:#bfbfbf;fill-opacity:1;stroke:#bfbfbf;stroke-opacity:1;stroke-width:0.45454545454545}
		.st25 {marker-end:url(#mrkr3-212);stroke:#ffcc00;stroke-linecap:butt;stroke-width:1.5}
		.st26 {fill:#ffcc00;fill-opacity:1;stroke:#ffcc00;stroke-opacity:1;stroke-width:0.45454545454545}
		.st27 {stroke:#ffc000;stroke-linecap:butt;stroke-width:1.5}
		.st28 {fill:none;fill-rule:evenodd;font-size:12px;overflow:visible;stroke-linecap:square;stroke-miterlimit:3}
	]]>
	</style>

	<defs id="Patterns_And_Gradients">
		<linearGradient id="grad0-11" x1="0" y1="0" x2="1" y2="0" gradientTransform="rotate(270 0.5 0.5)">
			<stop offset="0" stop-color="#f2f2f2" stop-opacity="1"/>
			<stop offset="1" stop-color="#ffffff" stop-opacity="1"/>
		</linearGradient>
		<linearGradient id="grad0-217" x1="0" y1="0" x2="1" y2="0" gradientTransform="rotate(270 0.5 0.5)">
			<stop offset="0" stop-color="#ffce3c" stop-opacity="1"/>
			<stop offset="1" stop-color="#ffc000" stop-opacity="1"/>
		</linearGradient>
	</defs>
	<defs id="Markers">
		<g id="lend13">
			<path d="M 3 1 L 0 0 L 3 -1 L 3 1 " style="stroke:none"/>
		</g>
		<marker id="mrkr13-6" class="st3" refX="-8.04" orient="auto" markerUnits="strokeWidth" overflow="visible">
			<use xlink:href="#lend13" transform="scale(-2.68,-2.68) "/>
		</marker>
		<marker id="mrkr13-136" class="st8" refX="-8.04" orient="auto" markerUnits="strokeWidth" overflow="visible">
			<use xlink:href="#lend13" transform="scale(-2.68,-2.68) "/>
		</marker>
		<marker id="mrkr13-145" class="st11" refX="-8.04" orient="auto" markerUnits="strokeWidth" overflow="visible">
			<use xlink:href="#lend13" transform="scale(-2.68,-2.68) "/>
		</marker>
		<g id="lend3">
			<path d="M 2 1 L 0 0 L 2 -1 " style="stroke-linecap:round;stroke-linejoin:round;fill:none"/>
		</g>
		<marker id="mrkr3-198" class="st22" orient="auto" markerUnits="strokeWidth" overflow="visible">
			<use xlink:href="#lend3" transform="scale(-2.2,-2.2) "/>
		</marker>
		<marker id="mrkr3-205" class="st24" orient="auto" markerUnits="strokeWidth" overflow="visible">
			<use xlink:href="#lend3" transform="scale(-2.2,-2.2) "/>
		</marker>
		<marker id="mrkr3-212" class="st26" orient="auto" markerUnits="strokeWidth" overflow="visible">
			<use xlink:href="#lend3" transform="scale(-2.2,-2.2) "/>
		</marker>
	</defs>
	<g>
		<title>scheme1</title>
		<g id="shape212-1" transform="translate(164.026,-332.086)">
			<title>Горизонтальная линия выноски.540</title>
			<path d="M0 359.05 L134.31 359.05 L0 359.05 Z" class="st1"/>
		</g>
		<g id="shape213-3" transform="translate(30.4594,-303.74)">
			<title>Text (14).543</title>
			<desc>Source files</desc>
			<rect x="0" y="330.708" width="133.228" height="28.3465" class="st2"/>
			<text x="25.49" y="349.68" class="st4">Source files</text>		</g>
		<g id="shape214-8" transform="translate(499.073,112.008) rotate(90)">
			<title>Line.544</title>
			<path d="M0 359.05 L8.5 359.05" class="st5"/>
		</g>
		<g id="shape215-13" transform="translate(139.593,-239.012)">
			<title>Line.7</title>
			<path d="M0 359.05 L14.17 359.05" class="st5"/>
		</g>
		<g id="shape216-17" transform="translate(142.387,-227.204)">
			<title>Text (14).8</title>
			<desc>button/</desc>
			<rect x="0" y="339.212" width="85.0394" height="19.8425" class="st2"/>
			<text x="15.01" y="353.93" class="st6">button/</text>		</g>
		<g id="shape217-21" transform="translate(174.581,-219.169)">
			<title>Line.11</title>
			<path d="M0 359.05 L14.17 359.05" class="st5"/>
		</g>
		<g id="shape218-25" transform="translate(41.0893,-275.393)">
			<title>Text (14).17</title>
			<desc>project/</desc>
			<rect x="0" y="339.212" width="85.0394" height="19.8425" class="st2"/>
			<text x="14.14" y="353.93" class="st6">project/</text>		</g>
		<g id="shape219-29" transform="translate(94.2389,-261.22)">
			<title>Line.18</title>
			<path d="M0 359.05 L19.84 359.05" class="st5"/>
		</g>
		<g id="shape220-33" transform="translate(453.293,86.4957) rotate(90)">
			<title>Line.19</title>
			<path d="M0 359.05 L11.34 359.05" class="st5"/>
		</g>
		<g id="shape221-37" transform="translate(534.222,130.814) rotate(90)">
			<title>Line.43</title>
			<path d="M0 359.05 L26.46 359.05" class="st5"/>
		</g>
		<g id="shape222-41" transform="translate(182.113,-196.492)">
			<title>Text (14).44</title>
			<desc>button.js</desc>
			<rect x="0" y="349.133" width="85.0394" height="9.92126" class="st2"/>
			<text x="10.34" y="358.89" class="st6">button.js</text>		</g>
		<g id="shape223-45" transform="translate(188.275,-213.5)">
			<title>Text (14).45</title>
			<desc>button.css</desc>
			<rect x="0" y="349.133" width="85.0394" height="9.92126" class="st2"/>
			<text x="4.38" y="358.89" class="st6">button.css</text>		</g>
		<g id="shape224-49" transform="translate(174.581,-202.161)">
			<title>Line.48</title>
			<path d="M0 359.05 L14.17 359.05" class="st5"/>
		</g>
		<g id="shape225-53" transform="translate(498.827,186.715) rotate(90)">
			<title>Line.49</title>
			<path d="M0 359.05 L18.35 359.05" class="st5"/>
		</g>
		<g id="shape226-57" transform="translate(139.772,-153.988)">
			<title>Line.51</title>
			<path d="M0 359.05 L14.17 359.05" class="st5"/>
		</g>
		<g id="shape227-61" transform="translate(142.566,-142.65)">
			<title>Text (14).52</title>
			<desc>button/</desc>
			<rect x="0" y="339.212" width="85.0394" height="19.8425" class="st2"/>
			<text x="15.01" y="353.93" class="st6">button/</text>		</g>
		<g id="shape228-65" transform="translate(174.76,-134.13)">
			<title>Line.53</title>
			<path d="M0 359.05 L14.17 359.05" class="st5"/>
		</g>
		<g id="shape229-69" transform="translate(91.4042,-176.649)">
			<title>Line.54</title>
			<path d="M0 359.05 L19.84 359.05" class="st5"/>
		</g>
		<g id="shape230-73" transform="translate(450.459,168.7) rotate(90)">
			<title>Line.55</title>
			<path d="M0 359.05 L14.17 359.05" class="st5"/>
		</g>
		<g id="shape231-77" transform="translate(534.222,215.287) rotate(90)">
			<title>Line.56</title>
			<path d="M0 359.05 L26.95 359.05" class="st5"/>
		</g>
		<g id="shape232-81" transform="translate(182.292,-111.453)">
			<title>Text (14).57</title>
			<desc>button.js</desc>
			<rect x="0" y="349.133" width="85.0394" height="9.92126" class="st2"/>
			<text x="10.34" y="358.89" class="st6">button.js</text>		</g>
		<g id="shape233-85" transform="translate(188.454,-128.46)">
			<title>Text (14).58</title>
			<desc>button.css</desc>
			<rect x="0" y="349.133" width="85.0394" height="9.92126" class="st2"/>
			<text x="4.38" y="358.89" class="st6">button.css</text>		</g>
		<g id="shape234-89" transform="translate(174.76,-117.122)">
			<title>Line.59</title>
			<path d="M0 359.05 L14.17 359.05" class="st5"/>
		</g>
		<g id="shape235-93" transform="translate(499.073,272.389) rotate(90)">
			<title>Line.60</title>
			<path d="M0 359.05 L18.2 359.05" class="st5"/>
		</g>
		<g id="shape236-97" transform="translate(139.593,-68.4641)">
			<title>Line.62</title>
			<path d="M0 359.05 L14.17 359.05" class="st5"/>
		</g>
		<g id="shape237-101" transform="translate(142.387,-57.1255)">
			<title>Text (14).63</title>
			<desc>button/</desc>
			<rect x="0" y="339.212" width="85.0394" height="19.8425" class="st2"/>
			<text x="15.01" y="353.93" class="st6">button/</text>		</g>
		<g id="shape238-105" transform="translate(174.581,-49.0903)">
			<title>Line.64</title>
			<path d="M0 359.05 L14.17 359.05" class="st5"/>
		</g>
		<g id="shape239-109" transform="translate(91.4042,-91.61)">
			<title>Line.65</title>
			<path d="M0 359.05 L19.84 359.05" class="st5"/>
		</g>
		<g id="shape240-113" transform="translate(450.459,256.574) rotate(90)">
			<title>Line.66</title>
			<path d="M0 359.05 L11.34 359.05" class="st5"/>
		</g>
		<g id="shape241-117" transform="translate(534.222,300.893) rotate(90)">
			<title>Line.67</title>
			<path d="M0 359.05 L26.46 359.05" class="st5"/>
		</g>
		<g id="shape242-121" transform="translate(182.113,-26.4132)">
			<title>Text (14).68</title>
			<desc>button.js</desc>
			<rect x="0" y="349.133" width="85.0394" height="9.92126" class="st2"/>
			<text x="10.34" y="358.89" class="st6">button.js</text>		</g>
		<g id="shape243-125" transform="translate(188.454,-43.421)">
			<title>Text (14).69</title>
			<desc>button.css</desc>
			<rect x="0" y="349.133" width="85.0394" height="9.92126" class="st2"/>
			<text x="4.38" y="358.89" class="st6">button.css</text>		</g>
		<g id="shape244-129" transform="translate(174.581,-32.0825)">
			<title>Line.70</title>
			<path d="M0 359.05 L14.17 359.05" class="st5"/>
		</g>
		<g id="shape245-133" transform="translate(109.706,-162.007)">
			<title>Gray-frame Round Edge.560</title>
			<desc>desktop.blocks/</desc>
			<rect x="0" y="329.73" width="144.813" height="29.3239" rx="14.662" ry="14.662" class="st7"/>
			<text x="14.84" y="348.39" class="st6">desktop.blocks/</text>		</g>
		<g id="shape246-138" transform="translate(111.247,-248.464)">
			<title>Yellow-frame Round Edge.561</title>
			<desc>common.blocks/</desc>
			<rect x="0" y="329.73" width="144.813" height="29.3239" rx="14.662" ry="14.662" class="st9"/>
			<text x="11.98" y="348.39" class="st6">common.blocks/</text>		</g>
		<g id="shape247-142" transform="translate(108.166,-76.968)">
			<title>Black-frame Round Edge.562</title>
			<desc>touch.blocks/</desc>
			<rect x="0" y="329.73" width="144.813" height="29.3239" rx="14.662" ry="14.662" class="st10"/>
			<text x="23.54" y="348.39" class="st6">touch.blocks/</text>		</g>
		<g id="group248-147" transform="translate(328.664,-119.488)">
			<title>Notebook.564</title>
			<g id="group249-148" transform="translate(14.1732,5.68434E-014)">
				<title>g5</title>
				<g id="shape250-149">
					<title>path7</title>
					<path d="M85.66 352.26 L69.34 352.26 L0 352.26 L0 353.62 L0 354.98 C-0 357.22 1.84 359.05 4.08 359.05 L156.36
								 359.05 C158.61 359.05 160.44 357.22 160.44 354.98 L160.44 353.62 L160.44 352.26 L85.66 352.26 Z"
							class="st12"/>
				</g>
				<g id="shape251-151" transform="translate(9.51768,-6.79835)">
					<title>path9</title>
					<path d="M133.25 265.24 L8.16 265.24 C3.67 265.24 0 268.91 0 273.4 L0 359.05 L59.83 359.05 L66.62 359.05 L67.98
								 359.05 L76.14 359.05 L141.41 359.05 L141.41 273.4 C141.41 268.91 137.73 265.24 133.25 265.24 Z"
							class="st12"/>
				</g>
				<g id="shape252-153" transform="translate(78.8608,-95.1768)">
					<title>circle11</title>
					<path d="M2.72 357.69 C2.72 358.45 2.11 359.05 1.36 359.05 C0.61 359.05 0 358.45 0 357.69 C0 356.94 0.61 356.33
								 1.36 356.33 C2.11 356.33 2.72 356.94 2.72 357.69 Z" class="st13"/>
				</g>
				<g id="group253-155" transform="translate(50.3078,-27.1934)">
					<title>g13</title>
					<g id="shape254-156">
						<title>path15</title>
						<path d="M35.35 334.58 L24.47 334.58 C24.47 318.26 33.99 306.03 33.99 306.03 L4.08 306.03 C1.84 306.03 0
									 307.86 0 310.11 L0 354.98 C-0 357.22 1.84 359.05 4.08 359.05 L35.96 359.05 C32.97 346.41 35.35
									 334.58 35.35 334.58 Z" class="st14"/>
					</g>
					<g id="group255-158" transform="translate(8.15801,5.68434E-014)">
						<title>g17</title>
						<g id="shape256-159" transform="translate(2.51799E-013,-12.237)">
							<title>path19</title>
							<path d="M0 353.62 C-0 353.62 9.52 359.05 21.75 359.05 C33.99 359.05 43.51 353.62 43.51 353.62 L0 353.62
										 Z" class="st15"/>
							<path d="M0 353.62 C-0 353.62 9.52 359.05 21.75 359.05 C33.99 359.05 43.51 353.62 43.51 353.62"
									class="st16"/>
						</g>
						<g id="shape257-162" transform="translate(6.79835,-36.7111)">
							<title>line21</title>
							<path d="M0 353.62 L0 359.05 L0 353.62 Z" class="st15"/>
							<path d="M0 353.62 L0 359.05" class="st16"/>
						</g>
						<g id="shape258-165" transform="translate(33.9917,-36.7111)">
							<title>line23</title>
							<path d="M0 353.62 L0 359.05 L0 353.62 Z" class="st15"/>
							<path d="M0 353.62 L0 359.05" class="st16"/>
						</g>
						<g id="shape259-168" transform="translate(25.8337,5.68434E-014)">
							<title>path27</title>
							<path d="M1.97 359.05 L21.75 359.05 C24 359.05 25.83 357.22 25.83 354.98 L25.83 310.11 C25.83 307.86
										 24 306.03 21.75 306.03 L0 306.03 L1.97 359.05 Z" class="st15"/>
							<path d="M1.97 359.05 L21.75 359.05 C24 359.05 25.83 357.22 25.83 354.98 L25.83 310.11 C25.83 307.86
										 24 306.03 21.75 306.03 L0 306.03" class="st16"/>
						</g>
					</g>
				</g>
				<g id="shape260-171" transform="translate(16.316,-13.5967)">
					<title>rect29</title>
					<rect x="0" y="280.194" width="127.809" height="78.8608" class="st17"/>
				</g>
			</g>
		</g>
		<g id="group261-173" transform="translate(611.172,-62.7948)">
			<title>iPhone.565</title>
			<g id="group262-174">
				<title>Sheet.262</title>
				<g id="group263-175">
					<title>Sheet.263</title>
					<g id="shape264-176" transform="translate(1.00616,-1.00616)">
						<title>Sheet.264</title>
						<path d="M5.03 359.05 C2.26 359.05 0 356.79 0 354.02 L0 265.48 C0 262.71 2.26 260.45 5.03 260.45 L41.25 260.45
									 C44.02 260.45 46.28 262.71 46.28 265.48 L46.28 354.02 C46.28 356.79 44.02 359.05 41.25 359.05
									 L5.03 359.05 Z" class="st18"/>
					</g>
					<g id="shape265-178">
						<title>Sheet.265</title>
						<path d="M42.26 260.45 C44.47 260.45 46.28 262.26 46.28 264.48 L46.28 353.02 C46.28 355.23 44.47 357.04 42.26
									 357.04 L6.04 357.04 C3.82 357.04 2.01 355.23 2.01 353.02 L2.01 264.48 C2.01 262.26 3.82 260.45
									 6.04 260.45 L42.26 260.45 ZM42.26 258.44 L6.04 258.44 C2.72 258.44 0 261.16 0 264.48 L0 353.02
									 C-0 356.34 2.72 359.05 6.04 359.05 L42.26 359.05 C45.58 359.05 48.3 356.34 48.3 353.02 L48.3
									 264.48 C48.3 261.16 45.58 258.44 42.26 258.44 Z" class="st19"/>
					</g>
				</g>
				<g id="group266-180" transform="translate(4.02462,-14.0862)">
					<title>Sheet.266</title>
					<g id="shape267-181" transform="translate(1.00616,-1.00616)">
						<title>Sheet.267</title>
						<rect x="0" y="288.623" width="38.2339" height="70.4309" class="st20"/>
					</g>
					<g id="shape268-183">
						<title>Sheet.268</title>
						<path d="M38.23 288.62 L38.23 357.04 L2.01 357.04 L2.01 288.62 L38.23 288.62 ZM39.24 286.61 L1.01 286.61
									 C0.45 286.61 0 287.06 0 287.62 L0 358.05 C0 358.6 0.45 359.05 1.01 359.05 L39.24 359.05 C39.79
									 359.05 40.25 358.6 40.25 358.05 L40.25 287.62 C40.25 287.06 39.79 286.61 39.24 286.61 Z"
								class="st19"/>
					</g>
				</g>
				<g id="shape269-185" transform="translate(21.1293,-5.03078)">
					<title>Sheet.269</title>
					<ellipse cx="3.01847" cy="356.036" rx="3.01847" ry="3.01847" class="st12"/>
				</g>
				<g id="shape270-187" transform="translate(27.1662,627.555) rotate(180)">
					<title>Sheet.270</title>
					<path d="M0 359.05 L6.04 359.05" class="st16"/>
				</g>
				<g id="shape271-190" transform="translate(18.1108,-90.554)">
					<title>Sheet.271</title>
				</g>
				<g id="shape272-191" transform="translate(24.1477,-94.5786)">
					<title>Sheet.272</title>
				</g>
			</g>
		</g>
		<g id="shape273-192" transform="translate(253.134,-91.2756)">
			<title>Basic Arrow 1.545</title>
			<path d="M0 359.05 L357.17 359.05" class="st21"/>
		</g>
		<g id="shape274-199" transform="translate(252.038,-176.644) rotate(-0.308512)">
			<title>Gray Arrow 1.566</title>
			<path d="M0 359.05 L95.83 359.05" class="st23"/>
		</g>
		<g id="shape275-206" transform="translate(782.112,97.8343) rotate(90)">
			<title>Yellow Arrow 1.568</title>
			<path d="M0 359.05 L39.22 359.05" class="st25"/>
		</g>
		<g id="shape276-213" transform="translate(994.278,97.0949) rotate(90)">
			<title>Yellow Arrow 1.116</title>
			<path d="M0 359.05 L97.39 359.05" class="st25"/>
		</g>
		<g id="shape277-220" transform="translate(255.899,-261.22) rotate(-0.0203105)">
			<title>Line.117</title>
			<path d="M0 359.05 L378.93 359.05" class="st27"/>
		</g>
	</g>
</svg>
