<svg width="734" height="413" viewBox="0 0 734 413" xmlns="http://www.w3.org/2000/svg"><title>iPad-Pro-Portrait</title><g fill="none" fill-rule="evenodd"><g font-size="13"><g font-family="PTMono-Regular, PT Mono"><text transform="translate(65 374)" fill="#000"><tspan x="0" y="12">└──popup/</tspan></text><text transform="translate(65 359)" fill="#000"><tspan x="0" y="12">├──</tspan></text><text transform="translate(88 359)" fill="#F66"><tspan x=".4" y="12">langswitch/</tspan></text><text transform="translate(65 344)" fill="#000"><tspan x="0" y="12">├──image/</tspan></text><text transform="translate(65 329)" fill="#000"><tspan x="0" y="12">├──icon/</tspan></text><text transform="translate(65 314)" fill="#000"><tspan x="0" y="12">├──</tspan></text><text transform="translate(88 314)" fill="#F66"><tspan x=".4" y="12">input/</tspan></text><text transform="translate(65 299)" fill="#000"><tspan x="0" y="12">├──</tspan></text><text transform="translate(88 299)" fill="#F66"><tspan x=".4" y="12">button/</tspan></text><text transform="translate(33 284)" fill="#000"><tspan x="0" y="12">└──lib/</tspan></text><text transform="translate(65 269)" fill="#000"><tspan x="0" y="12">└──link/</tspan></text><text transform="translate(65 254)" fill="#000"><tspan x="0" y="12">├──icon/</tspan></text><text transform="translate(65 239)" fill="#000"><tspan x="0" y="12">├──</tspan></text><text transform="translate(88 239)" fill="#F66"><tspan x=".4" y="12">logo/</tspan></text><g><text transform="translate(65 224)" fill="#000"><tspan x="0" y="12">├──</tspan></text><text transform="translate(88 224)" fill="#F66"><tspan x=".4" y="12">input/</tspan></text></g><g><text transform="translate(65 209)" fill="#000"><tspan x="0" y="12">├──</tspan></text><text transform="translate(88 209)" fill="#F66"><tspan x=".4" y="12">button/</tspan></text></g><g fill="#000"><text transform="translate(33 194)"><tspan x="0" y="12">└──blocks/</tspan></text></g><g fill="#000"><text transform="translate(1 179)"><tspan x="0" y="12">project/</tspan></text></g></g><text transform="translate(0 148)" font-family="Helvetica-Bold, Helvetica" fill="#333" font-weight="bold"><tspan x="0" y="13">Source files</tspan></text></g><g fill="#F66"><path d="M192 216h31v1h-31v-1zm36 .5l-5 2.5v-5l5 2.5zM192 231h31v1h-31v-1zm36 .5l-5 2.5v-5l5 2.5zM192 246h31v1h-31v-1zm36 .5l-5 2.5v-5l5 2.5zM192 306h31v1h-31v-1zm36 .5l-5 2.5v-5l5 2.5zM192 321h31v1h-31v-1zm36 .5l-5 2.5v-5l5 2.5zM192 366h31v1h-31v-1zm36 .5l-5 2.5v-5l5 2.5z"/></g><text transform="translate(263 -3)" font-size="13" font-family="Helvetica-Bold, Helvetica" fill="#333" font-weight="bold"><tspan x=".411" y="13">Declaration</tspan></text><path d="M177 123h-1.01c-1.65 0-2.99-4.222-2.99-9.4V38.4c0-5.191 1.343-9.4 2.997-9.4H177" stroke-opacity=".8" stroke="#000"/><path d="M177 123h-1.01c-1.65 0-2.99-4.222-2.99-9.4V38.4c0-5.191 1.343-9.4 2.997-9.4H177"/><path d="M421 123h1.01c1.65 0 2.99-4.222 2.99-9.4V38.4c0-5.191-1.343-9.4-2.997-9.4H421" stroke-opacity=".8" stroke="#000"/><path d="M425 123h-1.01c-1.65 0-2.99-4.222-2.99-9.4V38.4c0-5.191 1.343-9.4 2.997-9.4H425"/><g font-size="13" font-family="PTMono-Regular, PT Mono"><text transform="translate(193 105)" fill="#000"><tspan x="0" y="12">];</tspan></text><text fill="#000" transform="translate(219 90)"><tspan x="176.8" y="12">}</tspan></text><text fill="#F66" transform="translate(219 90)"><tspan x="77" y="12">&quot;langswitch&quot;</tspan></text><text fill="#000" transform="translate(219 90)"><tspan x="62" y="12">:</tspan></text><text fill="#F66" transform="translate(219 90)"><tspan x="15" y="12">&quot;name&quot;</tspan></text><text fill="#000" transform="translate(219 90)"><tspan x="0" y="12">{</tspan></text><text fill="#000" transform="translate(219 75)"><tspan x="140.8" y="12">},</tspan></text><text fill="#F66" transform="translate(219 75)"><tspan x="77" y="12">&quot;input&quot;</tspan></text><text fill="#000" transform="translate(219 75)"><tspan x="62" y="12">:</tspan></text><text fill="#F66" transform="translate(219 75)"><tspan x="15" y="12">&quot;name&quot;</tspan></text><text fill="#000" transform="translate(219 75)"><tspan x="0" y="12">{</tspan></text><g><text fill="#000" transform="translate(219 60)"><tspan x="131.8" y="12">},</tspan></text><text fill="#F66" transform="translate(219 60)"><tspan x="77" y="12">&quot;logo&quot;</tspan></text><text fill="#000" transform="translate(219 60)"><tspan x="62" y="12">:</tspan></text><text fill="#F66" transform="translate(219 60)"><tspan x="15" y="12">&quot;name&quot;</tspan></text><text fill="#000" transform="translate(219 60)"><tspan x="0" y="12">{</tspan></text></g><g><text fill="#000" transform="translate(219 45)"><tspan x="146.8" y="12">},</tspan></text><text fill="#F66" transform="translate(219 45)"><tspan x="77" y="12">&quot;button&quot;</tspan></text><text fill="#000" transform="translate(219 45)"><tspan x="62" y="12">:</tspan></text><text fill="#F66" transform="translate(219 45)"><tspan x="15" y="12">&quot;name&quot;</tspan></text><text fill="#000" transform="translate(219 45)"><tspan x="0" y="12">{</tspan></text></g><g fill="#000"><text transform="translate(310 30)"><tspan x="0" y="12">= [</tspan></text></g><g fill="teal"><text transform="translate(193 30)"><tspan x="0" y="12">exports.blocks</tspan></text></g></g><g fill="#F66"><path d="M299 135v31h-1v-31h1zm-.5 36l-2.5-5h5l-2.5 5z"/></g><g><rect width="100" height="230" rx="3" stroke="#000" stroke-opacity=".2" fill="#000" fill-opacity=".05" transform="translate(249 182)"/><rect width="100" height="230" rx="3" stroke="#FFF" transform="translate(249 182)"/><g font-size="13" font-family="Helvetica-Bold, Helvetica" fill="#333" font-weight="bold"><text transform="translate(281.5 288)"><tspan x=".434" y="13.541">Build</tspan></text></g></g><g><path stroke-opacity=".1" stroke="#000" fill="#F6F5F3" d="M426 214h307v181H426z"/><g font-size="13" font-family="PTMono-Regular, PT Mono"><text transform="translate(442 227)" fill="#A71D5D"><tspan x="0" y="12">@import</tspan></text><text transform="translate(504 227)" fill="#183691"><tspan x=".4" y="12">“lib/button/button.css”</tspan></text><text transform="translate(683 227)" fill="#333"><tspan x=".8" y="12">;</tspan></text><text transform="translate(442 242)" fill="#A71D5D"><tspan x="0" y="12">@import</tspan></text><text transform="translate(504 242)" fill="#183691"><tspan x=".4" y="12">“blocks/button/button.css”</tspan></text><text transform="translate(707 242)" fill="#333"><tspan x=".2" y="12">;</tspan></text><text transform="translate(442 272)" fill="#A71D5D"><tspan x="0" y="12">@import</tspan></text><text transform="translate(504 272)" fill="#183691"><tspan x=".4" y="12">“lib/input/input.css”</tspan></text><text transform="translate(668 272)" fill="#333"><tspan x=".2" y="12">;</tspan></text><text transform="translate(442 287)" fill="#A71D5D"><tspan x="0" y="12">@import</tspan></text><text transform="translate(504 287)" fill="#183691"><tspan x=".4" y="12">“blocks/input/input.css”</tspan></text><text transform="translate(691 287)" fill="#333"><tspan x=".6" y="12">;</tspan></text><text transform="translate(442 317)" fill="#A71D5D"><tspan x="0" y="12">@import</tspan></text><text transform="translate(504 317)" fill="#183691"><tspan x=".4" y="12">“lib/langswitch/</tspan></text><text transform="translate(442 332)" fill="#183691"><tspan x="0" y="12">langswitch.css”</tspan></text><text transform="translate(559 332)" fill="#333"><tspan x="0" y="12">;</tspan></text><text transform="translate(442 362)" fill="#A71D5D"><tspan x="0" y="12">@import</tspan></text><text transform="translate(504 362)" fill="#183691"><tspan x=".4" y="12">“blocks/logo/logo.css”</tspan></text><text transform="translate(676 362)" fill="#333"><tspan x="0" y="12">;</tspan></text></g><text transform="translate(544 184)" font-size="13" font-family="Helvetica-Bold, Helvetica" fill="#333" font-weight="bold"><tspan x=".411" y="13">project.css</tspan></text></g><g fill="#F66"><path d="M370 297h31v1h-31v-1zm36 .5l-5 2.5v-5l5 2.5z"/></g></g></svg>