<svg width="575" height="310" viewBox="0 0 575 310" xmlns="http://www.w3.org/2000/svg" xmlns:xlink="http://www.w3.org/1999/xlink"><title>Slice</title><defs><rect id="a" width="230" height="28" rx="3"/><filter x="-50%" y="-50%" width="200%" height="200%" filterUnits="objectBoundingBox" id="b"><feMorphology radius="1" in="SourceAlpha" result="shadowSpreadInner1"/><feOffset in="shadowSpreadInner1" result="shadowOffsetInner1"/><feComposite in="shadowOffsetInner1" in2="SourceAlpha" operator="arithmetic" k2="-1" k3="1" result="shadowInnerInner1"/><feColorMatrix values="0 0 0 0 0 0 0 0 0 0 0 0 0 0 0 0 0 0 0.2 0" in="shadowInnerInner1"/></filter><rect id="c" width="69" height="28" rx="3"/><filter x="-50%" y="-50%" width="200%" height="200%" filterUnits="objectBoundingBox" id="d"><feMorphology radius="1" in="SourceAlpha" result="shadowSpreadInner1"/><feOffset in="shadowSpreadInner1" result="shadowOffsetInner1"/><feComposite in="shadowOffsetInner1" in2="SourceAlpha" operator="arithmetic" k2="-1" k3="1" result="shadowInnerInner1"/><feColorMatrix values="0 0 0 0 0 0 0 0 0 0 0 0 0 0 0 0 0 0 0.2 0" in="shadowInnerInner1"/></filter><rect id="f" width="494.829" height="32" rx="3"/><filter x="-50%" y="-50%" width="200%" height="200%" filterUnits="objectBoundingBox" id="e"><feOffset dy="1" in="SourceAlpha" result="shadowOffsetOuter1"/><feColorMatrix values="0 0 0 0 0 0 0 0 0 0 0 0 0 0 0 0 0 0 0.12 0" in="shadowOffsetOuter1" result="shadowMatrixOuter1"/><feOffset dy="5" in="SourceAlpha" result="shadowOffsetOuter2"/><feGaussianBlur stdDeviation="5" in="shadowOffsetOuter2" result="shadowBlurOuter2"/><feColorMatrix values="0 0 0 0 0 0 0 0 0 0 0 0 0 0 0 0 0 0 0.1 0" in="shadowBlurOuter2" result="shadowMatrixOuter2"/><feMerge><feMergeNode in="shadowMatrixOuter1"/><feMergeNode in="shadowMatrixOuter2"/></feMerge></filter></defs><g fill="none" fill-rule="evenodd"><g transform="translate(45 233)"><use fill="#FFF" xlink:href="#a"/><use fill="#000" filter="url(#b)" xlink:href="#a"/></g><text transform="translate(120 202)" font-size="13" font-family="Helvetica-Bold, Helvetica" fill="#333" font-weight="bold"><tspan x=".411" y="13">Block `input`</tspan></text><g transform="translate(453 233)"><use fill="#FFF" xlink:href="#c"/><use fill="#000" filter="url(#d)" xlink:href="#c"/></g><text font-family="ArialMT, Arial" font-size="13" fill="#000" transform="translate(453 233)"><tspan x="13" y="18">Кнопка</tspan></text><text transform="translate(442 202)" font-size="13" font-family="Helvetica-Bold, Helvetica" fill="#333" font-weight="bold"><tspan x=".411" y="13">Block `button`</tspan></text><g><g transform="translate(37 61)"><use fill="#000" filter="url(#e)" xlink:href="#f"/><use fill="#FFF" xlink:href="#f"/></g><path fill="#FFDB4D" d="M459.842 61h72.953v32h-72.953z"/><text font-family="ArialMT, Arial" font-size="13" fill="#000" transform="translate(459.842 61)"><tspan x="18.238" y="20">Найти</tspan></text><g font-size="13" font-family="Helvetica-Bold, Helvetica" fill="#333" font-weight="bold"><text transform="translate(222 30)"><tspan x=".411" y="13">Block `search-form`</tspan></text></g></g><g fill="#F66"><path d="M173.378 177.284l16.964-46.609 1.54.56-16.964 46.61-1.54-.561zm20.47-53.846l1.114 8.919-7.7-2.803 6.586-6.116z"/></g><g fill="#F66"><path d="M478.078 177.844l-16.964-46.608 1.54-.56 16.964 46.608-1.54.56zm-18.93-54.406l6.586 6.116-7.7 2.803 1.114-8.92z"/></g></g></svg>