<svg width="576" height="302" viewBox="0 0 576 302" xmlns="http://www.w3.org/2000/svg" xmlns:xlink="http://www.w3.org/1999/xlink"><title>iPad Pro Portrait</title><defs><rect id="a" x="51" y="155" width="111" height="18" rx="8"/><mask id="d" x="0" y="0" width="111" height="18" fill="#fff"><use xlink:href="#a"/></mask><rect id="b" x="51" y="82" width="125" height="18" rx="8"/><mask id="e" x="0" y="0" width="125" height="18" fill="#fff"><use xlink:href="#b"/></mask><rect id="c" x="51" y="14" width="118" height="18" rx="8"/><mask id="f" x="0" y="0" width="118" height="18" fill="#fff"><use xlink:href="#c"/></mask></defs><g fill="none" fill-rule="evenodd"><path d="M498.395 252.076h45.48V170.79h-45.48v81.285zm42.09-95.062h-38.126c-3.468 0-6.28 2.808-6.28 6.266v97.154c0 3.458 2.812 6.266 6.28 6.266h38.126c3.468 0 6.279-2.808 6.279-6.266V163.28c0-3.458-2.811-6.266-6.28-6.266z" fill="#FFF"/><path d="M498.395 252.076h45.48V170.79h-45.48v81.285zm42.09-95.062h-38.126c-3.468 0-6.28 2.808-6.28 6.266v97.154c0 3.458 2.812 6.266 6.28 6.266h38.126c3.468 0 6.279-2.808 6.279-6.266V163.28c0-3.458-2.811-6.266-6.28-6.266z" stroke="#202020" stroke-width="2" stroke-linejoin="round"/><path d="M494.78 185.345h-.416c-.201 0-.364-.179-.364-.4v-2.579c0-.22.163-.4.364-.4h.416v3.38" fill="#FFF"/><path d="M494.78 185.345h-.416c-.201 0-.364-.179-.364-.4v-2.579c0-.22.163-.4.364-.4h.416v3.38z" stroke="#202020" stroke-width="2" stroke-linejoin="round"/><path d="M494.78 193.922h-.416c-.201 0-.364-.178-.364-.4v-2.579c0-.22.163-.4.364-.4h.416v3.38" fill="#FFF"/><path d="M494.78 193.922h-.416c-.201 0-.364-.178-.364-.4v-2.579c0-.22.163-.4.364-.4h.416v3.38z" stroke="#202020" stroke-width="2" stroke-linejoin="round"/><path fill="#FFF" d="M494 176.248h.78v-5.198H494z"/><path stroke="#202020" stroke-width="2" stroke-linejoin="round" d="M494 176.248h.78v-5.198H494z"/><path d="M538.29 154.675h-7.744a.41.41 0 0 0-.417.404v.635h8.577v-.635a.41.41 0 0 0-.417-.404" fill="#FFF"/><path d="M538.29 154.675h-7.744a.41.41 0 0 0-.417.404v.635h8.577v-.635a.41.41 0 0 0-.417-.404z" stroke="#202020" stroke-width="2" stroke-linejoin="round"/><path d="M546.672 260.353c0 3.457-2.8 6.259-6.256 6.259h-37.989a6.257 6.257 0 0 1-6.256-6.259v-96.992c0-3.457 2.8-6.259 6.256-6.259h37.99a6.257 6.257 0 0 1 6.255 6.259v96.992zm-6.256-104.639h-37.989a7.648 7.648 0 0 0-7.647 7.647v96.992a7.649 7.649 0 0 0 7.647 7.647h37.99a7.648 7.648 0 0 0 7.646-7.647v-96.992a7.648 7.648 0 0 0-7.647-7.647z" fill="#FFF"/><path d="M546.672 260.353c0 3.457-2.8 6.259-6.256 6.259h-37.989a6.257 6.257 0 0 1-6.256-6.259v-96.992c0-3.457 2.8-6.259 6.256-6.259h37.99a6.257 6.257 0 0 1 6.255 6.259v96.992zm-6.256-104.639h-37.989a7.648 7.648 0 0 0-7.647 7.647v96.992a7.649 7.649 0 0 0 7.647 7.647h37.99a7.648 7.648 0 0 0 7.646-7.647v-96.992a7.648 7.648 0 0 0-7.647-7.647zm-23.803 103.579c0-2.656 2.21-4.809 4.939-4.809 2.727 0 4.938 2.153 4.938 4.809s-2.21 4.808-4.938 4.808c-2.728 0-4.939-2.152-4.939-4.808z" stroke="#202020" stroke-width="2" stroke-linejoin="round"/><path d="M525.432 166.37h-7.76a1.049 1.049 0 0 1-1.059-1.039c0-.574.474-1.04 1.058-1.04h7.761c.584 0 1.058.466 1.058 1.04 0 .574-.474 1.04-1.058 1.04" fill="#FFF"/><path d="M525.432 166.37h-7.76a1.049 1.049 0 0 1-1.059-1.039c0-.574.474-1.04 1.058-1.04h7.761c.584 0 1.058.466 1.058 1.04 0 .574-.474 1.04-1.058 1.04z" stroke="#202020" stroke-width="2" stroke-linejoin="round"/><path d="M522.331 161.173a1.04 1.04 0 1 1-2.079 0 1.04 1.04 0 0 1 2.08 0" fill="#FFF"/><path d="M522.331 161.173a1.04 1.04 0 1 1-2.079 0 1.04 1.04 0 0 1 2.08 0z" stroke="#202020" stroke-width="2" stroke-linejoin="round"/><path d="M376.538 186.159a2.397 2.397 0 0 1-2.396 2.396h-19.569a2.396 2.396 0 0 1-2.396-2.396h24.361zM275 191.35h178.715v-5.192H275v5.192zm178.715 0l-4.09 1.772a9.986 9.986 0 0 1-3.97.823H283.06a9.984 9.984 0 0 1-3.97-.823L275 191.351h178.715zm-155.61-5.192a4.77 4.77 0 0 1-.64-2.396V103.09a4.792 4.792 0 0 1 4.792-4.792h124.201a4.792 4.792 0 0 1 4.793 4.792v80.672c0 .873-.234 1.691-.642 2.397H298.106zm1.626-.077a3.98 3.98 0 0 1-1.069-2.719v-79.872a3.994 3.994 0 0 1 3.994-3.994h123.403a3.994 3.994 0 0 1 3.993 3.994v79.872a3.984 3.984 0 0 1-1.141 2.796l-129.18-.077zm3.923-5.115h121.407v-75.879H303.654v75.88z" stroke="#151516" stroke-width="2" stroke-linecap="round" stroke-linejoin="round"/><g><g transform="translate(18 45)"><use stroke="#2E96CA" mask="url(#d)" stroke-width="4" fill="#FFF" xlink:href="#a"/><path d="M162 163h295.97v2H162v-2zm310 1l-14.028 5v-10L472 164z" fill="#2E96CA"/><g font-size="13" font-family="PTMono-Regular, PT Mono"><text fill="#000" transform="translate(95 199)"><tspan x="0" y="12">└──</tspan></text><text transform="translate(118 199)" fill="#F66"><tspan x=".4" y="12">button.js</tspan></text><text transform="translate(95 184)" fill="#000"><tspan x="0" y="12">├──</tspan></text><text transform="translate(118 184)" fill="#F66"><tspan x=".4" y="12">button.css</tspan></text><text fill="#000" transform="translate(64 171)"><tspan x="0" y="12">└──</tspan></text><text fill="#F66" transform="translate(64 171)"><tspan x="23.4" y="12">button/</tspan></text><text fill="#000" transform="translate(32 156)"><tspan x="0" y="12">└──touch.blocks/</tspan></text></g><use stroke="#EC4682" mask="url(#e)" stroke-width="4" fill="#FFF" xlink:href="#b"/><path d="M174 89h86.972v2H174v-2zm101 1l-14.028 5V85L275 90z" fill="#EC4682"/><g font-size="13" font-family="PTMono-Regular, PT Mono"><text fill="#000" transform="translate(95 126)"><tspan x="0" y="12">└──</tspan></text><text transform="translate(118 126)" fill="#F66"><tspan x=".4" y="12">button.js</tspan></text><text transform="translate(95 111)" fill="#000"><tspan x="0" y="12">├──</tspan></text><text transform="translate(118 111)" fill="#F66"><tspan x=".4" y="12">button.css</tspan></text><text fill="#000" transform="translate(64 98)"><tspan x="0" y="12">└──</tspan></text><text fill="#F66" transform="translate(64 98)"><tspan x="23.4" y="12">button/</tspan></text><text fill="#000" transform="translate(32 83)"><tspan x="0" y="12">└──desktop.blocks/</tspan></text></g><use stroke="#73C55C" mask="url(#f)" stroke-width="4" fill="#FFF" xlink:href="#c"/><path d="M504.5 22.5v68.97h-2V22.5h2zm-1 83l-5-14.028h10l-5 14.028zM347.5 22.5v11.97h-2V22.5h2zm-1 25.998l-5-14.028h10l-5 14.028z" fill="#73C55C"/><path d="M169 22h334.97v2H169v-2z" fill="#73C55C"/><g font-size="13" font-family="PTMono-Regular, PT Mono"><text fill="#000" transform="translate(63 43)"><tspan x="0" y="12">└──</tspan></text><text transform="translate(86 43)" fill="#F66"><tspan x=".4" y="12">button.js</tspan></text><text transform="translate(63 28)" fill="#000"><tspan x="0" y="12">├──</tspan></text><text transform="translate(86 28)" fill="#F66"><tspan x=".4" y="12">button.css</tspan></text><text fill="#000" transform="translate(32 15)"><tspan x="0" y="12">└──</tspan></text><text fill="#F66" transform="translate(32 15)"><tspan x="23.4" y="12">button/</tspan></text><text fill="#000" transform="translate(32 15)"><tspan x="0" y="12">└──common.blocks/</tspan></text></g><text font-size="13" font-family="PTMono-Regular, PT Mono" fill="#000"><tspan x="0" y="12">project/</tspan></text></g><text transform="translate(17 14)" font-size="13" font-family="Helvetica-Bold, Helvetica" fill="#333" font-weight="bold"><tspan x="0" y="13">Source files</tspan></text></g></g></svg>