<svg width="760" height="352" viewBox="0 0 760 352" xmlns="http://www.w3.org/2000/svg" style="background:#fff"><title>build__search-form</title><g fill="none" fill-rule="evenodd"><text transform="translate(149.902 44.882)" font-size="16" font-family="Helvetica-Bold, Helvetica" fill="#000" font-weight="bold"><tspan x=".38" y="15.8">Block &quot;search-form&quot;</tspan></text><g stroke="#BFBFBF" stroke-width=".75" fill="#FFF"><path d="M151.438 294.154c-.001.698.18 1.37.505 1.865.324.495.765.774 1.225.774h282.27c.46 0 .9-.28 1.225-.774.325-.496.506-1.167.505-1.866v-22.81c-.001-1.451-.775-2.628-1.73-2.63h-282.27c-.955.002-1.73 1.179-1.73 2.63v22.81z"/><path d="M151.394 294.154c-.001.698.18 1.37.505 1.865.325.495.765.774 1.225.774h282.27c.46 0 .9-.28 1.225-.774.325-.496.507-1.167.505-1.866v-22.81c0-1.451-.775-2.628-1.73-2.63h-282.27c-.955.002-1.729 1.179-1.73 2.63v22.81z"/></g><text transform="translate(149.953 230.618)" font-size="16" font-family="Helvetica-Bold, Helvetica" fill="#000" font-weight="bold"><tspan x=".2" y="15.8">Block &quot;input&quot;</tspan></text><text transform="translate(499.016 229.134)" font-size="16" font-family="Helvetica-Bold, Helvetica" fill="#000" font-weight="bold"><tspan x=".12" y="15.8">Block &quot;button&quot;</tspan></text><path d="M192.35 200.5v-49m3 10.8l-3-10.8-3 10.8m363.15 38.2v-49m3 10.8l-3-10.8-3 10.8" stroke="#000" stroke-width="1.5"/><g stroke="#BFBFBF" stroke-width=".75" fill="#FFF"><path d="M151.753 111.712a2.63 2.63 0 0 0 2.64 2.63h429.56a2.634 2.634 0 0 0 2.63-2.63v-22.81a2.634 2.634 0 0 0-2.63-2.63h-429.56a2.638 2.638 0 0 0-2.64 2.63v22.81z"/><path d="M151.687 111.712a2.63 2.63 0 0 0 2.64 2.63h429.56a2.634 2.634 0 0 0 2.63-2.63v-22.81a2.634 2.634 0 0 0-2.63-2.63h-429.56a2.638 2.638 0 0 0-2.64 2.63v22.81z"/></g><path d="M522.832 86.267h63.755v28.079h-63.755z" fill="#FFDB4D"/><g stroke="#BFBFBF" stroke-width=".75"><path d="M151.753 111.712a2.63 2.63 0 0 0 2.64 2.63h429.56a2.634 2.634 0 0 0 2.63-2.63v-22.81a2.634 2.634 0 0 0-2.63-2.63h-429.56a2.638 2.638 0 0 0-2.64 2.63v22.81z"/><path d="M151.687 111.712a2.63 2.63 0 0 0 2.64 2.63h429.56a2.634 2.634 0 0 0 2.63-2.63v-22.81a2.634 2.634 0 0 0-2.63-2.63h-429.56a2.638 2.638 0 0 0-2.64 2.63v22.81z"/></g><text transform="translate(529.895 92.206)" font-size="16" font-family="ArialMT, Arial" fill="#000"><tspan x="0" y="14">Search</tspan></text><path d="M522.872 86.535v27.78" stroke="#BFBFBF" stroke-width=".5" fill="#000"/><g stroke-width=".75" stroke="#BFBFBF" fill="#FFF"><path d="M516.422 294.208a3.009 3.009 0 0 0 3.01 3h63.18a3.009 3.009 0 0 0 3.01-3v-22.07a3.009 3.009 0 0 0-3.01-3h-63.18a3.009 3.009 0 0 0-3.01 3v22.07z"/><path d="M516.422 294.208a3.009 3.009 0 0 0 3.01 3h63.18a3.009 3.009 0 0 0 3.01-3v-22.07a3.009 3.009 0 0 0-3.01-3h-63.18a3.009 3.009 0 0 0-3.01 3v22.07z"/></g><text transform="translate(529.467 274.102)" font-size="16" font-family="ArialMT, Arial" fill="#000"><tspan x="0" y="14">Button</tspan></text></g></svg>
