<svg width="692" height="304" xmlns="http://www.w3.org/2000/svg"><g transform="translate(0 -7)" fill="none" fill-rule="evenodd"><ellipse stroke="#000" fill="#FFF" fill-rule="nonzero" cx="297.588" cy="180.235" rx="14.173" ry="35.433"/><text transform="translate(.248 5.004)" font-size="16" font-family="Arial-BoldMT, Arial" fill="#000" font-weight="bold"><tspan x=".26" y="14.68">Source files</tspan></text><path d="M77.34 85.752l.132 62.36" stroke="#000" stroke-width="1.5" fill="#000" fill-rule="nonzero"/><text transform="translate(66.024 67.367)" font-size="16" font-family="ArialMT, Arial" fill="#000"><tspan x=".1" y="14.68">blocks/</tspan></text><text transform="translate(95.675 138.162)" font-size="16" font-family="ArialMT, Arial" fill="#000"><tspan x=".57" y="14.19">icon/</tspan></text><text transform="translate(126.62 155.737)" font-size="16" font-family="ArialMT, Arial" fill="#000"><tspan x=".62" y="14.19">icon.css</tspan></text><path d="M77.468 148.11h14.17m16.88 16.441h14.17" stroke="#000" stroke-width="1.5" fill="#000" fill-rule="nonzero"/><text transform="translate(.35 39.02)" font-size="16" font-family="ArialMT, Arial" fill="#000"><tspan x=".29" y="14.68">project/</tspan></text><path d="M43.453 77.243h19.84M43.457 65.91v11.34m-.147 107.71h19.84m-19.835-10.767v11.34" stroke="#000" stroke-width="1.5" fill="#000" fill-rule="nonzero"/><text transform="translate(65.673 175.579)" font-size="16" font-family="ArialMT, Arial" fill="#000"><tspan x=".29" y="14.19">lib/</tspan></text><path d="M66.13 200.555h85.039v28.346H66.13z"/><path d="M77.473 196.303v62.36m31.049-101.345v24.81m-.004.131h14.17" stroke="#000" stroke-width="1.5" fill="#000" fill-rule="nonzero"/><text transform="translate(126.557 172.878)" font-size="16" font-family="ArialMT, Arial" fill="#000"><tspan x=".67" y="14.19">icon.js</tspan></text><path d="M77.62 207.771h14.17" stroke="#000" stroke-width="1.5" fill="#000" fill-rule="nonzero"/><text transform="translate(95.26 197.831)" font-size="16" font-family="ArialMT, Arial" fill="#F66"><tspan x=".92" y="14.6">button/</tspan></text><text transform="translate(127.142 214.839)" font-size="16" font-family="ArialMT, Arial" fill="#F66"><tspan x=".06" y="14.6">button.css</tspan></text><text transform="translate(126.874 232.264)" font-size="16" font-family="ArialMT, Arial" fill="#F66"><tspan x=".59" y="14.19">button.js</tspan></text><path d="M108.67 224.637h14.17m-14.17 17.008h14.17m-14.166-24.807v24.81" stroke="#000" stroke-width="1.5" fill="#000" fill-rule="nonzero"/><text transform="translate(95.979 87.272)" font-size="16" font-family="ArialMT, Arial" fill="#F66"><tspan x=".25" y="14.19">logo/</tspan></text><text transform="translate(127.055 104.847)" font-size="16" font-family="ArialMT, Arial" fill="#F66"><tspan x=".17" y="14.19">logo.css</tspan></text><path d="M77.337 97.22h14.17m16.879 16.44h14.17m-14.166-7.232v24.81m-.004.131h14.17" stroke="#000" stroke-width="1.5" fill="#000" fill-rule="nonzero"/><text transform="translate(126.992 121.988)" font-size="16" font-family="ArialMT, Arial" fill="#F66"><tspan x=".22" y="14.19">logo.js</tspan></text><path d="M77.337 258.794h14.17" stroke="#000" stroke-width="1.5" fill="#000" fill-rule="nonzero"/><text transform="translate(95.573 248.855)" font-size="16" font-family="ArialMT, Arial" fill="#F66"><tspan x=".81" y="14.6">input/</tspan></text><text transform="translate(126.455 265.862)" font-size="16" font-family="ArialMT, Arial" fill="#F66"><tspan x=".95" y="14.6">input.css</tspan></text><text transform="translate(127.187 283.288)" font-size="16" font-family="ArialMT, Arial" fill="#F66"><tspan x=".49" y="14.19">input.js</tspan></text><path d="M108.386 275.66h14.17m-14.17 17.008h14.17m-14.166-24.807v24.81" stroke="#000" stroke-width="1.5" fill="#000" fill-rule="nonzero"/><path d="M557.905 291.546c-.81 0-1.46-.65-1.46-1.46v-58.16c0-.81.65-1.46 1.46-1.46h37.59c.37 0 .75.15 1.03.44l8.13 8.13c.28.28.44.65.44 1.03v50.05c0 .81-.66 1.46-1.47 1.46h-45.72v-.03z" fill="#FFF" fill-rule="nonzero"/><text transform="translate(572.822 275.732)" font-size="12" font-family="ArialMT, Arial" fill="#000"><tspan x=".52" y="11.14">JS</tspan></text><path d="M595.308 230.467v7.7c0 1.15.93 2.08 2.09 2.08h7.66l-9.75-9.78z" fill="#FFCC09" fill-rule="nonzero"/><path d="M595.308 230.467v7.7c0 1.15.93 2.08 2.09 2.08h7.66" stroke="#010202" stroke-width="1.25"/><path d="M562.74 243h36.06m-36.06 3.797h36.06m-36.06 3.795h36.06m-36.06 3.796h36.06m-36.06 3.796h26.57" stroke="#010202" stroke-width="1.5" fill="#000" fill-rule="nonzero"/><path d="M557.905 129.971c-.81 0-1.46-.65-1.46-1.46v-58.16c0-.81.65-1.46 1.46-1.46h37.59c.37 0 .75.15 1.03.44l8.13 8.13c.28.28.44.65.44 1.03v50.05c0 .81-.66 1.46-1.47 1.46h-45.72v-.03z" fill="#FFF" fill-rule="nonzero"/><text transform="translate(567.822 114.157)" font-size="12" font-family="ArialMT, Arial" fill="#000"><tspan x=".18" y="11.14">CSS</tspan></text><path d="M595.308 68.892v7.7c0 1.15.93 2.08 2.09 2.08h7.66l-9.75-9.78z" fill="#FFCC09" fill-rule="nonzero"/><path d="M595.308 68.892v7.7c0 1.15.93 2.08 2.09 2.08h7.66" stroke="#010202" stroke-width="1.25"/><path stroke="#000" stroke-width="2.25" fill="#FFF" fill-rule="nonzero" d="M566.285 82.44h28.658v28.346h-28.658z"/><path stroke="#000" stroke-width=".72" fill="#000" fill-rule="nonzero" d="M568.864 84.708h23.244v23.244h-23.244z"/><g stroke="#000" stroke-width="1.5"><path d="M192.421 113.625c6.46 7.59 21.486 16.303 41.774 24.224 20.287 7.922 44.174 14.401 66.403 18.013"/><path d="M302.295 156.422l.741.143m-11.173.895l11.173-.895-10.034-4.996" stroke-linecap="square"/></g><g stroke="#000" stroke-width="1.5"><path d="M208.473 224.174c18.886.139 61.905-21.053 96.093-47.338"/><path d="M306.05 175.76l.606-.45m-6.881 8.849l6.88-8.849-10.458 4.032" stroke-linecap="square"/></g><g stroke="#000" stroke-width="1.5"><path d="M197.134 275.197c23.373-4.686 71.217-41.87 106.87-83.058"/><path d="M305.138 190.937l.502-.563m-4.956 10.054l4.956-10.054-9.431 6.058" stroke-linecap="square"/></g><g stroke="#FC0" stroke-width="1.5"><path d="M180.125 130.634c7.406 6.929 23.632 14.137 45.109 20.037 21.476 5.901 46.443 10.011 69.407 11.426"/><path d="M296.215 162.332l.756.06m-11.003 2.142l11.003-2.142-10.531-3.84" stroke-linecap="square"/></g><g stroke="#FC0" stroke-width="1.5"><path d="M197.132 240.893c9.538.79 25.022-3.904 43.044-13.048s37.106-21.99 53.054-35.71"/><path d="M295.057 190.772l.6-.457m-6.776 8.929l6.776-8.929-10.41 4.156" stroke-linecap="square"/></g><g stroke="#FC0" stroke-width="1.5"><path d="M186.077 292.768c28.843 1.229 78.718-37.097 111.398-85.603"/><path d="M298.133 206.767l.363-.5m-3.915 10.503l3.915-10.502-8.771 6.979" stroke-linecap="square"/></g><ellipse stroke="#000" fill="#FFF" fill-rule="nonzero" cx="438.754" cy="180.235" rx="14.173" ry="35.433"/><path d="M298.199 144.831h139.94M297.813 215.66h140.72" stroke="#000" stroke-width="1.5" fill="#000" fill-rule="nonzero"/><path fill="#FFF" fill-rule="nonzero" d="M415.969 145.539h22.927v69.392h-22.927z"/><text transform="translate(347.707 168.937)" font-size="16" font-family="Arial-BoldMT, Arial" fill="#000" font-weight="bold"><tspan x=".19" y="14.68">Build</tspan></text><text transform="translate(615.724 90.063)" font-size="16" font-family="ArialMT, Arial" fill="#000"><tspan x=".12" y="14.19">project.css</tspan></text><text transform="translate(615 251)" font-size="16" font-family="ArialMT, Arial" fill="#000"><tspan x=".831" y="14.828">project.js</tspan></text><g stroke="#000" stroke-width="1.5"><path d="M461.183 172.87c8.454 1.147 22.388-2.36 38.736-9.75 16.347-7.39 33.77-18.056 48.432-29.653"/><path d="M548.753 132.596l.46-.412m-6.048 9.437l6.048-9.437-10.049 4.966" stroke-linecap="square"/></g><g stroke="#FC0" stroke-width="1.5"><path d="M461.324 187.318c8.396-.855 22.282 2.786 38.601 10.122 16.32 7.336 33.738 17.766 48.422 28.996"/><path d="M549.24 226.094l.53.315m-10.818-2.937l10.818 2.937-7.753-8.095" stroke-linecap="square"/></g><text transform="translate(554.268 5.345)" font-size="16" font-family="Arial-BoldMT, Arial" fill="#000" font-weight="bold"><tspan x=".44" y="14.68">Bundles</tspan></text><path d="M595.462 231.09c.22 0 .44.09.59.25l8.14 8.13c.15.16.25.38.25.59v50.06c0 .46-.38.84-.84.84h-45.69c-.47 0-.84-.38-.84-.84v-58.19c0-.47.37-.84.84-.84h37.55zm0-1.25h-37.55c-1.16 0-2.09.94-2.09 2.09v58.19c0 1.15.93 2.08 2.09 2.08h45.72c1.15 0 2.09-.93 2.09-2.08v-50.06c0-.56-.22-1.09-.63-1.46l-8.13-8.13c-.41-.41-.94-.63-1.5-.63zm0-160.325c.22 0 .44.09.59.25l8.14 8.13c.15.16.25.38.25.59v50.06c0 .46-.38.84-.84.84h-45.69c-.47 0-.84-.38-.84-.84v-58.19c0-.47.37-.84.84-.84h37.55zm0-1.25h-37.55c-1.16 0-2.09.94-2.09 2.09v58.19c0 1.15.93 2.08 2.09 2.08h45.72c1.15 0 2.09-.93 2.09-2.08v-50.06c0-.56-.22-1.09-.63-1.46l-8.13-8.13c-.41-.41-.94-.63-1.5-.63z" fill="#12100B" fill-rule="nonzero"/><text transform="translate(323.223 6)" font-size="16" font-family="Arial-BoldMT, Arial" fill="#000" font-weight="bold"><tspan x=".62" y="14.09">Declaration</tspan></text><text transform="translate(303 40.071)" font-size="16" font-family="ArialMT, Arial" fill="#F66"><tspan x="0" y="14.51">button, logo, input</tspan></text><path d="M368.5 65.5v69m-3-10.8l3 10.8 3-10.8" stroke="#000" stroke-width="1.5" stroke-linecap="square"/></g></svg>