<svg width="23" height="16" viewBox="0 0 23 16" xmlns="http://www.w3.org/2000/svg"><title>add-folder</title><g fill="none" fill-rule="evenodd"><path fill="#FC0" d="M0 4h20v12H0z"/><path d="M0 2h19.008c.537 0 .992.448.992 1v1H0V2zm.997-2h6.006C7.547 0 8 .448 8 1v1H0V1c0-.556.446-1 .997-1z" fill="#E4A800"/><path d="M16.5 16a6.5 6.5 0 1 1 0-13 6.5 6.5 0 0 1 0 13z" fill-opacity=".5" fill="#66AB3C"/><path d="M16.5 15.768a6.268 6.268 0 1 0 0-12.536 6.268 6.268 0 0 0 0 12.536zm0 .232a6.5 6.5 0 1 1 0-13 6.5 6.5 0 0 1 0 13z" fill="#66AB3C"/><path d="M16.03 9.03V4.337a.47.47 0 1 1 .94 0v4.695h4.694a.47.47 0 1 1 0 .938h-4.695v4.695a.47.47 0 1 1-.938 0V9.969h-4.695a.47.47 0 1 1 0-.938h4.695z" fill="#666"/></g></svg>