<svg width="754" height="384" xmlns="http://www.w3.org/2000/svg" style="background:#fff"><g transform="translate(32 25)" fill="none" fill-rule="evenodd"><path fill="#FFF" fill-rule="nonzero" opacity=".4" d="M0 0h688.999v328.476H0z"/><g transform="translate(571.829 200.29)"><circle fill="#F6F5F3" fill-rule="nonzero" cx="58.824" cy="58.824" r="58.824"/><path d="M20.588 67.648h-2.94v-2.941a2.941 2.941 0 0 0 2.94 2.94zm-14.706 0H51.47c.813 0 1.473.663 1.473 1.465v36.767a2.946 2.946 0 0 1-2.944 2.945H8.826a2.948 2.948 0 0 1-2.944-2.945V67.648zm0-4.413c0-.812.659-1.47 1.467-1.47h8.832c.81 0 1.466.653 1.466 1.47v4.413H5.882v-4.413z" fill="#FC0" fill-rule="nonzero"/><path d="M17.913 35.28c-.147-1.616 1.05-2.927 2.677-2.927h67.646V92.65a4.408 4.408 0 0 1-4.41 4.41H23.53l-5.617-61.78z" fill="#FFF" fill-rule="nonzero"/><path d="M20.736 36.763a1.307 1.307 0 0 1 1.328-1.468h66.172v54.414a4.412 4.412 0 0 1-4.417 4.41H26.471l-5.735-57.356z" fill="#E8E1CF" fill-rule="nonzero"/><path d="M11.765 105.884v2.94H8.824a2.941 2.941 0 0 0 2.94-2.94zm0-30.882c0-.813.665-1.472 1.473-1.472H57.35c.814 0 1.473.658 1.473 1.472v30.875a2.948 2.948 0 0 1-2.943 2.948H11.765V75.002z" fill="#FFE67B" fill-rule="nonzero"/><text transform="translate(37.5 40.121)" fill="#827262" font-family="Roboto-Bold, Roboto" font-size="28" font-weight="bold"><tspan x="0" y="26.464">&lt;/&gt;</tspan></text></g><g transform="translate(381.553 200.29)" fill-rule="nonzero"><circle fill="#F6F5F3" cx="58.585" cy="58.585" r="58.585"/><path d="M20.505 67.373h-2.93v-2.93a2.93 2.93 0 0 0 2.93 2.93zm-14.647 0H51.26c.81 0 1.466.66 1.466 1.46v36.616a2.934 2.934 0 0 1-2.931 2.933H8.79a2.936 2.936 0 0 1-2.932-2.933V67.373zm0-4.396c0-.807.656-1.463 1.46-1.463h8.797c.807 0 1.46.65 1.46 1.463v4.396H5.858v-4.396z" fill="#FC0"/><path d="M17.84 35.136c-.146-1.61 1.046-2.914 2.666-2.914h67.371v60.051a4.39 4.39 0 0 1-4.391 4.392H23.434l-5.593-61.529z" fill="#FFF"/><path d="M20.651 36.613a1.302 1.302 0 0 1 1.323-1.462h65.903v54.193a4.394 4.394 0 0 1-4.399 4.392H26.363l-5.712-57.123z" fill="#E8E1CF"/><path d="M11.717 105.453v2.93h-2.93a2.93 2.93 0 0 0 2.93-2.93zm0-30.757a1.47 1.47 0 0 1 1.467-1.465h43.934c.81 0 1.467.656 1.467 1.465v30.75a2.936 2.936 0 0 1-2.932 2.936H11.717V74.696z" fill="#FFE67B"/><path d="M37.348 54.923c0-.806.652-1.46 1.458-1.464h17.59c.805 0 1.457.65 1.457 1.464 0 .807-.651 1.461-1.458 1.465h-17.59a1.457 1.457 0 0 1-1.457-1.465zm23.434 0c0-.809.66-1.464 1.471-1.464h5.845a1.465 1.465 0 1 1 0 2.929h-5.844a1.465 1.465 0 0 1-1.472-1.465zm-23.434-8.787c0-.81.655-1.465 1.46-1.465h8.797c.806 0 1.46.65 1.46 1.465 0 .809-.656 1.464-1.46 1.464h-8.797a1.459 1.459 0 0 1-1.46-1.464zm14.646 0c0-.807.652-1.461 1.458-1.465h17.59c.805 0 1.458.65 1.458 1.465 0 .806-.652 1.46-1.458 1.464h-17.59a1.457 1.457 0 0 1-1.458-1.464zM37.348 63.71c0-.81.652-1.465 1.465-1.465h23.433c.81 0 1.465.65 1.465 1.465 0 .81-.652 1.465-1.465 1.465H38.812a1.46 1.46 0 0 1-1.464-1.465z" fill="#827262"/><g transform="translate(51.262 38.813)" fill="#E00"><circle cx="19.772" cy="28.56" r="5.858"/><circle cx="5.858" cy="15.379" r="5.858"/><circle cx="19.04" cy="5.858" r="5.858"/></g></g><g transform="translate(190.276 200.29)" fill-rule="nonzero"><circle fill="#F6F5F3" cx="58.585" cy="58.585" r="58.585"/><path d="M20.505 67.373h-2.93v-2.93a2.93 2.93 0 0 0 2.93 2.93zm-14.647 0H51.26c.81 0 1.466.66 1.466 1.46v36.616a2.934 2.934 0 0 1-2.931 2.933H8.79a2.936 2.936 0 0 1-2.932-2.933V67.373zm0-4.396c0-.807.656-1.463 1.46-1.463h8.797c.807 0 1.46.65 1.46 1.463v4.396H5.858v-4.396z" fill="#FC0"/><path d="M17.84 35.136c-.146-1.61 1.046-2.914 2.666-2.914h67.371v60.051a4.39 4.39 0 0 1-4.391 4.392H23.434l-5.593-61.529z" fill="#FFF"/><path d="M20.651 36.613a1.302 1.302 0 0 1 1.323-1.462h65.903v54.193a4.394 4.394 0 0 1-4.399 4.392H26.363l-5.712-57.123z" fill="#E8E1CF"/><path d="M11.717 105.453v2.93h-2.93a2.93 2.93 0 0 0 2.93-2.93zm0-30.757a1.47 1.47 0 0 1 1.467-1.465h43.934c.81 0 1.467.656 1.467 1.465v30.75a2.936 2.936 0 0 1-2.932 2.936H11.717V74.696z" fill="#FFE67B"/><path d="M37.348 54.923c0-.806.652-1.46 1.458-1.464h17.59c.805 0 1.457.65 1.457 1.464 0 .807-.651 1.461-1.458 1.465h-17.59a1.457 1.457 0 0 1-1.457-1.465zm23.434 0c0-.809.66-1.464 1.471-1.464h5.845a1.465 1.465 0 1 1 0 2.929h-5.844a1.465 1.465 0 0 1-1.472-1.465zm-23.434-8.787c0-.81.655-1.465 1.46-1.465h8.797c.806 0 1.46.65 1.46 1.465 0 .809-.656 1.464-1.46 1.464h-8.797a1.459 1.459 0 0 1-1.46-1.464zm14.646 0c0-.807.652-1.461 1.458-1.465h17.59c.805 0 1.458.65 1.458 1.465 0 .806-.652 1.46-1.458 1.464h-17.59a1.457 1.457 0 0 1-1.458-1.464zM37.348 63.71c0-.81.652-1.465 1.465-1.465h23.433c.81 0 1.465.65 1.465 1.465 0 .81-.652 1.465-1.465 1.465H38.812a1.46 1.46 0 0 1-1.464-1.465z" fill="#827262"/></g><g transform="translate(0 200.29)" fill-rule="nonzero"><circle fill="#FFDC60" cx="58.585" cy="58.585" r="58.585"/><path d="M102.265 97.435l-4.352-15.078c-1.126-3.899-5.088-8.23-8.856-9.684l-20.073-7.758h-20.57l-20.279 7.771c-3.785 1.452-7.754 5.778-8.878 9.671l-4.352 15.078c10.729 11.996 26.319 19.556 43.68 19.556 17.36 0 32.951-7.56 43.68-19.556" fill="#FC0"/><path d="M58.585 76.893c15.829 0 20.138-24.475 20.138-35.308 0-10.833-9.016-19.616-20.138-19.616-11.122 0-20.139 8.783-20.139 19.616s4.31 35.308 20.139 35.308" fill="#FFF"/></g><g transform="matrix(1 0 0 -1 124.18 264.383)"><path d="M59.612 5.496a.996.996 0 0 0-.321-.726L54.623.384a1.155 1.155 0 0 0-1.196-.22c-.41.16-.677.534-.68.95a1 1 0 0 0 .32.73l3.89 3.654-3.89 3.654a.992.992 0 0 0 .004 1.458 1.145 1.145 0 0 0 1.552.002l4.668-4.386a.995.995 0 0 0 .318-.726l.003-.004z" fill="#7E7E7E" fill-rule="nonzero"/><path d="M8.06 5.508h43.967" stroke="#79818F" stroke-width="2" stroke-linecap="round" stroke-dasharray="4,4"/><ellipse fill="#7E7E7E" fill-rule="nonzero" cx="2.931" cy="5.508" rx="2.931" ry="2.754"/></g><g transform="matrix(-1 0 0 1 184.267 263.382)"><path d="M59.612 5.496a.996.996 0 0 0-.321-.726L54.623.384a1.155 1.155 0 0 0-1.196-.22c-.41.16-.677.534-.68.95a1 1 0 0 0 .32.73l3.89 3.654-3.89 3.654a.992.992 0 0 0 .004 1.458 1.145 1.145 0 0 0 1.552.002l4.668-4.386a.995.995 0 0 0 .318-.726l.003-.004z" fill="#A1B2E6" fill-rule="nonzero"/><path d="M8.06 5.508h43.967" stroke="#A1B2E6" stroke-width="2" stroke-linecap="round" stroke-dasharray="4,4"/><ellipse fill="#A1B2E6" fill-rule="nonzero" cx="2.931" cy="5.508" rx="2.931" ry="2.754"/></g><path d="M248.865 134.194c.277 0 .543.117.738.323l4.462 4.683c.298.317.385.79.223 1.2-.162.41-.542.68-.966.682a1.02 1.02 0 0 1-.742-.322l-3.717-3.901-3.717 3.901a1.018 1.018 0 0 1-1.484-.003 1.126 1.126 0 0 1-.309-.778c0-.292.11-.572.307-.779l4.462-4.683a1.02 1.02 0 0 1 .738-.32l.005-.003zm-.008 59.086a1.02 1.02 0 0 1-.74-.323l-4.46-4.683a1.146 1.146 0 0 1-.224-1.2c.162-.41.543-.679.966-.682.279 0 .547.116.743.322l3.716 3.902 3.717-3.902a1.018 1.018 0 0 1 1.484.003c.413.434.411 1.128.002 1.557l-4.462 4.683a1.02 1.02 0 0 1-.738.32l-.004.003z" fill="#7E7E7E" fill-rule="nonzero"/><path d="M249.361 184.267v-43.062" stroke="#79818F" stroke-width="2" stroke-linecap="round" stroke-dasharray="4,4"/><g transform="matrix(-1 0 0 1 374.543 263.382)"><path d="M59.612 5.496a.996.996 0 0 0-.321-.726L54.623.384a1.155 1.155 0 0 0-1.196-.22c-.41.16-.677.534-.68.95a1 1 0 0 0 .32.73l3.89 3.654-3.89 3.654a.992.992 0 0 0 .004 1.458 1.145 1.145 0 0 0 1.552.002l4.668-4.386a.995.995 0 0 0 .318-.726l.003-.004z" fill="#A1B2E6" fill-rule="nonzero"/><path d="M8.06 5.508h43.967" stroke="#A1B2E6" stroke-width="2" stroke-linecap="round" stroke-dasharray="4,4"/><ellipse fill="#A1B2E6" fill-rule="nonzero" cx="2.931" cy="5.508" rx="2.931" ry="2.754"/></g><g transform="matrix(1 0 0 -1 314.456 264.383)"><path d="M59.612 5.496a.996.996 0 0 0-.321-.726L54.623.384a1.155 1.155 0 0 0-1.196-.22c-.41.16-.677.534-.68.95a1 1 0 0 0 .32.73l3.89 3.654-3.89 3.654a.992.992 0 0 0 .004 1.458 1.145 1.145 0 0 0 1.552.002l4.668-4.386a.995.995 0 0 0 .318-.726l.003-.004z" fill="#7E7E7E" fill-rule="nonzero"/><path d="M8.06 5.508h43.967" stroke="#79818F" stroke-width="2" stroke-linecap="round" stroke-dasharray="4,4"/><ellipse fill="#7E7E7E" fill-rule="nonzero" cx="2.931" cy="5.508" rx="2.931" ry="2.754"/></g><g transform="matrix(-1 0 0 1 565.82 263.382)"><path d="M59.612 5.496a.996.996 0 0 0-.321-.726L54.623.384a1.155 1.155 0 0 0-1.196-.22c-.41.16-.677.534-.68.95a1 1 0 0 0 .32.73l3.89 3.654-3.89 3.654a.992.992 0 0 0 .004 1.458 1.145 1.145 0 0 0 1.552.002l4.668-4.386a.995.995 0 0 0 .318-.726l.003-.004z" fill="#A1B2E6" fill-rule="nonzero"/><path d="M8.06 5.508h43.967" stroke="#A1B2E6" stroke-width="2" stroke-linecap="round" stroke-dasharray="4,4"/><ellipse fill="#A1B2E6" fill-rule="nonzero" cx="2.931" cy="5.508" rx="2.931" ry="2.754"/></g><g transform="matrix(1 0 0 -1 505.733 264.383)"><path d="M59.612 5.496a.996.996 0 0 0-.321-.726L54.623.384a1.155 1.155 0 0 0-1.196-.22c-.41.16-.677.534-.68.95a1 1 0 0 0 .32.73l3.89 3.654-3.89 3.654a.992.992 0 0 0 .004 1.458 1.145 1.145 0 0 0 1.552.002l4.668-4.386a.995.995 0 0 0 .318-.726l.003-.004z" fill="#7E7E7E" fill-rule="nonzero"/><path d="M8.06 5.508h43.967" stroke="#79818F" stroke-width="2" stroke-linecap="round" stroke-dasharray="4,4"/><ellipse fill="#7E7E7E" fill-rule="nonzero" cx="2.931" cy="5.508" rx="2.931" ry="2.754"/></g><circle fill="#F6F5F3" fill-rule="nonzero" cx="248.861" cy="68.599" r="58.585"/><g fill-rule="nonzero"><g transform="translate(197.286 81.118)"><path d="M35.157 5.884C34.627 2.602 27.047 0 17.773 0 8.499 0 .919 2.602.388 5.884H.356v27.21H.39c.53 3.282 8.11 5.884 17.384 5.884 9.274 0 16.853-2.602 17.384-5.883h.032V5.884h-.032z" fill="#545E73"/><path d="M17.773 30.153c-9.62 0-17.417-2.799-17.417-6.251v9.193H.39c.53 3.28 8.11 5.883 17.384 5.883 9.274 0 16.853-2.602 17.384-5.883h.032v-9.193c0 3.452-7.797 6.251-17.416 6.251zM.356 23.534v.368c0-.124.013-.246.033-.368H.356zm34.8 0c.02.122.033.244.033.368v-.368h-.032z" fill="#5C8AE6"/><path d="M17.773 21.328c-9.62 0-17.417-2.8-17.417-6.251v9.193H.39c.53 3.28 8.11 5.883 17.384 5.883 9.274 0 16.853-2.603 17.384-5.883h.032v-9.193c0 3.452-7.797 6.25-17.416 6.25zM.356 14.708v.369c0-.124.013-.246.033-.368H.356zm34.8 0c.02.123.033.245.033.369v-.368h-.032z" fill="#A1B2E6"/><ellipse fill="#91BAE1" cx="17.773" cy="6.251" rx="17.417" ry="6.251"/><path d="M17.773 12.502c-9.62 0-17.417-2.799-17.417-6.25v9.192H.39c.53 3.281 8.11 5.884 17.384 5.884 9.274 0 16.853-2.603 17.384-5.884h.032V6.251c0 3.452-7.797 6.251-17.416 6.251zM.356 5.884v.367c0-.123.013-.245.033-.367H.356zm34.8 0c.02.122.033.244.033.367v-.367h-.032z" fill="#8697CB"/></g><g transform="translate(217.605 103.18)"><ellipse fill="#D0E8F9" cx="8.177" cy="7.94" rx="7.109" ry="7.204"/><path d="M10.755 1.231l-9.197 9.321a7.21 7.21 0 0 0 2.536 3.28l9.897-10.03a7.14 7.14 0 0 0-3.236-2.57z" fill="#EAF6FD"/><path d="M18.297 17.865l-4.333-4.592a7.958 7.958 0 0 0 2.047-5.333C16.01 3.562 12.497 0 8.177 0S.343 3.562.343 7.94s3.514 7.94 7.834 7.94a7.714 7.714 0 0 0 4.716-1.615l4.355 4.615a.72.72 0 0 0 1.026.024.74.74 0 0 0 .023-1.04zM1.794 7.94c0-3.567 2.863-6.47 6.383-6.47s6.383 2.903 6.383 6.47c0 3.567-2.863 6.469-6.383 6.469s-6.383-2.902-6.383-6.47z" fill="#B1D3EF"/></g></g><g fill-rule="nonzero"><path d="M232.304 30.08h-24.145c-2.124 0-3.863 1.717-3.863 3.815V50.1c0 2.097 1.739 3.813 3.863 3.813h.483c.531 0 2.414.239 2.898.763 1.449 1.144.386.477 2.414 2.097-.048-.047 2.414 2.193 2.414 0v-2.86h15.937c2.124 0 3.862-1.716 3.862-3.813V33.895c0-2.098-1.738-3.814-3.863-3.814z" fill="#B8D9F2"/><path d="M225.06 39.138h37.184c2.124 0 3.863 1.716 3.863 3.813v28.6c0 2.097-1.738 3.813-3.863 3.813h-19.799c-.531 0-2.415.238-2.897.763-1.45 1.144-3.284 2.384-5.313 4.004.05-.047-2.414 2.193-2.414 0v-4.767h-6.76c-2.125 0-3.864-1.716-3.864-3.813v-28.6c0-2.097 1.739-3.813 3.864-3.813z" fill="#55ACEE"/><path d="M254.517 51.007c-.772.333-1.641.524-2.51.62a4.096 4.096 0 0 0 1.93-2.194c-.82.477-1.786.763-2.752.954-.772-.763-1.931-1.24-3.186-1.24-2.415 0-4.347 1.764-4.347 3.956 0 .335.048.62.096.907-3.62-.143-6.856-1.764-8.98-4.148-.387.572-.58 1.288-.58 2.003 0 1.382.772 2.574 1.931 3.289a4.49 4.49 0 0 1-1.98-.477v.048c0 1.906 1.497 3.527 3.477 3.908a4.771 4.771 0 0 1-1.159.143c-.29 0-.531-.048-.82-.095.53 1.573 2.173 2.717 4.056 2.764a9.458 9.458 0 0 1-5.409 1.716c-.338 0-.676 0-1.062-.047 1.931 1.144 4.201 1.763 6.663 1.763 8.017 0 12.411-6.053 12.411-11.296v-.525c.917-.572 1.642-1.239 2.221-2.05z" fill="#FFF"/></g><g fill-rule="nonzero"><path d="M290.404 63.126h-37.109c-3.265 0-5.937 2.663-5.937 5.918v25.15c0 3.255 2.672 5.919 5.938 5.919h37.107c3.265 0 5.937-2.664 5.937-5.919v-25.15c0-3.255-2.671-5.918-5.936-5.918z" fill="#FF5F28"/><path d="M279.092 86.55h-1.499l.007-.868a.705.705 0 0 1 .707-.7h.096c.388 0 .704.313.706.7l-.017.867zm-5.62-1.86c-.379 0-.69.256-.69.568v4.217c0 .311.311.565.69.565.382 0 .693-.254.693-.565v-4.218c0-.311-.311-.566-.692-.566zm9.125-2.358v8.024c0 1.924-1.675 3.499-3.721 3.499h-15.302c-2.048 0-3.722-1.575-3.722-3.5v-8.023c0-1.925 1.674-3.5 3.722-3.5h15.302c2.046 0 3.72 1.575 3.72 3.5zm-18.003 8.895v-8.452h1.896v-1.252l-5.056-.008v1.23l1.578.006v8.475h1.582v.001zm5.686-7.193h-1.582v4.513c0 .653.04.98-.002 1.095-.128.35-.706.721-.931.037-.039-.119-.005-.48-.006-1.101l-.007-4.544h-1.573l.006 4.472c0 .686-.015 1.197.005 1.43.039.41.024.889.407 1.16.711.512 2.075-.075 2.417-.806l-.004.933 1.27.001v-7.19zm5.06 5.168l-.004-3.757c-.001-1.432-1.075-2.289-2.535-1.13l.008-2.794-1.581.003-.008 9.64 1.3-.02.118-.6c1.66 1.519 2.704.479 2.701-1.342zm4.95-.498l-1.187.006-.002.161v.66a.646.646 0 0 1-.649.64h-.231a.646.646 0 0 1-.65-.64v-1.736h2.716v-1.019c0-.744-.019-1.488-.081-1.913-.194-1.347-2.09-1.561-3.048-.872-.301.216-.53.504-.665.892-.133.387-.2.915-.2 1.587v2.24c0 3.723 4.537 3.197 3.997-.006zm-6.084-12.16c.082.198.209.358.381.48.17.118.387.178.647.178.228 0 .43-.061.606-.188.175-.126.323-.314.444-.565l-.03.618h1.762v-7.473h-1.387v5.816a.578.578 0 0 1-1.157 0v-5.816h-1.448v5.04c0 .642.011 1.07.03 1.288.021.215.071.422.152.622zm-5.342-4.22c0-.718.06-1.277.18-1.681a1.87 1.87 0 0 1 .648-.97c.311-.245.71-.368 1.195-.368.407 0 .757.08 1.05.237.292.157.518.36.675.613.16.252.268.512.327.778.06.269.088.676.088 1.223v1.89c0 .694-.028 1.203-.082 1.527a2.394 2.394 0 0 1-.347.908 1.646 1.646 0 0 1-.679.621c-.278.135-.596.2-.957.2-.401 0-.74-.055-1.018-.17a1.397 1.397 0 0 1-.65-.519 2.264 2.264 0 0 1-.33-.837c-.068-.327-.099-.818-.099-1.474v-1.978zm1.381 2.968c0 .423.316.769.701.769.384 0 .699-.345.699-.769v-3.978c0-.422-.315-.768-.699-.768-.385 0-.701.345-.701.768v3.978zm-4.879 2.009h1.663l.002-5.73 1.965-4.91h-1.819l-1.045 3.646-1.06-3.656h-1.799l2.09 4.922.003 5.729V77.3z" fill="#FFF"/></g><text fill="#B3B3B3" font-family="ChalkboardSE-Bold, Chalkboard SE" font-size="36" font-weight="bold"><tspan x="145.21" y="248.337">1</tspan></text><text fill="#B3B3B3" font-family="ChalkboardSE-Bold, Chalkboard SE" font-size="36" font-weight="bold"><tspan x="219.318" y="177.234">2</tspan></text><text fill="#B3B3B3" font-family="ChalkboardSE-Bold, Chalkboard SE" font-size="36" font-weight="bold"><tspan x="336.488" y="248.337">3</tspan></text><text fill="#B3B3B3" font-family="ChalkboardSE-Bold, Chalkboard SE" font-size="36" font-weight="bold"><tspan x="527.765" y="248.337">4</tspan></text><text fill="#A1B2E6" font-family="ChalkboardSE-Bold, Chalkboard SE" font-size="36" font-weight="bold"><tspan x="527.765" y="300.413">5</tspan></text></g></svg>