<svg width="20" height="20" viewBox="0 0 20 20" xmlns="http://www.w3.org/2000/svg"><title>trash-file</title><g fill="none" fill-rule="evenodd"><g opacity=".598"><path fill="#FC0" d="M10 0H0v20h16V6z"/><path fill="#E4A800" d="M10 0v6h6z"/></g><g transform="translate(10 7)" fill="#666"><path d="M1.733 4.333l.65 7.584h4.984l.65-7.584H1.733zM.811 3.25h8.128c.147 0 .26.121.247.27l-.77 9.21a.3.3 0 0 1-.29.27H1.624a.3.3 0 0 1-.29-.27l-.77-9.21a.246.246 0 0 1 .247-.27zM.538 1.083h8.674a.54.54 0 0 1 .538.542c0 .301-.24.542-.538.542H.538A.54.54 0 0 1 0 1.625c0-.301.24-.542.538-.542zM4.338 0h1.074c.306 0 .546.243.546.542v.541H3.792V.542c0-.302.244-.542.546-.542z"/><rect x="5.417" y="5.417" width="1.083" height="5.417" rx=".542"/><rect x="3.25" y="5.417" width="1.083" height="5.417" rx=".542"/></g></g></svg>