<svg width="940" height="448" viewBox="0 0 940 448" xmlns="http://www.w3.org/2000/svg"><title>chart</title><g fill="none" fill-rule="evenodd"><path fill="#FFF" fill-rule="nonzero" opacity=".4" d="M0 0h940v448H0z"/><g transform="translate(780 273)"><circle fill="#F6F5F3" fill-rule="nonzero" cx="80" cy="80" r="80"/><path d="M28 92h-4v-4a4 4 0 0 0 4 4zM8 92h61.997c1.106 0 2.003.902 2.003 1.993v50.002A4.006 4.006 0 0 1 67.997 148H12.003A4.009 4.009 0 0 1 8 143.995V92zm0-6.002C8 84.895 8.895 84 9.994 84h12.012c1.101 0 1.994.887 1.994 1.998V92H8v-6.002z" fill="#FC0" fill-rule="nonzero"/><path d="M24.362 47.98c-.2-2.198 1.428-3.98 3.64-3.98H120v82.003a5.995 5.995 0 0 1-5.997 5.997H32l-7.638-84.02z" fill="#FFF" fill-rule="nonzero"/><path d="M28.2 49.997c-.11-1.103.696-1.997 1.807-1.997H120v74.003a6 6 0 0 1-6.007 5.997H36l-7.8-78.003z" fill="#E8E1CF" fill-rule="nonzero"/><path d="M16 144v4h-4a4 4 0 0 0 4-4zm0-41.999c0-1.105.905-2.001 2.003-2.001h59.994c1.106 0 2.003.895 2.003 2.001v41.99A4.009 4.009 0 0 1 75.997 148H16v-45.999z" fill="#FFE67B" fill-rule="nonzero"/><text transform="translate(51 53)" font-size="36" font-family="Roboto-Bold, Roboto" fill="#827262" font-weight="bold"><tspan x="0" y="33">&lt;/&gt;</tspan></text></g><g transform="translate(520 273)" fill-rule="nonzero"><circle fill="#F6F5F3" cx="80" cy="80" r="80"/><path d="M28 92h-4v-4a4 4 0 0 0 4 4zM8 92h61.997c1.106 0 2.003.902 2.003 1.993v50.002A4.006 4.006 0 0 1 67.997 148H12.003A4.009 4.009 0 0 1 8 143.995V92zm0-6.002C8 84.895 8.895 84 9.994 84h12.012c1.101 0 1.994.887 1.994 1.998V92H8v-6.002z" fill="#FC0"/><path d="M24.362 47.98c-.2-2.198 1.428-3.98 3.64-3.98H120v82.003a5.995 5.995 0 0 1-5.997 5.997H32l-7.638-84.02z" fill="#FFF"/><path d="M28.2 49.997c-.11-1.103.696-1.997 1.807-1.997H120v74.003a6 6 0 0 1-6.007 5.997H36l-7.8-78.003z" fill="#E8E1CF"/><path d="M16 144v4h-4a4 4 0 0 0 4-4zm0-41.999c0-1.105.905-2.001 2.003-2.001h59.994c1.106 0 2.003.895 2.003 2.001v41.99A4.009 4.009 0 0 1 75.997 148H16v-45.999z" fill="#FFE67B"/><path d="M51 75a2 2 0 0 1 1.991-2H77.01c1.1 0 1.991.888 1.991 2a2 2 0 0 1-1.991 2H52.99A1.99 1.99 0 0 1 51 75zm32 0c0-1.105.902-2 2.009-2h7.982a2 2 0 1 1 0 4H85.01A2 2 0 0 1 83 75zM51 63c0-1.105.895-2 1.994-2h12.012c1.101 0 1.994.888 1.994 2 0 1.105-.895 2-1.994 2H52.994A1.992 1.992 0 0 1 51 63zm20 0a2 2 0 0 1 1.991-2H97.01c1.1 0 1.991.888 1.991 2a2 2 0 0 1-1.991 2H72.99A1.99 1.99 0 0 1 71 63zM51 87c0-1.105.89-2 2-2h32c1.105 0 2 .888 2 2 0 1.105-.89 2-2 2H53c-1.105 0-2-.888-2-2z" fill="#827262"/><g transform="translate(70 53)" fill="#E00"><circle cx="27" cy="39" r="8"/><circle cx="8" cy="21" r="8"/><circle cx="26" cy="8" r="8"/></g></g><g transform="translate(260 273)" fill-rule="nonzero"><circle fill="#F6F5F3" cx="80" cy="80" r="80"/><path d="M28 92h-4v-4a4 4 0 0 0 4 4zM8 92h61.997c1.106 0 2.003.902 2.003 1.993v50.002A4.006 4.006 0 0 1 67.997 148H12.003A4.009 4.009 0 0 1 8 143.995V92zm0-6.002C8 84.895 8.895 84 9.994 84h12.012c1.101 0 1.994.887 1.994 1.998V92H8v-6.002z" fill="#FC0"/><path d="M24.362 47.98c-.2-2.198 1.428-3.98 3.64-3.98H120v82.003a5.995 5.995 0 0 1-5.997 5.997H32l-7.638-84.02z" fill="#FFF"/><path d="M28.2 49.997c-.11-1.103.696-1.997 1.807-1.997H120v74.003a6 6 0 0 1-6.007 5.997H36l-7.8-78.003z" fill="#E8E1CF"/><path d="M16 144v4h-4a4 4 0 0 0 4-4zm0-41.999c0-1.105.905-2.001 2.003-2.001h59.994c1.106 0 2.003.895 2.003 2.001v41.99A4.009 4.009 0 0 1 75.997 148H16v-45.999z" fill="#FFE67B"/><path d="M51 75a2 2 0 0 1 1.991-2H77.01c1.1 0 1.991.888 1.991 2a2 2 0 0 1-1.991 2H52.99A1.99 1.99 0 0 1 51 75zm32 0c0-1.105.902-2 2.009-2h7.982a2 2 0 1 1 0 4H85.01A2 2 0 0 1 83 75zM51 63c0-1.105.895-2 1.994-2h12.012c1.101 0 1.994.888 1.994 2 0 1.105-.895 2-1.994 2H52.994A1.992 1.992 0 0 1 51 63zm20 0a2 2 0 0 1 1.991-2H97.01c1.1 0 1.991.888 1.991 2a2 2 0 0 1-1.991 2H72.99A1.99 1.99 0 0 1 71 63zM51 87c0-1.105.89-2 2-2h32c1.105 0 2 .888 2 2 0 1.105-.89 2-2 2H53c-1.105 0-2-.888-2-2z" fill="#827262"/></g><g transform="translate(0 273)" fill-rule="nonzero"><circle fill="#FFDC60" cx="80" cy="80" r="80"/><path d="M139.647 133.051l-5.943-20.589c-1.537-5.324-6.948-11.238-12.093-13.224L94.2 88.644H66.111L38.42 99.256c-5.169 1.982-10.589 7.89-12.124 13.206l-5.943 20.59c14.651 16.381 35.94 26.704 59.647 26.704s44.996-10.323 59.647-26.705" fill="#FC0"/><path d="M80 105c21.615 0 27.5-33.421 27.5-48.214S95.187 30 80 30 52.5 41.993 52.5 56.786C52.5 71.579 58.385 105 80 105" fill="#FFF"/></g><g transform="matrix(1 0 0 -1 169 362)"><path d="M81.352 7.983a1.49 1.49 0 0 0-.439-1.055l-6.37-6.37a1.504 1.504 0 0 0-2.56 1.061c0 .398.157.78.438 1.06l5.307 5.306-5.307 5.307a1.504 1.504 0 0 0 .004 2.118c.59.59 1.534.587 2.118.003l6.37-6.37a1.49 1.49 0 0 0 .435-1.054l.004-.006z" fill="#7E7E7E" fill-rule="nonzero"/><path d="M11 8h60" stroke="#79818F" stroke-width="2" stroke-linecap="round" stroke-dasharray="4,4"/><circle fill="#7E7E7E" fill-rule="nonzero" cx="4" cy="8" r="4"/></g><g transform="matrix(-1 0 0 1 251 360)"><path d="M81.352 7.983a1.49 1.49 0 0 0-.439-1.055l-6.37-6.37a1.504 1.504 0 0 0-2.56 1.061c0 .398.157.78.438 1.06l5.307 5.306-5.307 5.307a1.504 1.504 0 0 0 .004 2.118c.59.59 1.534.587 2.118.003l6.37-6.37a1.49 1.49 0 0 0 .435-1.054l.004-.006z" fill="#A1B2E6" fill-rule="nonzero"/><path d="M11 8h60" stroke="#A1B2E6" stroke-width="2" stroke-linecap="round" stroke-dasharray="4,4"/><circle fill="#A1B2E6" fill-rule="nonzero" cx="4" cy="8" r="4"/></g><path d="M340.017 182.648c.396 0 .776.158 1.055.439l6.37 6.37a1.504 1.504 0 0 1-1.061 2.56c-.398 0-.78-.157-1.06-.438l-5.306-5.307-5.307 5.307a1.504 1.504 0 0 1-2.118-.004 1.494 1.494 0 0 1-.003-2.118l6.37-6.37a1.49 1.49 0 0 1 1.054-.435l.006-.004zm-.011 80.369a1.49 1.49 0 0 1-1.055-.439l-6.37-6.37a1.504 1.504 0 0 1 1.061-2.56c.398 0 .78.157 1.06.438l5.306 5.307 5.307-5.307a1.504 1.504 0 0 1 2.118.004c.59.59.587 1.534.003 2.118l-6.37 6.37a1.49 1.49 0 0 1-1.054.435l-.006.004z" fill="#7E7E7E" fill-rule="nonzero"/><path d="M340 253v-60" stroke="#79818F" stroke-width="2" stroke-linecap="round" stroke-dasharray="4,4"/><g transform="matrix(-1 0 0 1 511 360)"><path d="M81.352 7.983a1.49 1.49 0 0 0-.439-1.055l-6.37-6.37a1.504 1.504 0 0 0-2.56 1.061c0 .398.157.78.438 1.06l5.307 5.306-5.307 5.307a1.504 1.504 0 0 0 .004 2.118c.59.59 1.534.587 2.118.003l6.37-6.37a1.49 1.49 0 0 0 .435-1.054l.004-.006z" fill="#A1B2E6" fill-rule="nonzero"/><path d="M11 8h60" stroke="#A1B2E6" stroke-width="2" stroke-linecap="round" stroke-dasharray="4,4"/><circle fill="#A1B2E6" fill-rule="nonzero" cx="4" cy="8" r="4"/></g><g transform="matrix(1 0 0 -1 429 362)"><path d="M81.352 7.983a1.49 1.49 0 0 0-.439-1.055l-6.37-6.37a1.504 1.504 0 0 0-2.56 1.061c0 .398.157.78.438 1.06l5.307 5.306-5.307 5.307a1.504 1.504 0 0 0 .004 2.118c.59.59 1.534.587 2.118.003l6.37-6.37a1.49 1.49 0 0 0 .435-1.054l.004-.006z" fill="#7E7E7E" fill-rule="nonzero"/><path d="M11 8h60" stroke="#79818F" stroke-width="2" stroke-linecap="round" stroke-dasharray="4,4"/><circle fill="#7E7E7E" fill-rule="nonzero" cx="4" cy="8" r="4"/></g><g transform="matrix(-1 0 0 1 772 360)"><path d="M81.352 7.983a1.49 1.49 0 0 0-.439-1.055l-6.37-6.37a1.504 1.504 0 0 0-2.56 1.061c0 .398.157.78.438 1.06l5.307 5.306-5.307 5.307a1.504 1.504 0 0 0 .004 2.118c.59.59 1.534.587 2.118.003l6.37-6.37a1.49 1.49 0 0 0 .435-1.054l.004-.006z" fill="#A1B2E6" fill-rule="nonzero"/><path d="M11 8h60" stroke="#A1B2E6" stroke-width="2" stroke-linecap="round" stroke-dasharray="4,4"/><circle fill="#A1B2E6" fill-rule="nonzero" cx="4" cy="8" r="4"/></g><g transform="matrix(1 0 0 -1 690 362)"><path d="M81.352 7.983a1.49 1.49 0 0 0-.439-1.055l-6.37-6.37a1.504 1.504 0 0 0-2.56 1.061c0 .398.157.78.438 1.06l5.307 5.306-5.307 5.307a1.504 1.504 0 0 0 .004 2.118c.59.59 1.534.587 2.118.003l6.37-6.37a1.49 1.49 0 0 0 .435-1.054l.004-.006z" fill="#7E7E7E" fill-rule="nonzero"/><path d="M11 8h60" stroke="#79818F" stroke-width="2" stroke-linecap="round" stroke-dasharray="4,4"/><circle fill="#7E7E7E" fill-rule="nonzero" cx="4" cy="8" r="4"/></g><circle fill="#F6F5F3" fill-rule="nonzero" cx="340" cy="93" r="80"/><g fill-rule="nonzero"><g transform="translate(268 110)"><path d="M48.446 8c-.731-4.462-11.175-8-23.955-8C11.711 0 1.267 3.538.535 8H.491v37h.045c.731 4.461 11.175 8 23.955 8 12.78 0 23.224-3.539 23.955-8h.045V8h-.045z" fill="#545E73"/><path d="M24.491 41c-13.255 0-24-3.806-24-8.5V45h.045c.731 4.461 11.175 8 23.955 8 12.78 0 23.224-3.539 23.955-8h.045V32.5c0 4.694-10.745 8.5-24 8.5zm-24-9v.5c0-.168.018-.334.045-.5H.491zm47.955 0c.027.166.045.332.045.5V32h-.045z" fill="#5C8AE6"/><path d="M24.491 29c-13.255 0-24-3.806-24-8.5V33h.045c.731 4.461 11.175 8 23.955 8 12.78 0 23.224-3.539 23.955-8h.045V20.5c0 4.694-10.745 8.5-24 8.5zm-24-9v.5c0-.168.018-.334.045-.5H.491zm47.955 0c.027.166.045.332.045.5V20h-.045z" fill="#A1B2E6"/><ellipse fill="#91BAE1" cx="24.491" cy="8.5" rx="24" ry="8.5"/><path d="M24.491 17c-13.255 0-24-3.806-24-8.5V21h.045c.731 4.461 11.175 8 23.955 8 12.78 0 23.224-3.539 23.955-8h.045V8.5c0 4.694-10.745 8.5-24 8.5zm-24-9v.5c0-.168.018-.334.045-.5H.491zm47.955 0c.027.166.045.332.045.5V8h-.045z" fill="#8697CB"/></g><g transform="translate(296 140)"><circle fill="#D0E8F9" cx="11.268" cy="10.796" r="9.796"/><path d="M14.821 1.674L2.147 14.348a9.823 9.823 0 0 0 3.495 4.459L19.28 5.17a9.818 9.818 0 0 0-4.459-3.496z" fill="#EAF6FD"/><path d="M25.213 24.291l-5.97-6.244a10.74 10.74 0 0 0 2.82-7.251C22.064 4.843 17.221 0 11.268 0S.472 4.843.472 10.796c0 5.953 4.843 10.796 10.796 10.796 2.442 0 4.689-.824 6.499-2.196l6.001 6.276a.997.997 0 0 0 1.414.032.999.999 0 0 0 .031-1.413zM2.472 10.796C2.472 5.946 6.418 2 11.268 2s8.796 3.946 8.796 8.796-3.946 8.796-8.796 8.796-8.796-3.946-8.796-8.796z" fill="#B1D3EF"/></g></g><g fill-rule="nonzero"><path d="M315.891 40.051h-32.665c-2.874 0-5.226 2.352-5.226 5.227V67.49c0 2.874 2.352 5.226 5.226 5.226h.654c.718 0 3.266.327 3.92 1.046 1.96 1.567.522.653 3.266 2.874-.065-.065 3.266 3.005 3.266 0v-3.92h21.56c2.874 0 5.226-2.352 5.226-5.226V45.278c0-2.875-2.352-5.227-5.227-5.227z" fill="#B8D9F2"/><path d="M306.092 52.464h50.304c2.874 0 5.226 2.352 5.226 5.226v39.198c0 2.875-2.351 5.227-5.226 5.227h-26.785c-.719 0-3.267.326-3.92 1.045-1.96 1.568-4.443 3.267-7.187 5.488.066-.065-3.266 3.005-3.266 0v-6.533h-9.146c-2.875 0-5.227-2.352-5.227-5.227V57.69c0-2.874 2.352-5.226 5.227-5.226z" fill="#55ACEE"/><path d="M345.943 68.731c-1.045.457-2.221.719-3.397.85a5.591 5.591 0 0 0 2.613-3.006c-1.11.653-2.417 1.045-3.724 1.307-1.045-1.046-2.613-1.699-4.311-1.699-3.267 0-5.88 2.417-5.88 5.422 0 .458.065.85.13 1.242-4.899-.196-9.276-2.417-12.15-5.684-.523.784-.785 1.764-.785 2.744 0 1.895 1.046 3.528 2.614 4.508-.98 0-1.895-.262-2.679-.654v.066c0 2.613 2.025 4.834 4.704 5.357-.513.13-1.04.195-1.568.196-.392 0-.719-.066-1.11-.13.718 2.155 2.94 3.723 5.487 3.788a12.682 12.682 0 0 1-7.317 2.352c-.457 0-.915 0-1.437-.065 2.613 1.568 5.684 2.417 9.015 2.417 10.845 0 16.79-8.297 16.79-15.483v-.719c1.241-.784 2.221-1.698 3.005-2.809z" fill="#FFF"/></g><g fill-rule="nonzero"><path d="M394.895 85.047h-49.91c-4.392 0-7.985 3.593-7.985 7.985v33.938c0 4.392 3.593 7.986 7.986 7.986h49.908c4.392 0 7.986-3.594 7.986-7.986V93.032c0-4.392-3.593-7.985-7.985-7.985z" fill="#FF5F28"/><path d="M379.681 116.654h-2.016l.01-1.17a.95.95 0 0 1 .95-.945h.129a.95.95 0 0 1 .95.945l-.023 1.17zm-7.558-2.508c-.51 0-.929.344-.929.765v5.691c0 .42.419.762.929.762.513 0 .932-.342.932-.762v-5.692c0-.42-.419-.764-.932-.764zm12.272-3.183v10.827c0 2.597-2.252 4.722-5.005 4.722h-20.58c-2.755 0-5.006-2.125-5.006-4.722v-10.827c0-2.597 2.251-4.723 5.005-4.723h20.581c2.753 0 5.005 2.126 5.005 4.723zm-24.213 12.003l-.001-11.405h2.55v-1.69l-6.8-.01v1.66l2.123.007v11.437h2.128v.001zm7.647-9.706h-2.127v6.09c0 .881.053 1.322-.003 1.477-.173.472-.95.973-1.253.05-.052-.16-.006-.648-.007-1.486l-.01-6.131h-2.115l.007 6.034c.001.926-.02 1.615.007 1.93.052.553.033 1.199.548 1.566.956.69 2.79-.102 3.25-1.088l-.005 1.258 1.708.002v-9.702zm6.805 6.974l-.004-5.07c-.002-1.932-1.447-3.089-3.41-1.525l.01-3.77-2.126.004-.01 13.007 1.747-.026.159-.81c2.234 2.05 3.638.646 3.634-1.81zm6.658-.672l-1.596.008-.003.217v.89a.87.87 0 0 1-.872.864h-.312a.87.87 0 0 1-.873-.864v-2.342h3.653v-1.375c0-1.004-.026-2.008-.11-2.582-.26-1.817-2.81-2.106-4.099-1.176-.405.291-.713.68-.894 1.203-.18.523-.27 1.235-.27 2.142v3.023c0 5.023 6.103 4.313 5.376-.008zm-8.182-16.409c.11.267.28.483.512.647.228.16.52.241.87.241.307 0 .579-.083.815-.254.236-.17.435-.424.597-.763l-.04.835h2.37V93.775h-1.866v7.848a.778.778 0 0 1-1.556 0v-7.848h-1.947v6.801c0 .866.015 1.444.041 1.737.028.291.095.57.204.84zm-7.185-5.695c0-.968.081-1.723.241-2.268a2.53 2.53 0 0 1 .872-1.309c.419-.33.956-.496 1.607-.496.548 0 1.019.108 1.412.319.393.212.698.487.909.827.216.34.36.691.44 1.05.08.363.118.913.118 1.651v2.55c0 .936-.038 1.624-.11 2.061-.07.436-.23.853-.467 1.225-.218.36-.535.651-.913.838-.374.182-.802.27-1.287.27-.54 0-.996-.074-1.37-.23a1.88 1.88 0 0 1-.874-.7c-.21-.31-.357-.688-.445-1.13-.09-.441-.132-1.104-.132-1.988v-2.67h-.001zm1.857 4.006c0 .57.425 1.037.943 1.037.517 0 .94-.466.94-1.037v-5.368c0-.57-.423-1.037-.94-1.037-.518 0-.943.466-.943 1.037v5.368zm-6.562 2.71h2.237l.002-7.733 2.643-6.625h-2.446l-1.406 4.921-1.425-4.934h-2.42l2.811 6.642.004 7.73v-.001z" fill="#FFF"/></g><text fill="#B3B3B3" font-family="ChalkboardSE-Bold, Chalkboard SE" font-size="36" font-weight="bold"><tspan x="198" y="333">1</tspan></text><text fill="#B3B3B3" font-family="ChalkboardSE-Bold, Chalkboard SE" font-size="36" font-weight="bold"><tspan x="300" y="236">2</tspan></text><text fill="#B3B3B3" font-family="ChalkboardSE-Bold, Chalkboard SE" font-size="36" font-weight="bold"><tspan x="459" y="333">3</tspan></text><text fill="#B3B3B3" font-family="ChalkboardSE-Bold, Chalkboard SE" font-size="36" font-weight="bold"><tspan x="720" y="333">4</tspan></text><text fill="#A1B2E6" font-family="ChalkboardSE-Bold, Chalkboard SE" font-size="36" font-weight="bold"><tspan x="720" y="405">5</tspan></text></g></svg>