<svg width="20" height="20" viewBox="0 0 20 20" xmlns="http://www.w3.org/2000/svg"><title>edit-file</title><g fill="none" fill-rule="evenodd"><g opacity=".6"><path fill="#FC0" d="M10 0H0v20h16V6z"/><path fill="#E4A800" d="M10 0v6h6z"/></g><path d="M15.93 11.965l-.96-.96-6.84 6.839v.96h.961l6.84-6.839zm-6.175 7.773a.77.77 0 0 1-.48.197H7.284A.281.281 0 0 1 7 19.65v-1.99c0-.158.09-.374.197-.481l7.565-7.566a.282.282 0 0 1 .398.004l2.157 2.157c.11.11.11.29.004.398l-7.566 7.565zm9.468-9.468l-.655.655a.284.284 0 0 1-.399-.003l-2.157-2.156a.283.283 0 0 1-.002-.399l.654-.655c.296-.278.58-.284.853 0l1.706 1.706c.287.284.278.578 0 .852z" fill="#666"/></g></svg>