<svg width="940" height="400" viewBox="0 0 940 400" xmlns="http://www.w3.org/2000/svg"><title>server-changes</title><g fill="none" fill-rule="evenodd"><path fill="#FFF" opacity=".4" d="M0 0h940v400H0z"/><path fill="#FC0" opacity=".602" d="M47 366H37v20h16v-14z"/><path fill="#E4A800" opacity=".597" d="M47 366v6h6z"/><path d="M49.5 386a6.5 6.5 0 1 1 0-13 6.5 6.5 0 0 1 0 13z" fill-opacity=".5" fill="#66AB3C"/><path d="M49.5 385.768a6.268 6.268 0 1 0 0-12.536 6.268 6.268 0 0 0 0 12.536zm0 .232a6.5 6.5 0 1 1 0-13 6.5 6.5 0 0 1 0 13z" fill="#66AB3C"/><path d="M49.03 379.03v-4.694a.47.47 0 1 1 .94 0v4.695h4.694a.47.47 0 1 1 0 .938h-4.695v4.695a.47.47 0 1 1-.938 0v-4.695h-4.695a.47.47 0 1 1 0-.938h4.695z" fill="#666"/><text font-family="YandexSansText-Regular, Yandex Sans Text" font-size="16" fill="#000" transform="translate(37 366)"><tspan x="29" y="18">routes.js</tspan></text><g opacity=".6"><path fill="#FC0" d="M46.5 338h-10v20h16v-14z"/><path fill="#E4A800" d="M46.5 338v6h6z"/></g><path d="M52.43 349.965l-.96-.96-6.84 6.839v.96h.961l6.84-6.839zm-6.175 7.773a.77.77 0 0 1-.48.197h-1.991a.281.281 0 0 1-.284-.284v-1.99c0-.158.09-.374.197-.481l7.565-7.566a.282.282 0 0 1 .398.004l2.157 2.157c.11.11.11.29.004.398l-7.566 7.565zm9.468-9.468l-.655.655a.284.284 0 0 1-.399-.003l-2.157-2.156a.283.283 0 0 1-.002-.399l.654-.655c.296-.278.58-.284.853 0l1.706 1.706c.287.284.278.578 0 .852z" fill="#666"/><text font-family="YandexSansText-Regular, Yandex Sans Text" font-size="16" fill="#000" transform="translate(36.5 338)"><tspan x="29.5" y="19">index.js</tspan></text><path fill="#FC0" opacity=".602" d="M47 282H37v20h16v-14z"/><path fill="#E4A800" opacity=".597" d="M47 282v6h6z"/><path d="M49.5 302a6.5 6.5 0 1 1 0-13 6.5 6.5 0 0 1 0 13z" fill-opacity=".5" fill="#66AB3C"/><path d="M49.5 301.768a6.268 6.268 0 1 0 0-12.536 6.268 6.268 0 0 0 0 12.536zm0 .232a6.5 6.5 0 1 1 0-13 6.5 6.5 0 0 1 0 13z" fill="#66AB3C"/><path d="M49.03 295.03v-4.694a.47.47 0 1 1 .94 0v4.695h4.694a.47.47 0 1 1 0 .938h-4.695v4.695a.47.47 0 1 1-.938 0v-4.695h-4.695a.47.47 0 1 1 0-.938h4.695z" fill="#666"/><text font-family="YandexSansText-Regular, Yandex Sans Text" font-size="16" fill="#000" transform="translate(37 282)"><tspan x="29" y="18">auth.js</tspan></text><path fill="#FC0" opacity=".602" d="M47 310H37v20h16v-14z"/><path fill="#E4A800" opacity=".597" d="M47 310v6h6z"/><path d="M49.5 330a6.5 6.5 0 1 1 0-13 6.5 6.5 0 0 1 0 13z" fill-opacity=".5" fill="#66AB3C"/><path d="M49.5 329.768a6.268 6.268 0 1 0 0-12.536 6.268 6.268 0 0 0 0 12.536zm0 .232a6.5 6.5 0 1 1 0-13 6.5 6.5 0 0 1 0 13z" fill="#66AB3C"/><path d="M49.03 323.03v-4.694a.47.47 0 1 1 .94 0v4.695h4.694a.47.47 0 1 1 0 .938h-4.695v4.695a.47.47 0 1 1-.938 0v-4.695h-4.695a.47.47 0 1 1 0-.938h4.695z" fill="#666"/><text font-family="YandexSansText-Regular, Yandex Sans Text" font-size="16" fill="#000" transform="translate(37 310)"><tspan x="29" y="18">config.json</tspan></text><path fill="#FC0" opacity=".602" d="M47 254H37v20h16v-14z"/><path fill="#E4A800" opacity=".597" d="M47 254v6h6z"/><path d="M49.5 274a6.5 6.5 0 1 1 0-13 6.5 6.5 0 0 1 0 13z" fill-opacity=".5" fill="#66AB3C"/><path d="M49.5 273.768a6.268 6.268 0 1 0 0-12.536 6.268 6.268 0 0 0 0 12.536zm0 .232a6.5 6.5 0 1 1 0-13 6.5 6.5 0 0 1 0 13z" fill="#66AB3C"/><path d="M49.03 267.03v-4.694a.47.47 0 1 1 .94 0v4.695h4.694a.47.47 0 1 1 0 .938h-4.695v4.695a.47.47 0 1 1-.938 0v-4.695h-4.695a.47.47 0 1 1 0-.938h4.695z" fill="#666"/><text font-family="YandexSansText-Regular, Yandex Sans Text" font-size="16" fill="#000" transform="translate(37 254)"><tspan x="29" y="18">app.js</tspan></text><g><path fill="#FC0" opacity=".602" d="M76 226H66v20h16v-14z"/><path fill="#E4A800" opacity=".597" d="M76 226v6h6z"/><path d="M78.5 246a6.5 6.5 0 1 1 0-13 6.5 6.5 0 0 1 0 13z" fill-opacity=".5" fill="#66AB3C"/><path d="M78.5 245.768a6.268 6.268 0 1 0 0-12.536 6.268 6.268 0 0 0 0 12.536zm0 .232a6.5 6.5 0 1 1 0-13 6.5 6.5 0 0 1 0 13z" fill="#66AB3C"/><path d="M78.03 239.03v-4.694a.47.47 0 1 1 .94 0v4.695h4.694a.47.47 0 1 1 0 .938h-4.695v4.695a.47.47 0 1 1-.938 0v-4.695h-4.695a.47.47 0 1 1 0-.938h4.695z" fill="#666"/><text font-family="YandexSansText-Regular, Yandex Sans Text" font-size="16" fill="#000" transform="translate(66 226)"><tspan x="25.5" y="18">auth.js</tspan></text></g><g><path fill="#FC0" d="M37 206h20v12H37z"/><path d="M37 204h19.008c.537 0 .992.448.992 1v1H37v-2zm.997-2h6.006c.544 0 .997.448.997 1v1h-8v-1c0-.556.446-1 .997-1z" fill="#E4A800"/><path d="M53.5 218a6.5 6.5 0 1 1 0-13 6.5 6.5 0 0 1 0 13z" fill-opacity=".5" fill="#66AB3C"/><path d="M53.5 217.768a6.268 6.268 0 1 0 0-12.536 6.268 6.268 0 0 0 0 12.536zm0 .232a6.5 6.5 0 1 1 0-13 6.5 6.5 0 0 1 0 13z" fill="#66AB3C"/><path d="M53.03 211.03v-4.694a.47.47 0 1 1 .94 0v4.695h4.694a.47.47 0 1 1 0 .938h-4.695v4.695a.47.47 0 1 1-.938 0v-4.695h-4.695a.47.47 0 1 1 0-.938h4.695z" fill="#666"/><text font-family="YandexSansText-Regular, Yandex Sans Text" font-size="16" fill="#000" transform="translate(37 199)"><tspan x="29" y="15">middleware</tspan></text></g><g><path fill="#FC0" opacity=".602" d="M76 169H66v20h16v-14z"/><path fill="#E4A800" opacity=".597" d="M76 169v6h6z"/><path d="M78.5 189a6.5 6.5 0 1 1 0-13 6.5 6.5 0 0 1 0 13z" fill-opacity=".5" fill="#66AB3C"/><path d="M78.5 188.768a6.268 6.268 0 1 0 0-12.536 6.268 6.268 0 0 0 0 12.536zm0 .232a6.5 6.5 0 1 1 0-13 6.5 6.5 0 0 1 0 13z" fill="#66AB3C"/><path d="M78.03 182.03v-4.694a.47.47 0 1 1 .94 0v4.695h4.694a.47.47 0 1 1 0 .938h-4.695v4.695a.47.47 0 1 1-.938 0v-4.695h-4.695a.47.47 0 1 1 0-.938h4.695z" fill="#666"/><text font-family="YandexSansText-Regular, Yandex Sans Text" font-size="16" fill="#000" transform="translate(66 169)"><tspan x="25.5" y="18">youtube.js</tspan></text></g><g><path fill="#FC0" opacity=".602" d="M76 141H66v20h16v-14z"/><path fill="#E4A800" opacity=".597" d="M76 141v6h6z"/><path d="M78.5 161a6.5 6.5 0 1 1 0-13 6.5 6.5 0 0 1 0 13z" fill-opacity=".5" fill="#66AB3C"/><path d="M78.5 160.768a6.268 6.268 0 1 0 0-12.536 6.268 6.268 0 0 0 0 12.536zm0 .232a6.5 6.5 0 1 1 0-13 6.5 6.5 0 0 1 0 13z" fill="#66AB3C"/><path d="M78.03 154.03v-4.694a.47.47 0 1 1 .94 0v4.695h4.694a.47.47 0 1 1 0 .938h-4.695v4.695a.47.47 0 1 1-.938 0v-4.695h-4.695a.47.47 0 1 1 0-.938h4.695z" fill="#666"/><text font-family="YandexSansText-Regular, Yandex Sans Text" font-size="16" fill="#000" transform="translate(66 141)"><tspan x="25.5" y="18">twitter.js</tspan></text></g><g><path fill="#FC0" opacity=".602" d="M76 113H66v20h16v-14z"/><path fill="#E4A800" opacity=".597" d="M76 113v6h6z"/><path d="M78.5 133a6.5 6.5 0 1 1 0-13 6.5 6.5 0 0 1 0 13z" fill-opacity=".5" fill="#66AB3C"/><path d="M78.5 132.768a6.268 6.268 0 1 0 0-12.536 6.268 6.268 0 0 0 0 12.536zm0 .232a6.5 6.5 0 1 1 0-13 6.5 6.5 0 0 1 0 13z" fill="#66AB3C"/><path d="M78.03 126.03v-4.694a.47.47 0 1 1 .94 0v4.695h4.694a.47.47 0 1 1 0 .938h-4.695v4.695a.47.47 0 1 1-.938 0v-4.695h-4.695a.47.47 0 1 1 0-.938h4.695z" fill="#666"/><text font-family="YandexSansText-Regular, Yandex Sans Text" font-size="16" fill="#000" transform="translate(66 113)"><tspan x="25.5" y="18">index.js</tspan></text></g><g><path fill="#FC0" d="M36.5 93h20v12h-20z"/><path d="M36.5 91h19.008c.537 0 .992.448.992 1v1h-20v-2zm.997-2h6.006c.544 0 .997.448.997 1v1h-8v-1c0-.556.446-1 .997-1z" fill="#E4A800"/><path d="M53 105a6.5 6.5 0 1 1 0-13 6.5 6.5 0 0 1 0 13z" fill-opacity=".5" fill="#66AB3C"/><path d="M53 104.768a6.268 6.268 0 1 0 0-12.536 6.268 6.268 0 0 0 0 12.536zm0 .232a6.5 6.5 0 1 1 0-13 6.5 6.5 0 0 1 0 13z" fill="#66AB3C"/><path d="M52.53 98.03v-4.694a.47.47 0 1 1 .94 0v4.695h4.694a.47.47 0 1 1 0 .938h-4.695v4.695a.47.47 0 1 1-.938 0v-4.695h-4.695a.47.47 0 1 1 0-.938h4.695z" fill="#666"/><text font-family="YandexSansText-Regular, Yandex Sans Text" font-size="16" fill="#000" transform="translate(36.5 86)"><tspan x="29.5" y="15">helpers</tspan></text></g><g><path fill="#FC0" opacity=".602" d="M76 61H66v20h16V67z"/><path fill="#E4A800" opacity=".597" d="M76 61v6h6z"/><path d="M78.5 81a6.5 6.5 0 1 1 0-13 6.5 6.5 0 0 1 0 13z" fill-opacity=".5" fill="#66AB3C"/><path d="M78.5 80.768a6.268 6.268 0 1 0 0-12.536 6.268 6.268 0 0 0 0 12.536zm0 .232a6.5 6.5 0 1 1 0-13 6.5 6.5 0 0 1 0 13z" fill="#66AB3C"/><path d="M78.03 74.03v-4.694a.47.47 0 1 1 .94 0v4.695h4.694a.47.47 0 1 1 0 .938h-4.695v4.695a.47.47 0 1 1-.938 0v-4.695h-4.695a.47.47 0 1 1 0-.938h4.695z" fill="#666"/><text font-family="YandexSansText-Regular, Yandex Sans Text" font-size="16" fill="#000" transform="translate(66 61)"><tspan x="25.5" y="18">index.js</tspan></text></g><g><path fill="#FC0" d="M36.5 41h20v12h-20z"/><path d="M36.5 39h19.008c.537 0 .992.448.992 1v1h-20v-2zm.997-2h6.006c.544 0 .997.448.997 1v1h-8v-1c0-.556.446-1 .997-1z" fill="#E4A800"/><path d="M53 53a6.5 6.5 0 1 1 0-13 6.5 6.5 0 0 1 0 13z" fill-opacity=".5" fill="#66AB3C"/><path d="M53 52.768a6.268 6.268 0 1 0 0-12.536 6.268 6.268 0 0 0 0 12.536zM53 53a6.5 6.5 0 1 1 0-13 6.5 6.5 0 0 1 0 13z" fill="#66AB3C"/><path d="M52.53 46.03v-4.694a.47.47 0 1 1 .94 0v4.695h4.694a.47.47 0 1 1 0 .938h-4.695v4.695a.47.47 0 1 1-.938 0v-4.695h-4.695a.47.47 0 1 1 0-.938h4.695z" fill="#666"/><text font-family="YandexSansText-Regular, Yandex Sans Text" font-size="16" fill="#000" transform="translate(36.5 37)"><tspan x="29.5" y="15">controllers</tspan></text></g><g><path fill="#FC0" d="M10 17h20v12H10z"/><path d="M10 15h19.008c.537 0 .992.448.992 1v1H10v-2zm.997-2h6.006c.544 0 .997.448.997 1v1h-8v-1c0-.556.446-1 .997-1z" fill="#E4A800"/><text font-family="YandexSansText-Regular, Yandex Sans Text" font-size="16" fill="#000" transform="translate(10 13)"><tspan x="26.5" y="15">server</tspan></text></g></g></svg>