<svg width="940" height="176" viewBox="0 0 940 176" xmlns="http://www.w3.org/2000/svg"><title>twitter-changes</title><g fill="none" fill-rule="evenodd"><path fill="#FFF" opacity=".4" d="M0 0h940v176H0z"/><g opacity=".6"><path fill="#FC0" d="M76 141H66v20h16v-14z"/><path fill="#E4A800" d="M76 141v6h6z"/></g><path d="M81.93 152.965l-.96-.96-6.84 6.839v.96h.961l6.84-6.839zm-6.175 7.773a.77.77 0 0 1-.48.197h-1.991a.281.281 0 0 1-.284-.284v-1.99c0-.158.09-.374.197-.481l7.565-7.566a.282.282 0 0 1 .398.004l2.157 2.157c.11.11.11.29.004.398l-7.566 7.565zm9.468-9.468l-.655.655a.284.284 0 0 1-.399-.003l-2.157-2.156a.283.283 0 0 1-.002-.399l.654-.655c.296-.278.58-.284.853 0l1.706 1.706c.287.284.278.578 0 .852z" fill="#666"/><text font-family="YandexSansText-Regular, Yandex Sans Text" font-size="16" fill="#000" transform="translate(66 141)"><tspan x="25.5" y="18">twitter.js</tspan></text><g opacity=".6"><path fill="#FC0" d="M76 113H66v20h16v-14z"/><path fill="#E4A800" d="M76 113v6h6z"/></g><path d="M81.93 124.965l-.96-.96-6.84 6.839v.96h.961l6.84-6.839zm-6.175 7.773a.77.77 0 0 1-.48.197h-1.991a.281.281 0 0 1-.284-.284v-1.99c0-.158.09-.374.197-.481l7.565-7.566a.282.282 0 0 1 .398.004l2.157 2.157c.11.11.11.29.004.398l-7.566 7.565zm9.468-9.468l-.655.655a.284.284 0 0 1-.399-.003l-2.157-2.156a.283.283 0 0 1-.002-.399l.654-.655c.296-.278.58-.284.853 0l1.706 1.706c.287.284.278.578 0 .852z" fill="#666"/><text font-family="YandexSansText-Regular, Yandex Sans Text" font-size="16" fill="#000" transform="translate(66 113)"><tspan x="25.5" y="18">index.js</tspan></text><path fill="#FC0" d="M36.5 93h20v12h-20z"/><path d="M36.5 91h19.008c.537 0 .992.448.992 1v1h-20v-2zm.997-2h6.006c.544 0 .997.448.997 1v1h-8v-1c0-.556.446-1 .997-1z" fill="#E4A800"/><text font-family="YandexSansText-Regular, Yandex Sans Text" font-size="16" fill="#000" transform="translate(36.5 86)"><tspan x="29.5" y="15">helpers</tspan></text><text font-family="YandexSansText-Regular, Yandex Sans Text" font-size="16" fill="#000" transform="translate(66 61)"><tspan x="25.5" y="18">index.js</tspan></text><g opacity=".6"><path fill="#FC0" d="M76 61H66v20h16V67z"/><path fill="#E4A800" d="M76 61v6h6z"/></g><path d="M81.93 72.965l-.96-.96-6.84 6.839v.96h.961l6.84-6.839zm-6.175 7.773a.77.77 0 0 1-.48.197h-1.991A.281.281 0 0 1 73 80.65v-1.99c0-.158.09-.374.197-.481l7.565-7.566a.282.282 0 0 1 .398.004l2.157 2.157c.11.11.11.29.004.398l-7.566 7.565zm9.468-9.468l-.655.655a.284.284 0 0 1-.399-.003l-2.157-2.156a.283.283 0 0 1-.002-.399l.654-.655c.296-.278.58-.284.853 0l1.706 1.706c.287.284.278.578 0 .852z" fill="#666"/><path fill="#FC0" d="M36.5 41h20v12h-20z"/><path d="M36.5 39h19.008c.537 0 .992.448.992 1v1h-20v-2zm.997-2h6.006c.544 0 .997.448.997 1v1h-8v-1c0-.556.446-1 .997-1z" fill="#E4A800"/><text font-family="YandexSansText-Regular, Yandex Sans Text" font-size="16" fill="#000" transform="translate(36.5 37)"><tspan x="29.5" y="15">controllers</tspan></text><g><path fill="#FC0" d="M10 17h20v12H10z"/><path d="M10 15h19.008c.537 0 .992.448.992 1v1H10v-2zm.997-2h6.006c.544 0 .997.448.997 1v1h-8v-1c0-.556.446-1 .997-1z" fill="#E4A800"/><text font-family="YandexSansText-Regular, Yandex Sans Text" font-size="16" fill="#000" transform="translate(10 13)"><tspan x="26.5" y="15">server</tspan></text></g></g></svg>