<svg width="19" height="20" viewBox="0 0 19 20" xmlns="http://www.w3.org/2000/svg"><title>add-file</title><g fill="none" fill-rule="evenodd"><path fill="#FC0" opacity=".602" d="M10 0H0v20h16V6z"/><path fill="#E4A800" opacity=".597" d="M10 0v6h6z"/><path d="M12.5 20a6.5 6.5 0 1 1 0-13 6.5 6.5 0 0 1 0 13z" fill-opacity=".5" fill="#66AB3C"/><path d="M12.5 19.768a6.268 6.268 0 1 0 0-12.536 6.268 6.268 0 0 0 0 12.536zm0 .232a6.5 6.5 0 1 1 0-13 6.5 6.5 0 0 1 0 13z" fill="#66AB3C"/><path d="M12.03 13.03V8.337a.47.47 0 1 1 .94 0v4.695h4.694a.47.47 0 1 1 0 .938h-4.695v4.695a.47.47 0 1 1-.938 0V13.97H7.336a.47.47 0 1 1 0-.938h4.695z" fill="#666"/></g></svg>