<svg width="940" height="480" viewBox="0 0 940 480" xmlns="http://www.w3.org/2000/svg"><title>bemhtml</title><g fill="none" fill-rule="evenodd"><path fill="#FFF" fill-rule="nonzero" opacity=".4" d="M0 0h940v480H0z"/><path fill="#FFE67B" fill-rule="nonzero" d="M110.252 378.206H74.607v71.29h57.032v-49.903z"/><path fill="#FC0" fill-rule="nonzero" d="M110.252 378.206v21.387h21.387z"/><text transform="translate(80.47 452.485)" font-size="16" font-family="YandexSansText-Regular, Yandex Sans Text" fill="#000"><tspan x=".9" y="15.918">HTML</tspan></text><text transform="translate(86.47 404.485)" font-size="24" font-family="Roboto-Bold, Roboto" fill="#827262" font-weight="bold"><tspan x=".53" y="22.915">&lt;/&gt;</tspan></text><g transform="matrix(0 1 1 0 95 315)"><path d="M55.352 7.983a1.49 1.49 0 0 0-.439-1.055l-6.37-6.37a1.504 1.504 0 0 0-2.56 1.061c0 .398.157.78.438 1.06l5.307 5.306-5.307 5.307a1.504 1.504 0 0 0 .004 2.118c.59.59 1.534.587 2.118.003l6.37-6.37a1.49 1.49 0 0 0 .435-1.054l.004-.006z" fill="#7E7E7E" fill-rule="nonzero"/><path d="M11 8h39" stroke="#79818F" stroke-width="2" stroke-linecap="round" stroke-dasharray="4,4"/><circle fill="#7E7E7E" fill-rule="nonzero" cx="4" cy="8" r="4"/></g><g transform="matrix(0 1 1 0 95 130)"><path d="M55.352 7.983a1.49 1.49 0 0 0-.439-1.055l-6.37-6.37a1.504 1.504 0 0 0-2.56 1.061c0 .398.157.78.438 1.06l5.307 5.306-5.307 5.307a1.504 1.504 0 0 0 .004 2.118c.59.59 1.534.587 2.118.003l6.37-6.37a1.49 1.49 0 0 0 .435-1.054l.004-.006z" fill="#7E7E7E" fill-rule="nonzero"/><path d="M11 8h39" stroke="#79818F" stroke-width="2" stroke-linecap="round" stroke-dasharray="4,4"/><circle fill="#7E7E7E" fill-rule="nonzero" cx="4" cy="8" r="4"/></g><path fill="#FFE67B" fill-rule="nonzero" d="M110.252 192.907H74.607v71.29h57.032v-49.903z"/><path fill="#FC0" fill-rule="nonzero" d="M110.252 192.907v21.387h21.387z"/><g font-size="16" font-family="YandexSansText-Regular, Yandex Sans Text" fill="#000"><text transform="translate(68.967 267.907)"><tspan x=".248" y="15.197">Template</tspan></text><text transform="translate(68.967 267.907)"><tspan x="9.224" y="34.197">Engine</tspan></text></g><path d="M98.345 240.92h-3.137c-1.156 0-2.217-.8-2.526-1.9l-.862-3.078c-.656-.3-1.284-.661-1.874-1.077l-3.144.805c-1.096.281-2.368-.248-2.93-1.209l-1.57-2.68c-.578-.987-.407-2.294.406-3.107l2.312-2.317c-.06-.687-.06-1.379 0-2.066l-2.313-2.317c-.812-.814-.983-2.121-.403-3.108l1.568-2.68c.562-.96 1.833-1.486 2.929-1.207l3.145.805a11.77 11.77 0 0 1 1.874-1.077l.862-3.079c.309-1.1 1.37-1.898 2.526-1.898h3.137c1.156 0 2.217.798 2.525 1.898l.863 3.079c.656.3 1.282.66 1.873 1.077l3.145-.805c1.096-.28 2.369.248 2.93 1.208l1.57 2.68a2.6 2.6 0 0 1-.407 3.108l-2.311 2.316c.06.687.06 1.379 0 2.066l2.313 2.318c.812.814.982 2.12.404 3.107l-1.569 2.68c-.562.96-1.833 1.49-2.929 1.208l-3.146-.805a11.76 11.76 0 0 1-1.873 1.077l-.863 3.079c-.308 1.1-1.37 1.898-2.525 1.898v.001zm-2.724-3.12h2.31l1.17-4.174.746-.282a8.624 8.624 0 0 0 2.404-1.383l.622-.507 4.277 1.095 1.155-1.974-3.117-3.125.123-.776a8.6 8.6 0 0 0 0-2.7l-.123-.775 3.117-3.125-1.155-1.975-4.277 1.095-.622-.507a8.662 8.662 0 0 0-2.404-1.383l-.746-.281-1.17-4.174h-2.31l-1.169 4.174-.746.281a8.662 8.662 0 0 0-2.404 1.383l-.622.507-4.277-1.095-1.155 1.975 3.117 3.125-.123.776a8.6 8.6 0 0 0 0 2.7l.123.775-3.117 3.125 1.155 1.974 4.277-1.095.622.507a8.624 8.624 0 0 0 2.404 1.383l.746.282 1.169 4.174zm1.155-7.797a4.679 4.679 0 1 1 0-9.357 4.679 4.679 0 0 1 0 9.357zm1.56-4.679a1.56 1.56 0 1 0-3.12 0 1.56 1.56 0 0 0 3.12 0z" fill="#666" fill-rule="nonzero"/><path d="M119.694 267.622h-3.706c-1.365 0-2.619-.943-2.983-2.243l-1.019-3.636a13.93 13.93 0 0 1-2.213-1.273l-3.715.952c-1.294.332-2.797-.293-3.46-1.428l-1.855-3.167c-.682-1.165-.48-2.708.48-3.669l2.731-2.737a13.973 13.973 0 0 1 0-2.44l-2.733-2.738c-.958-.961-1.16-2.505-.476-3.671l1.853-3.166c.663-1.133 2.165-1.755 3.46-1.425l3.715.951a13.93 13.93 0 0 1 2.213-1.273l1.019-3.636c.364-1.3 1.619-2.243 2.983-2.243h3.706c1.365 0 2.619.943 2.983 2.243l1.018 3.636a13.93 13.93 0 0 1 2.214 1.273l3.714-.951c1.295-.331 2.798.292 3.461 1.426l1.854 3.167c.683 1.166.481 2.71-.48 3.67l-2.73 2.737c.071.812.071 1.628 0 2.44l2.732 2.738c.96.961 1.16 2.505.477 3.67l-1.853 3.166c-.664 1.133-2.165 1.76-3.46 1.427l-3.715-.952a13.93 13.93 0 0 1-2.214 1.273l-1.018 3.636c-.364 1.3-1.619 2.243-2.983 2.243zm-3.218-3.684h2.73l1.38-4.93.882-.334a10.187 10.187 0 0 0 2.84-1.634l.734-.598 5.052 1.294 1.365-2.333-3.682-3.691.146-.917a10.158 10.158 0 0 0 0-3.188l-.146-.917 3.682-3.691-1.365-2.332-5.052 1.293-.734-.599a10.232 10.232 0 0 0-2.84-1.634l-.881-.332-1.381-4.93h-2.73l-1.38 4.93-.882.332c-1.028.389-1.987.94-2.84 1.634l-.735.599-5.051-1.293-1.365 2.332 3.682 3.691-.146.917a10.158 10.158 0 0 0 0 3.188l.146.917-3.682 3.691 1.365 2.333 5.051-1.294.735.598a10.187 10.187 0 0 0 2.84 1.634l.881.334 1.381 4.93zm1.365-9.21a5.526 5.526 0 1 1 0-11.051 5.526 5.526 0 0 1 0 11.05v.001zm1.842-5.527a1.842 1.842 0 1 0-3.684 0 1.842 1.842 0 0 0 3.684 0z" fill="#827262" fill-rule="nonzero"/><path fill="#FFE67B" fill-rule="nonzero" d="M111.067 10H75.422v71.29h57.032V31.387z"/><path fill="#FC0" fill-rule="nonzero" d="M111.067 10v21.387h21.387z"/><g font-size="16" font-family="YandexSansText-Regular, Yandex Sans Text" fill="#000"><text transform="translate(66.398 85)"><tspan x="14.156" y="15.45">Result</tspan></text><text transform="translate(66.398 85)"><tspan x=".196" y="34.45">BEMJSON</tspan></text></g><path d="M88.343 50.546c0-.738.601-1.336 1.33-1.336h16.053a1.337 1.337 0 0 1 0 2.673H89.673a1.33 1.33 0 0 1-1.33-1.337zm21.387 0a1.34 1.34 0 0 1 1.342-1.336h5.335a1.337 1.337 0 0 1 0 2.673h-5.334a1.337 1.337 0 0 1-1.343-1.337zm-21.387-8.02c0-.738.598-1.336 1.333-1.336h8.028a1.33 1.33 0 0 1 1.332 1.336c0 .739-.598 1.337-1.332 1.337h-8.028a1.331 1.331 0 0 1-1.333-1.337zm13.367 0c0-.738.601-1.336 1.33-1.336h16.053a1.337 1.337 0 0 1 0 2.673H103.04a1.33 1.33 0 0 1-1.33-1.337zm-13.367 16.04c0-.738.595-1.336 1.337-1.336h21.386c.739 0 1.337.593 1.337 1.336 0 .739-.595 1.337-1.337 1.337H89.68a1.333 1.333 0 0 1-1.337-1.337z" fill="#827262" fill-rule="nonzero"/></g></svg>