<svg width="786" height="340" viewBox="0 0 786 340" xmlns="http://www.w3.org/2000/svg" style="background:#fff"><title>build__decl__search-form__tech</title><g fill="none" fill-rule="evenodd"><ellipse cx="14.173" cy="36.271" rx="14.173" ry="35.433" transform="translate(457.014 160.965)" stroke="#000" fill="#FFF"/><ellipse cx="14.173" cy="36.271" rx="14.173" ry="35.433" transform="translate(315.848 160.965)" stroke="#000" fill="#FFF"/><text transform="translate(32.712 21.355)" font-size="16" font-family="Helvetica-Bold, Helvetica" fill="#000" font-weight="bold"><tspan x=".49" y="15.33">Source files</tspan></text><path d="M109.773 102.752l.034 12" stroke="#000" stroke-width="1.5" fill="#000"/><text transform="translate(96.988 83.717)" font-size="16" font-family="Helvetica" fill="#000"><tspan x=".42" y="15.33">blocks/</tspan></text><text transform="translate(32.484 55.371)" font-size="16" font-family="Helvetica" fill="#000"><tspan x=".14" y="15.33">project/</tspan></text><path d="M75.886 94.244h19.84M75.89 82.91v11.34m-.146 86.451h19.84m-19.836-10.768v11.34" stroke="#000" stroke-width="1.5" fill="#000"/><text transform="translate(97.673 171.938)" font-size="16" font-family="Helvetica" fill="#000"><tspan x=".05" y="15.83">lib/</tspan></text><path d="M98.563 217.554h85.039V245.9H98.563z"/><path d="M109.905 192.043v62.36m.148-50.892h14.17" stroke="#000" stroke-width="1.5" fill="#000"/><text transform="translate(127.528 192.922)" font-size="16" font-family="Helvetica" fill="#000"><tspan x=".87" y="15.25">button/</tspan></text><text transform="translate(159.276 209.929)" font-size="16" font-family="Helvetica" fill="#000"><tspan x=".38" y="15.25">button.css</tspan></text><text transform="translate(159.008 226.355)" font-size="16" font-family="Helvetica" fill="#F66"><tspan x=".52" y="15.83">button.bemhtml.js</tspan></text><path d="M141.103 220.377h14.17m-14.17 17.008h14.17m-14.166-24.807v24.81" stroke="#000" stroke-width="1.5" fill="#000"/><text transform="translate(128.546 102.622)" font-size="16" font-family="Helvetica" fill="#F66"><tspan x=".55" y="15.83">search-form/</tspan></text><text transform="translate(159.292 119.63)" font-size="16" font-family="Helvetica" fill="#F66"><tspan x=".98" y="15.83">search-form.bemhtml.js</tspan></text><path d="M109.77 114.22h14.17m16.879 16.441h14.17m-14.166-7.233v24.81m-.004.131h14.17" stroke="#000" stroke-width="1.5" fill="#000"/><text transform="translate(159.591 136.772)" font-size="16" font-family="Helvetica" fill="#F66"><tspan x=".54" y="15.83">search-form.deps.js</tspan></text><path d="M109.77 254.535h14.17" stroke="#000" stroke-width="1.5" fill="#000"/><text transform="translate(127.707 243.945)" font-size="16" font-family="Helvetica" fill="#000"><tspan x=".59" y="15.25">input/</tspan></text><text transform="translate(159.455 260.953)" font-size="16" font-family="Helvetica" fill="#000"><tspan x=".1" y="15.25">input.css</tspan></text><text transform="translate(158.856 277.945)" font-size="16" font-family="Helvetica" fill="#F66"><tspan x=".72" y="15.83">input.bemhtml.js</tspan></text><path d="M140.819 271.401h14.17m-14.17 17.008h14.17m-14.166-24.807v24.81" stroke="#000" stroke-width="1.5" fill="#000"/><path d="M590.338 308.547c-.81 0-1.46-.65-1.46-1.46v-58.16c0-.81.65-1.46 1.46-1.46h37.59c.37 0 .75.15 1.03.43l8.13 8.14c.28.28.44.65.44 1.03v50.05c0 .81-.66 1.46-1.47 1.46h-45.72v-.03z" fill="#FFF"/><path d="M627.895 248.09c.22 0 .44.09.59.25l8.14 8.13c.15.16.25.38.25.59v50.06c0 .46-.38.84-.84.84h-45.69c-.47 0-.84-.38-.84-.84v-58.19c0-.47.37-.84.84-.84h37.55zm0-1.25h-37.55c-1.16 0-2.09.94-2.09 2.09v58.19c0 1.15.93 2.08 2.09 2.08h45.72c1.15 0 2.09-.93 2.09-2.08v-50.06c0-.56-.22-1.09-.63-1.46l-8.13-8.13c-.41-.41-.94-.63-1.5-.63z" fill="#12100B"/><text transform="translate(605.255 292.083)" font-size="12" font-family="ArialMT, Arial" fill="#000"><tspan x=".52" y="11.79">JS</tspan></text><path d="M627.742 247.467v7.7c0 1.15.93 2.08 2.09 2.08h7.66l-9.75-9.78z" fill="#FFCC09"/><path d="M627.742 247.467v7.7c0 1.15.93 2.08 2.09 2.08h7.66" stroke="#010202" stroke-width="1.25"/><path d="M595.173 260.001h36.06m-36.06 3.796h36.06m-36.06 3.796h36.06m-36.06 3.795h36.06m-36.06 3.796h26.57" stroke="#010202" stroke-width="1.5" fill="#000"/><g stroke="#FC0" stroke-width="1.5"><path d="M298.167 237.714c3.242-.608 7.976-3.578 13.159-8.256 5.183-4.678 10.391-10.681 14.479-16.689" stroke-dasharray="12,5.999999999999998"/><path d="M326.144 211.82l.322-.527m-3.074 10.779l3.074-10.78-8.193 7.65" stroke-linecap="square"/></g><path d="M330.632 161.831h139.94M330.247 232.66h140.72" stroke="#000" stroke-width="1.5" fill="#000"/><path d="M449.819 162.54h21.51v69.392h-21.51z" fill="#FFF"/><path d="M369.14 181.644h62.362v28.346H369.14z"/><text fill="#000" font-family="Helvetica-Bold, Helvetica" font-size="16" font-weight="bold" transform="translate(369.14 181.287)"><tspan x="13.24" y="19.33">Build</tspan></text><text transform="translate(648.291 105.413)" font-size="16" font-family="Helvetica" fill="#000"><tspan x=".19" y="15.83">project.deps.js</tspan></text><text transform="translate(647.591 266.988)" font-size="16" font-family="Helvetica" fill="#000"><tspan x=".98" y="15.83">project.bemhtml.js</tspan></text><g stroke="#000" stroke-width="1.5"><path d="M494.183 189.87c8.454 1.147 22.388-2.36 38.736-9.75 16.347-7.39 33.77-18.056 48.432-29.653"/><path d="M581.753 149.596l.46-.412m-6.048 9.437l6.048-9.437-10.049 4.966" stroke-linecap="square"/></g><g stroke="#FC0" stroke-width="1.5"><path d="M494.324 204.318c8.396-.855 22.282 2.786 38.601 10.122 16.32 7.336 33.738 17.766 48.422 28.996" stroke-dasharray="12,6"/><path d="M582.24 243.094l.53.315m-10.818-2.937l10.818 2.937-7.753-8.095" stroke-linecap="square"/></g><text transform="translate(586.866 21.695)" font-size="16" font-family="Helvetica-Bold, Helvetica" fill="#000" font-weight="bold"><tspan x=".01" y="15.33">Bundles</tspan></text><text transform="translate(356.121 20.854)" font-size="16" font-family="Helvetica-Bold, Helvetica" fill="#000" font-weight="bold"><tspan x=".17" y="15.74">Declaration</tspan></text><text transform="translate(356.37 55.925)" font-size="16" font-family="Helvetica" fill="#F66"><tspan x="0" y="15.16">search-form</tspan></text><path d="M400 86.5v61.994m-3-10.8l3 10.8 3-10.8" stroke="#000" stroke-width="1.5"/><path d="M590.213 146.848c-.81 0-1.46-.65-1.46-1.46v-58.16c0-.81.65-1.46 1.46-1.46h37.59c.37 0 .75.15 1.03.43l8.13 8.14c.28.28.44.65.44 1.03v50.05c0 .81-.66 1.46-1.47 1.46h-45.72v-.03z" fill="#FFF"/><path d="M627.77 86.391c.22 0 .44.09.59.25l8.14 8.13c.15.16.25.38.25.59v50.06c0 .46-.38.84-.84.84h-45.69c-.47 0-.84-.38-.84-.84v-58.19c0-.47.37-.84.84-.84h37.55zm0-1.25h-37.55c-1.16 0-2.09.94-2.09 2.09v58.19c0 1.15.93 2.08 2.09 2.08h45.72c1.15 0 2.09-.93 2.09-2.08v-50.06c0-.56-.22-1.09-.63-1.46l-8.13-8.13c-.41-.41-.94-.63-1.5-.63z" fill="#12100B"/><text transform="translate(605.13 130.384)" font-size="12" font-family="ArialMT, Arial" fill="#000"><tspan x=".52" y="11.79">JS</tspan></text><path d="M627.617 85.768v7.7c0 1.15.93 2.08 2.09 2.08h7.66l-9.75-9.78z" fill="#FFCC09"/><path d="M627.617 85.768v7.7c0 1.15.93 2.08 2.09 2.08h7.66" stroke="#010202" stroke-width="1.25"/><path d="M595.048 98.302h36.06m-36.06 3.796h36.06m-36.06 3.796h36.06m-36.06 3.796h36.06m-36.06 3.795h26.57" stroke="#010202" stroke-width="1.5" fill="#000"/><g stroke="#FC0" stroke-width="1.5"><path d="M288.246 287.603c13.13-6.148 32.99-35.463 44.36-65.478" stroke-dasharray="12,6"/><path d="M333.172 219.945l.187-.588m-.411 11.201l.41-11.201-6.129 9.385" stroke-linecap="square"/></g><g stroke="#FC0" stroke-width="1.5"><path d="M312.621 141.618c.273 3.226 2.566 8.42 6.376 14.437 3.81 6.019 8.824 12.368 13.939 17.653" stroke-dasharray="12,6"/><path d="M333.723 174.113l.465.406m-10.105-4.851l10.105 4.851-6.155-9.368" stroke-linecap="square"/></g><g stroke="#000" stroke-width="1.5"><path d="M298.449 158.625c2.421 6.145 15.236 15.307 28.626 20.466"/><path d="M328.506 180l.584.26m-11.086-1.656l11.086 1.656-8.644-7.137" stroke-linecap="square"/></g></g></svg>