<?xml version="1.0" encoding="UTF-8"?>
<svg width="1102px" height="80px" viewBox="0 0 1102 80" version="1.1" xmlns="http://www.w3.org/2000/svg" xmlns:xlink="http://www.w3.org/1999/xlink">
    <!-- Generator: Sketch 44.1 (41455) - http://www.bohemiancoding.com/sketch -->
    <title>Group 2</title>
    <desc>Created with Sketch.</desc>
    <defs>
        <linearGradient x1="50%" y1="0%" x2="50%" y2="100%" id="linearGradient-1">
            <stop stop-color="#FFDF3A" stop-opacity="0.5" offset="0%"></stop>
            <stop stop-color="#000000" stop-opacity="0.5" offset="100%"></stop>
        </linearGradient>
        <path d="M1.5,0.441860465 L1.5,19 M0,17.443919 L1.5,19 L3,17.443919 M0,1.76744186 L1.5,0.211360814 L3,1.76744186" id="path-2"></path>
        <path d="M1.5,1.51162791 L1.5,65 M0,59.6765648 L1.5,65 L3,59.6765648 M0,6.04651163 L1.5,0.72307647 L3,6.04651163" id="path-3"></path>
        <linearGradient x1="50%" y1="0%" x2="50%" y2="100%" id="linearGradient-4">
            <stop stop-color="#FFFFFF" stop-opacity="0.5" offset="0%"></stop>
            <stop stop-color="#000000" stop-opacity="0.5" offset="100%"></stop>
        </linearGradient>
        <path d="M1.5,0.162790698 L1.5,7 M0,6.42670698 L1.5,7 L3,6.42670698 M0,0.651162791 L1.5,0.0778697737 L3,0.651162791" id="path-5"></path>
        <path d="M1.5,0.139534884 L1.5,6 M0,5.50860599 L1.5,6 L3,5.50860599 M0,0.558139535 L1.5,0.0667455203 L3,0.558139535" id="path-6"></path>
        <path d="M1.5,0.279069767 L1.5,12 M0,11.017212 L1.5,12 L3,11.017212 M0,1.11627907 L1.5,0.133491041 L3,1.11627907" id="path-7"></path>
        <path d="M1.5,0.279069767 L1.5,12 M0,11.017212 L1.5,12 L3,11.017212 M0,1.11627907 L1.5,0.133491041 L3,1.11627907" id="path-8"></path>
    </defs>
    <g id="Page-4" stroke="none" stroke-width="1" fill="none" fill-rule="evenodd">
        <g id="Group-2" transform="translate(-15.000000, -20.000000)">
            <rect id="border" stroke="#FFDF3A" opacity="0.839628623" x="15.5" y="20.5" width="1101" height="71"></rect>
            <g id="User" transform="translate(977.000000, 46.000000)" font-size="15" font-family="ArialMT, Arial" font-weight="normal">
                <text id="User-block">
                    <tspan x="0" y="14" fill="#FF0000">U</tspan>
                    <tspan x="10.8325195" y="14" fill="#0D0D0D">ser block</tspan>
                </text>
            </g>
            <rect id="Rectangle" stroke="#DCD3D3" opacity="0.372056159" x="41.5" y="34.5" width="102" height="43"></rect>
            <rect id="Rectangle" stroke="#DCD3D3" opacity="0.372056159" x="184.5" y="34.5" width="656" height="43"></rect>
            <rect id="Rectangle" stroke="#DCD3D3" opacity="0.372056159" x="912.5" y="30.5" width="182" height="52"></rect>
            <text id="Logo-block" font-family="ArialMT, Arial" font-size="14" font-weight="normal" fill="#000000">
                <tspan x="59" y="61">Logo block</tspan>
            </text>
            <text id="Search-block" font-family="ArialMT, Arial" font-size="14" font-weight="normal" fill="#000000">
                <tspan x="207" y="61">Search block</tspan>
            </text>
            <ellipse id="Oval" stroke="#979797" fill="#D8D8D8" cx="943.5" cy="56" rx="20.5" ry="21"></ellipse>
            <g id="Group" transform="translate(1105.500000, 57.500000) rotate(90.000000) translate(-1105.500000, -57.500000) translate(1104.000000, 48.000000)">
                <g id="Shape">
                    <use fill="#FFDF3A" xlink:href="#path-2"></use>
                    <use fill="url(#linearGradient-1)" xlink:href="#path-2"></use>
                    <use fill="url(#linearGradient-1)" xlink:href="#path-2"></use>
                    <use fill="url(#linearGradient-1)" xlink:href="#path-2"></use>
                    <use fill="url(#linearGradient-1)" xlink:href="#path-2"></use>
                    <use stroke="#FFDF3A" stroke-width="1.5" fill="url(#linearGradient-1)" xlink:href="#path-2"></use>
                </g>
            </g>
            <g id="Group" transform="translate(876.500000, 56.500000) rotate(90.000000) translate(-876.500000, -56.500000) translate(875.000000, 24.000000)">
                <g id="Shape">
                    <use fill="#FFDF3A" xlink:href="#path-3"></use>
                    <use fill="url(#linearGradient-1)" xlink:href="#path-3"></use>
                    <use fill="url(#linearGradient-1)" xlink:href="#path-3"></use>
                    <use fill="url(#linearGradient-1)" xlink:href="#path-3"></use>
                    <use fill="url(#linearGradient-1)" xlink:href="#path-3"></use>
                    <use stroke="#FFDF3A" stroke-width="1.5" fill="url(#linearGradient-1)" xlink:href="#path-3"></use>
                </g>
            </g>
            <g id="Group" transform="translate(1001.000000, 22.000000)">
                <g id="Shape">
                    <use fill="#D8D8D8" xlink:href="#path-5"></use>
                    <use fill="url(#linearGradient-4)" xlink:href="#path-5"></use>
                    <use stroke="#FFDF3A" stroke-width="1.5" fill="url(#linearGradient-1)" xlink:href="#path-5"></use>
                </g>
            </g>
            <g id="Group" transform="translate(1001.000000, 84.000000)">
                <g id="Shape">
                    <use fill="#D8D8D8" xlink:href="#path-6"></use>
                    <use fill="url(#linearGradient-4)" xlink:href="#path-6"></use>
                    <use stroke="#FFDF3A" stroke-width="1.5" fill="url(#linearGradient-1)" xlink:href="#path-6"></use>
                </g>
            </g>
            <g id="Group" transform="translate(89.000000, 21.000000)" stroke="#FFDF3A" stroke-width="1.5">
                <path d="M1.5,0.279069767 L1.5,12 M0,11.017212 L1.5,12 L3,11.017212 M0,1.11627907 L1.5,0.133491041 L3,1.11627907" id="Shape"></path>
            </g>
            <g id="Group" transform="translate(28.500000, 57.500000) rotate(90.000000) translate(-28.500000, -57.500000) translate(27.000000, 46.000000)" stroke="#FFDF3A" stroke-width="1.5" fill="#FFDF3A">
                <path d="M1.5,0.534883721 L1.5,23 M0,21.1163229 L1.5,23 L3,21.1163229 M0,2.13953488 L1.5,0.255857828 L3,2.13953488" id="Shape"></path>
            </g>
            <g id="Group" transform="translate(164.500000, 57.500000) rotate(90.000000) translate(-164.500000, -57.500000) translate(163.000000, 38.000000)" stroke="#FFDF3A" stroke-width="1.5" fill="#FFDF3A">
                <path d="M1.5,0.906976744 L1.5,39 M0,35.8059389 L1.5,39 L3,35.8059389 M0,3.62790698 L1.5,0.433845882 L3,3.62790698" id="Shape"></path>
            </g>
            <g id="Group" transform="translate(506.000000, 21.000000)">
                <g id="Shape">
                    <use fill="#D8D8D8" xlink:href="#path-7"></use>
                    <use fill="url(#linearGradient-4)" xlink:href="#path-7"></use>
                    <use stroke="#FFDF3A" stroke-width="1.5" fill="url(#linearGradient-1)" xlink:href="#path-7"></use>
                </g>
            </g>
            <g id="Group" transform="translate(89.000000, 79.000000)" stroke="#FFDF3A" stroke-width="1.5" fill="#FFDF3A">
                <path d="M1.5,0.279069767 L1.5,12 M0,11.017212 L1.5,12 L3,11.017212 M0,1.11627907 L1.5,0.133491041 L3,1.11627907" id="Shape"></path>
            </g>
            <rect id="Rectangle-2" x="0" y="0" width="1133" height="112"></rect>
            <g id="Group" transform="translate(506.000000, 79.000000)">
                <g id="Shape">
                    <use fill="#D8D8D8" xlink:href="#path-8"></use>
                    <use fill="url(#linearGradient-4)" xlink:href="#path-8"></use>
                    <use fill="url(#linearGradient-4)" xlink:href="#path-8"></use>
                    <use fill="url(#linearGradient-4)" xlink:href="#path-8"></use>
                    <use fill="url(#linearGradient-4)" xlink:href="#path-8"></use>
                    <use stroke="#FFDF3A" stroke-width="1.5" fill="url(#linearGradient-1)" xlink:href="#path-8"></use>
                </g>
            </g>
        </g>
    </g>
</svg>
